<svg width="48" height="49" viewBox="0 0 48 49" fill="none" xmlns="http://www.w3.org/2000/svg">
<g clip-path="url(#clip0_49_245)">
<path d="M24 0.5C10.7453 0.5 0 11.2453 0 24.5C0 35.755 7.74912 45.1995 18.2026 47.7934V31.8344H13.2538V24.5H18.2026V21.3397C18.2026 13.171 21.8995 9.3848 29.9194 9.3848C31.44 9.3848 34.0637 9.68336 35.137 9.98096V16.629C34.5706 16.5694 33.5866 16.5397 32.3645 16.5397C28.4294 16.5397 26.9088 18.0306 26.9088 21.9061V24.5H34.7482L33.4013 31.8344H26.9088V48.3243C38.7926 46.8891 48.001 36.7707 48.001 24.5C48 11.2453 37.2547 0.5 24 0.5Z" fill="black"/>
</g>
<defs>
<clipPath id="clip0_49_245">
<rect width="48" height="48" fill="white" transform="translate(0 0.5)"/>
</clipPath>
</defs>
</svg>
