<svg xmlns="http://www.w3.org/2000/svg" xmlns:xlink="http://www.w3.org/1999/xlink" width="224" height="46" viewBox="0 0 224 46"><defs><clipPath id="a"><rect width="46" height="46" transform="translate(0 0)" fill="none"/></clipPath><clipPath id="b"><rect width="165.091" height="39" fill="none"/></clipPath></defs><g transform="translate(-30 -776)"><g transform="translate(-23 65)"><g transform="translate(52.841 710.845)"><g transform="translate(0.159 0.155)" clip-path="url(#a)"><path d="M218.519,54.665a6.336,6.336,0,1,1-6.336-6.336,6.336,6.336,0,0,1,6.336,6.336" transform="translate(-189.46 -44.204)"/><path d="M121.86,208.6a6.336,6.336,0,1,1-6.336-6.336,6.336,6.336,0,0,1,6.336,6.336" transform="translate(-100.577 -185.757)"/><path d="M322.337,208.6A6.336,6.336,0,1,1,316,202.266a6.336,6.336,0,0,1,6.336,6.336" transform="translate(-284.926 -185.757)"/><path d="M85.779,352.624a37.677,37.677,0,0,0,3.744,2.016c.864.288.864.288,3.744,0a70.869,70.869,0,0,1,18.145-.576,21.428,21.428,0,0,0,4.32-.864c1.44-.576,2.016-.288,2.016.576s-1.152,5.76-5.76,7.2c-1.152.288-5.184-.864-7.776-1.152s-10.656.864-12.1,1.44-2.592,1.44-4.032,1.152-3.456-2.88-4.032-5.184-.576-1.728,1.728-4.608" transform="translate(-77.168 -324.019)"/><path d="M22.969,45.937A22.969,22.969,0,1,1,45.937,22.969,22.995,22.995,0,0,1,22.969,45.937m0-43.633A20.665,20.665,0,1,0,43.633,22.969,20.688,20.688,0,0,0,22.969,2.3" transform="translate(-0.174 0.236)"/></g></g></g><g transform="translate(88.909 780.003)"><g transform="translate(0 -0.003)" clip-path="url(#b)"><path d="M803.4,28.283a.726.726,0,0,1,.113.22c-.233.06-.251-.291-.483-.194l.084.092c-.02.012-.049.042-.06.036-.151-.078-.3-.16-.464-.249a.825.825,0,0,0,.443.408c.106.058.223.1.326.161a.838.838,0,0,1,.15.155c-.161.011-.266-.121-.413-.159l-.116.078-.844-.455a.732.732,0,0,0,.3.31c.208.114.485.165.559.455,0,.017.086.009.1.031a.541.541,0,0,1,.016.175c-.452-.231-.857-.453-1.276-.647a6.169,6.169,0,0,0-1.256-.58l-.168.14.293.045-.62.236-.036-.048.168-.209a.594.594,0,0,0-.449.234c-.192,0-.4.011-.608,0a2.271,2.271,0,0,0-1.1.288.336.336,0,0,0-.2.207l-.167-.105a.887.887,0,0,1-.092.045,2.97,2.97,0,0,1-.792.284,1.187,1.187,0,0,0-.369.151,4.283,4.283,0,0,0-1.186.566.275.275,0,0,1-.17.06.5.5,0,0,0-.388.228l.353-.08c-.079.08-.1.122-.138.136a24.287,24.287,0,0,1-2.448.942c-.648.181-1.256.473-1.9.637-.382.1-.747.231-1.12.348-.093.029-.182.069-.3.115.034.17.067.34.1.509s-.066.354.07.525a.313.313,0,0,1,0,.3c-.123.147-.008.318-.077.443a.988.988,0,0,0-.075.442c-.068.051-.158.116-.245.185s-.177.15-.264.224a2.879,2.879,0,0,1-.789.091c-.251-.032-.5-.061-.8-.1a.689.689,0,0,0-.552-.137c-.078-.279-.323-.351-.519-.473a3.339,3.339,0,0,1-.7-.511,1.281,1.281,0,0,0-.466-.395.224.224,0,0,1-.084-.082,1.524,1.524,0,0,0-.2-.268c-.081-.068-.206-.082-.291-.147-.192-.148-.368-.316-.556-.469-.123-.1-.256-.191-.38-.283l-.124.115c-.052-.087-.1-.171-.155-.256s-.053-.222-.214-.234c-.061,0-.122-.092-.17-.152-.171-.217-.332-.441-.5-.657a.637.637,0,0,0-.46-.223,1.122,1.122,0,0,1,.123-.756c-.148-.268-.31-.564-.477-.858a.413.413,0,0,0-.11-.112c-.114-.088-.269-.123-.306-.3-.029-.139-.246-.116-.277-.272-.252-.1-.285-.41-.56-.52a3.111,3.111,0,0,0-.537.418c-.343.333-.686.671-1.057.972a6.643,6.643,0,0,1-1.2.817,3.278,3.278,0,0,0-.423.305c-.053.006-.16-.014-.227.029a2.308,2.308,0,0,1-1.418.293.935.935,0,0,1-.552-.095.667.667,0,0,1-.067-.066,3.991,3.991,0,0,0-.705.068,1.735,1.735,0,0,1-1.123-.221,7.216,7.216,0,0,1-1.327-.849l-.182.079v-.2c-.284-.283-.558-.548-.821-.823a4.008,4.008,0,0,0-.4-.458c-.12-.092-.259-.146-.3-.311-.316-.235-.412-.619-.631-.92a1.373,1.373,0,0,0-.235-.2.863.863,0,0,0-.15-.542c-.157-.272-.26-.575-.406-.855a2.984,2.984,0,0,0-.279-.385c.128-.4-.273-.706-.186-1.073a1.69,1.69,0,0,1-.321-1.067l-.229-.228v-.4l-.178-.134.079-.087-.269-1.237-.127-.1a1.359,1.359,0,0,0,.088-.376c-.018-.261-.093-.52-.1-.78,0-.141-.145-.292.019-.445a.25.25,0,0,0-.045-.285c-.128-.13-.1-.3-.106-.468a1.888,1.888,0,0,0-.068-.72c-.036-.084.034-.212.065-.367l-.1-.234-.169-.009a1.494,1.494,0,0,1-.5.356c-.182.1-.358.212-.539.314-.331.186-.68.336-1.017.5s-.631.38-.947.567a1.892,1.892,0,0,1-.737.323,2.024,2.024,0,0,0-.607.24.869.869,0,0,1-.336.146c-.151.009-.177.125-.167.266l.328.287c.206.031.369-.118.517-.339l.284.2.16-.324.25.313.254-.378a1.724,1.724,0,0,1,.167.55,5.158,5.158,0,0,0,.256,1.121c.128.08.047.215.082.32a3.3,3.3,0,0,0,.781,1.333,1.524,1.524,0,0,1,.169.245,3.227,3.227,0,0,0,.383.555,4.632,4.632,0,0,1,.318.533c.273.381.415.836.7,1.207.022.028.025.07.046.1.091.121.182.241.278.358.359.437.71.879,1.036,1.343.267.381.589.724.854,1.107.172.248.409.429.588.662a13.064,13.064,0,0,1,.914,1.195c.218.364.517.678.76,1.027a7.5,7.5,0,0,0,.684.892c.371.39.617.868.988,1.254a6.418,6.418,0,0,1,.761.99.559.559,0,0,1-.147-.074,2,2,0,0,1-.289-.314c-.078-.117-.246-.134-.29-.266s-.207-.213-.242-.332-.143-.119-.2-.185a9.291,9.291,0,0,1-1-1.2.717.717,0,0,0-.354-.329l-.136-.306-.048.013V31.6l.207.4c.359.475.834.939,1.236,1.469s.919.964,1.3,1.511h-.216l.216.158.079.079.079.079c-.015.109.029.184.158.234v-.155l.382.425-.117.228-.035-.191-.145.145.175.174.158-.092.2.271.133-.073c.006,0,.033.01.039.025a1.217,1.217,0,0,0,.282.432,4.753,4.753,0,0,1,.7.846c.117.19.326.321.435.528,0,0-.015.018-.049.056-.111-.082-.227-.167-.346-.248l.012-.011-.055-.064-.025.025a.436.436,0,0,0,.068.051c.021.065.039.134.06.215l-.1.1-.074-.158h-.106l-.026.3c-.026-.008-.053-.007-.061-.02-.186-.263-.37-.528-.557-.8l.177-.082a.786.786,0,0,0-.08-.128c-.444-.472-.91-.925-1.326-1.42-.25-.3-.521-.569-.794-.859l-.4.065-.1-.1c0,.015-.02.067,0,.084.152.16.31.315.466.471l-.053.053c.152.488.722.6.914,1.06-.718-.511-1.286-1.2-2.007-1.731l-.043.132c.365.423.877.687,1.19,1.156h-.11c-.54-.523-1.157-.951-1.672-1.493-.051-.054-.153-.061-.265-.1l.076.177h-.112c-.195-.153-.321-.378-.573-.5a1.839,1.839,0,0,0,.468.553,2.452,2.452,0,0,1,.69.656.9.9,0,0,1-.473-.279c-.146-.131-.275-.282-.42-.414a9.67,9.67,0,0,0-.752-.625c.051.108,0,.27.188.3.031,0,.055.053.084.08L771,36.019c.005.18.075.33.286.334l.129.4-.095.041a1.272,1.272,0,0,0-.165-.221.611.611,0,0,0-.279-.172c-.149-.02-.08-.173-.18-.219a.689.689,0,0,1-.269-.195c-.057-.078-.085-.17-.172-.181l.066-.227-.129-.129-.161.153h-.178l-.033-.211-.458-.338-.026-.065-.053.065-.211.054c-.209-.206-.434-.425-.655-.649-.021-.021-.014-.07-.02-.109h-.168l-.806-.805-.3.075a1.774,1.774,0,0,1,.814.647c-.053,0-.105,0-.161,0l.012-.011-.055-.064-.025.025a.447.447,0,0,0,.068.051.5.5,0,0,0,.247.286c.115.054.079.283.276.268l.585.623a1.165,1.165,0,0,1-.173-.057c-.062-.031-.117-.076-.258-.171.052.141.057.207.092.238a4.553,4.553,0,0,0,.655.594,2.088,2.088,0,0,1,.395.419h-.153a2.038,2.038,0,0,0-.327-.352c-.323-.21-.568-.507-.877-.732-.183-.133-.346-.294-.523-.437-.132-.107-.191-.277-.354-.364a1.981,1.981,0,0,1-.387-.3c-.155-.142-.3-.3-.448-.444-.483-.483-.97-.962-1.448-1.449a4.154,4.154,0,0,1-.6-.656.618.618,0,0,0-.376-.316c-.043-.009-.075-.071-.113-.107-.337-.321-.651-.664-1.02-.955a5.1,5.1,0,0,1-.619-.684,6.465,6.465,0,0,1-.623-.685,2.118,2.118,0,0,0-.554-.555.961.961,0,0,0-.906-.187,1.037,1.037,0,0,1-1.207-.2h-.245a.405.405,0,0,0-.034-.1,1.11,1.11,0,0,0-.361-.406,1.013,1.013,0,0,1-.428-.6.69.69,0,0,0-.078-.164c-.32-.52-.522-1.1-.813-1.633a.385.385,0,0,1,.006-.434L757,23.807l.162-.116-.3-.724a1.051,1.051,0,0,1,.1-.756,2.571,2.571,0,0,1,.571-.972l.16.216c.119-.169.219-.333.341-.48s.283-.252.3-.509a6.794,6.794,0,0,0-.986.31c-.126.056-.286-.044-.4.1l-.127-.093-.219.188-.145-.081-.174.242a3.478,3.478,0,0,1-.092.363c-.036.1.118.176.013.3-.052.061-.01.2-.01.307a1.591,1.591,0,0,1,0,.392,11.5,11.5,0,0,0-.087,1.306c-.044.293-.021.59-.077.873-.053.268-.014.542-.078.794a8.431,8.431,0,0,0-.069,1.466c-.022.291-.062.582-.075.873s-.009.578,0,.866c0,.122-.05.256.069.367a.188.188,0,0,1,0,.186c-.153.144-.04.339-.119.506a1.6,1.6,0,0,0-.036.536c0,.033-.036.064-.059.1l.219.425v.3l-.216.143-.12,1.039-.227.188v.307c-.05-.005-.106,0-.117-.015-.087-.145-.166-.295-.254-.455h-.054l-.106.421.048.087a.655.655,0,0,0-.054.128.793.793,0,0,0,0,.161c-.213-.12-.2-.327-.273-.493l-.118.035.088.361h-.153l-.034-.22-.121-.012-.025.238-.222.256c-.032-.089-.062-.167-.089-.248a.493.493,0,0,0-.132-.238L753.64,33l-.092.008-.159-.43-.214.163.12.242-.175.029v-.271c-.083-.083-.483.158-.593.344h-.274a.7.7,0,0,1,.064.45l-.131.039-.032-.315h-.28l-.192.2v.485h-.148v-.3l-.165.008.054.286-.08.1-.172-.261-.174.1c-.157-.067-.34-.1-.359-.345-.171.1-.344.127-.4.333-.02.07-.13.114-.2.169.009-.048,0-.113.029-.141a.567.567,0,0,0,.132-.735c-.02-.037,0-.093,0-.174l-.315.341c.026-.147.063-.292.076-.44s0-.315,0-.472a.574.574,0,0,0-.02-.1l-.08-.007-.3.482a3.49,3.49,0,0,1-.381-.249,3.318,3.318,0,0,1-.3-.335l-.038.258-.569-.411-.032.038.186.3H748.2a2.371,2.371,0,0,1-.219-.177l.014.177h.2a2.012,2.012,0,0,1,.017.337l.239-.094c-.009.174-.092.236-.205.231l-.435-.434a.267.267,0,0,0-.022.359,1.224,1.224,0,0,1-.258-.1c-.136-.091-.259-.2-.388-.3l-.618-.483a3.478,3.478,0,0,0-.938.456c-.107.084-.312,0-.4.174-.317.012-.483.254-.683.445a.24.24,0,0,1-.062.04c-.011.005-.026,0-.057,0l-.074-.157a6.369,6.369,0,0,0-.767.516c-.043.045-.142.033-.209.061-.325.138-.646.281-.963.437a9.269,9.269,0,0,1-1,.343,6.614,6.614,0,0,0-1.459.665.843.843,0,0,1-.16.059l.07.976-.318.021a1.985,1.985,0,0,1-.667.262,2.6,2.6,0,0,1-.98-.012c-.048-.014-.117-.038-.147-.017-.272.194-.506,0-.728-.093a2.2,2.2,0,0,0-.655-.229c-.057,0-.108-.053-.165-.075a2.181,2.181,0,0,0-.729-.242c-.077,0-.152-.073-.23-.1a5.213,5.213,0,0,0-.5-.219c-.19-.054-.412-.163-.382-.439a1.452,1.452,0,0,1-.852-.535c-.133-.152-.078-.364-.086-.563-.1-.147-.194-.309-.312-.451s-.271-.2-.355-.36c-.18-.333-.553-.524-.672-1a.855.855,0,0,0-.126-.448,1.756,1.756,0,0,1-.125-.537c.065-.114.191-.171.18-.334a.391.391,0,0,1,.211-.368.311.311,0,0,0,.174-.288,2.435,2.435,0,0,0,0-.275.983.983,0,0,1,.09-.554.7.7,0,0,0-.094-.756c.066-.431-.128-.869-.073-1.323a7.789,7.789,0,0,1-.154-2.219,1.35,1.35,0,0,0-.138-.6c.022-.165.095-.326.043-.4-.092-.128-.047-.248-.065-.37a2.744,2.744,0,0,1-.079-.755c.013-.1-.042-.209.063-.291.021-.016.012-.072.015-.11.017-.176-.209-.35,0-.527,0-.21,0-.419,0-.629s.01-.394,0-.59c-.009-.135-.052-.267-.075-.4a2.609,2.609,0,0,0-.062-.366c-.053-.171-.025-.373-.1-.553-.023-.056-.049-.111-.076-.171l.1-.252-.2-.226a1.4,1.4,0,0,0,.037-.964l.212-.7c-.153-.308-.032-.651-.08-.967l-.467-.693c-.021-.138-.051-.324-.078-.509s.07-.364-.076-.48l.246-.5-.091-.117c.078-.28.164-.561.232-.846a.45.45,0,0,0,0-.309c-.148-.22-.053-.4.036-.605h1.35l.187.165c.212-.128.414-.257.659-.1a.164.164,0,0,0,.152,0c.133-.112.292-.06.425-.077l.153-.153a1.923,1.923,0,0,0,1.055-.321c.048.02.107.069.149.057.1-.029.2-.1.3-.128s.232-.008.34-.038c.09-.025.182-.013.273-.033a.683.683,0,0,0,.4-.157,1.483,1.483,0,0,0,.351-.042c.377-.143.792-.164,1.123-.324l.838-.186.049.049c.016-.005.034-.01.052-.017a.835.835,0,0,1,.383-.129,1.06,1.06,0,0,0,.322-.073c.327-.089.671-.083,1-.161a8.992,8.992,0,0,0,1.089-.322,1.029,1.029,0,0,1,.253-.064c.235-.144.411-.261.595-.362s.37-.184.56-.278l.124.086a1.105,1.105,0,0,0,.2-.082,1.579,1.579,0,0,1,1.17-.407l-.078-.2h.28a1.973,1.973,0,0,0,.856.624c.2.049.38.2.576.214a.9.9,0,0,1,.616.343l.316-.093.024.043-.3.225.277.068-.171.323.353.16-.311.126v.288l.251.16-.167.23.14.14c-.014.016-.027.045-.042.045-.167,0-.333,0-.54,0,.045.086.063.13.089.169.059.086.185.082.227.216s.242.088.362.158c.066.038.186-.017.358-.041a.431.431,0,0,0,.485-.028c.193.084.373-.15.61-.027a.478.478,0,0,1-.323.183,2.036,2.036,0,0,0-1.132.426c0,.034-.007.072-.006.109a.332.332,0,0,0,.013.065l.36.136c-.349.127-.593.281-.615.66a6.309,6.309,0,0,1-1.382.422,1.8,1.8,0,0,0-.347.111,3.109,3.109,0,0,1-.824.2c-.026,0-.06-.011-.078,0a5.364,5.364,0,0,1-.966.333c-.3.137-.625.2-.922.347a5.182,5.182,0,0,1-.84.251,2.53,2.53,0,0,1-.518.189,1.867,1.867,0,0,0-.5.217c-.134.058-.274.1-.406.161a1.209,1.209,0,0,0-.189.138,1.225,1.225,0,0,1,.263.224,1.268,1.268,0,0,1,.095.314c.032.105.068.209.115.351l.11.11v.242l.151.131v.379c.271-.184.506.105.749-.01l.356.355v.254l-.422.421c-.212.029-.346-.112-.5-.245-.163.091-.433,0-.5.323-.383-.058-.568.251-.808.472a.755.755,0,0,1-.469-.222h-.711c-.223.105-.207.356-.319.564l.294.2c.148-.1.319-.032.473-.066a4.022,4.022,0,0,0,.448-.153c.081-.028.163-.05.243-.08s.106.149.179.018c.276-.032.551-.085.828-.09a4.609,4.609,0,0,0,.737-.126c.377-.068.737-.195,1.109-.277a1,1,0,0,0,.473-.2.437.437,0,0,1,.413-.11l.166-.166a1.064,1.064,0,0,0,.583-.146c.2-.077.4.154.628.042l.021-.189c.022,0,.047,0,.058.011a2.247,2.247,0,0,0,1.089.612,1.117,1.117,0,0,1,.656.541c.037.062.064.131.107.221l.356.122c-.074.081-.251.068-.219.268l.195.025.2.234.261-.138-.111.289h-.353l-.12.128c.058.039.11.074.166.1l-.012.011.055.064.025-.025a.443.443,0,0,0-.068-.051c.121-.068.121-.068.344-.022l-.234.278h-.232l.436.224h.28l.15.163a.91.91,0,0,0-.826.3,3.022,3.022,0,0,0,1.055-.056.714.714,0,0,1,.231-.014,1.343,1.343,0,0,0,1-.523,2.077,2.077,0,0,0,.162-.266.359.359,0,0,1,0-.468,1.279,1.279,0,0,1-.035-.839c-.021-.224-.041-.45-.066-.724l-.136-.092c0-.074-.016-.126,0-.149.177-.217.125-.5.207-.742.029-.088-.083-.24-.041-.3.088-.133-.04-.221-.018-.337a.431.431,0,0,0-.058-.329.411.411,0,0,1,.031-.368.367.367,0,0,0,.036-.394.127.127,0,0,1,0-.115.525.525,0,0,0-.028-.579l.175-.186a1.034,1.034,0,0,0-.162-.683c.193-.136.11-.4.244-.587a.2.2,0,0,0-.028-.178.324.324,0,0,1-.036-.331,1.3,1.3,0,0,0,.07-.524c.02-.161.057-.319.076-.48s-.039-.334.079-.481c.013-.016.006-.052,0-.077-.031-.172-.158-.363-.067-.512.1-.169.051-.326.062-.487a1.073,1.073,0,0,0-.067-.295l.143-.271V9.637a3.965,3.965,0,0,1-1.118-.56c-.183.021-.26-.137-.384-.218a2.58,2.58,0,0,0-.431-.193c-.158-.065-.337-.08-.461-.226a.384.384,0,0,0-.2-.088,1.961,1.961,0,0,1-.858-.5c-.092-.084-.2-.158-.293-.234a1.723,1.723,0,0,1-.594-.732.758.758,0,0,1-.069-.206,2.266,2.266,0,0,0-.015-.548c-.054-.166.062-.3.017-.452a.233.233,0,0,1,.047-.173A.768.768,0,0,0,746.091,5c0-.078,0-.157,0-.232.122-.193.122-.193.285-.282a1.535,1.535,0,0,0,.115-.577.355.355,0,0,1,.077-.239.616.616,0,0,0,.151-.52l.244-.371-.108-.274c.088-.075.177-.143.255-.22a2.2,2.2,0,0,1,.184-.211.5.5,0,0,1,.5-.085,2.6,2.6,0,0,0,1.125.137c.044,0,.088-.041.132-.063.033.018.076.061.119.062a3.84,3.84,0,0,0,.865-.009,6.3,6.3,0,0,1,.956-.07c.161-.01.328-.151.476-.067a.923.923,0,0,0,.563.063,8.132,8.132,0,0,0,.815-.139l.065.06.59-.335.3.271.525-.213a2.358,2.358,0,0,0,.719.049,1.774,1.774,0,0,0,.662-.176l.233.184.256-.055c.048-.01.124-.046.14-.028.148.162.382-.008.537.147.033.033.156-.025.3-.053-.012-.008.025.038.068.044.249.037.5.062.75.1.161.022.321.049.48.079s.311-.069.446.072c.023.024.125-.046.184-.036a2.787,2.787,0,0,0,.856.116c.113-.016.22.136.33,0a.473.473,0,0,0,.361.078.827.827,0,0,1,.364.073c.115.037.239.031.364.072a4.058,4.058,0,0,0,.712.094c.071.01.138.065.207.066.161,0,.209.208.407.182.14-.019.3.09.445.144a1.33,1.33,0,0,0,.41.143,2.623,2.623,0,0,1,.808.246c.258.079.5.206.75.282a2.761,2.761,0,0,1,.676.275c.19-.066.246.147.4.191a3.706,3.706,0,0,1,.73.327,12.432,12.432,0,0,1,1.28.719c.322.231.655.447.983.671a.564.564,0,0,1,.056.055c.342.316.683.633,1.027.947.218.2.44.393.669.6v.23a1.039,1.039,0,0,1,.334.483c.019.067.116.11.141.177.164.444.319.892.476,1.339a.275.275,0,0,1,0,.078,2.053,2.053,0,0,0,.067.6c.041.126.093.313-.116.429l.334.237a3.451,3.451,0,0,0,.893-.388,3.583,3.583,0,0,1,.47.005,1.958,1.958,0,0,1,.381.136l.248-.3h.468a3.428,3.428,0,0,1,.25-.419,2.426,2.426,0,0,1,.324-.286l.094.047a1,1,0,0,1,.217-.042c.07,0,.126.083.218,0,.038-.033.156.027.282.054a4.026,4.026,0,0,0,1.071-.558.861.861,0,0,0,.122.1.419.419,0,0,0,.12.021,1.19,1.19,0,0,0,0,.238.745.745,0,0,0,.107.181l-.255.4-.387-.062-.036.323c-.2-.025-.38.209-.632-.022a2.884,2.884,0,0,1,.091.354,2.508,2.508,0,0,1,0,.317l.217.319a2.055,2.055,0,0,0-.056.769.785.785,0,0,0,.054.22c-.193.186.079.311.068.552-.069.161-.069.161.109.455l-.028.028.07.64a.174.174,0,0,1-.034.269c.118.215.286.414.22.7l.227.18a5.955,5.955,0,0,1,.182,1.3c0,.161.129.309.008.494-.044.068.041.232.088.344s.125.237.2.385a.652.652,0,0,0-.234.543c-.061.046-.123.07-.147.115a1.078,1.078,0,0,1-1.047.634c-.158,0-.316.006-.473,0a1.206,1.206,0,0,1-.241-.072l-.1.07a2.27,2.27,0,0,1-1.014-.456h-.33l-.1.1a4.716,4.716,0,0,1-.074.793.6.6,0,0,0,.058.558c.032.041.013.128.005.193a9.031,9.031,0,0,0,.084,1.149c0,.081.06.16.072.244a1.915,1.915,0,0,1,0,.275c.069.185.281.35.085.574.043.1.088.2.127.3q.172.441.339.884a.337.337,0,0,1,0,.1c.174.065.175.317.381.37.031.218.022.45.3.545.064.022.092.14.143.21a.735.735,0,0,0,.49.323.337.337,0,0,1,.1.036c.147.091.291.186.435.278h.951l.138-.142a.284.284,0,0,0,.055.021c.071.011.169.054.209.024a2.791,2.791,0,0,1,.7-.31,1.7,1.7,0,0,0,.5-.319c.22-.2.482-.354.721-.536a1.256,1.256,0,0,0,.34-.31,4.477,4.477,0,0,1,.621-.687,1.253,1.253,0,0,0,.381-.513.242.242,0,0,1,.065-.091,5.686,5.686,0,0,0,.8-1.244,1.92,1.92,0,0,0,.226-.378.827.827,0,0,1,.2-.394.18.18,0,0,0,.046-.135c-.024-.124.047-.191.121-.268a.339.339,0,0,0,.084-.161,8.725,8.725,0,0,0,.351-1.313c.159-.145.032-.36.139-.536a.447.447,0,0,0-.031-.442.19.19,0,0,1,.046-.267,1.485,1.485,0,0,1-.072-.286c-.011-.209,0-.42,0-.63a3.331,3.331,0,0,0-.286-1.339,2.254,2.254,0,0,1-.06-.291,2.131,2.131,0,0,0-.144-.452c-.071-.132-.105-.274-.167-.4a15.415,15.415,0,0,1-.7-1.721,4.2,4.2,0,0,0-.365-.661l.2.055a.186.186,0,0,0,.022-.077c0-.037-.023-.354-.023-.392,0-.09,0-.18-.009-.3l.42-.217c.09.143.179.308.291.455s.308.206.372.405l.1-.1.217-1.3a.43.43,0,0,0,.212-.311,5.669,5.669,0,0,1,.156-.6.566.566,0,0,1,.092-.135l-.1-.146.325-.551a.615.615,0,0,1,.16-.527.946.946,0,0,1,.126-.535,4.732,4.732,0,0,0,.27-.744,2.117,2.117,0,0,1,1.279.189,1.019,1.019,0,0,0,.469.11c.2-.02.385.1.6.084a1.863,1.863,0,0,0,.88-.166c.173.066.208-.167.369-.165a1.668,1.668,0,0,0,.424-.118c.249.1.305.081.63-.208a2.1,2.1,0,0,0,.485-.11A1.244,1.244,0,0,1,790,5.982a2.97,2.97,0,0,0,.936-.306.836.836,0,0,1,.32-.08c.183-.013.367,0,.517,0a1.765,1.765,0,0,1,.725-.242,1.393,1.393,0,0,0,.534-.132.968.968,0,0,1,.475-.1,1.38,1.38,0,0,1,.728-.233.422.422,0,0,0,.282-.083c.182-.128.425-.127.592-.3.037-.037.156.008.289.02l.227-.128.2.244a.263.263,0,0,0,.3-.177l-.508-.206c.123-.049.179-.1.216-.083a3.609,3.609,0,0,1,.924.439,3.3,3.3,0,0,0,1,.616,3.5,3.5,0,0,1,.51.2,1.981,1.981,0,0,1,.438.278,1.734,1.734,0,0,0,.3.146c.05.163-.052.357.089.511a.116.116,0,0,1,0,.113c-.133.146-.051.322-.084.5l.45.168.066-.137h.081l.135.32c.3-.048.443-.341.729-.324l.163.256a2.7,2.7,0,0,1,1.18-.162c.172.117.361.237.541.369s.186.4.428.431c-.112.235-.027.484-.063.734l-.108.1a.888.888,0,0,0-.831.208v.274l.257.213-.084.142c.085.253.309.457.306.763,0,.084.083.175.141.253a1.045,1.045,0,0,1,.17,1.089,4.715,4.715,0,0,0-.158.563l-.249.162.133.133.1-.138c.352-.045.656-.129.791-.463a3.124,3.124,0,0,1,.368-.109,1.833,1.833,0,0,1,.309,0l.328.327.231-.066a2.048,2.048,0,0,1,.843.112,2.141,2.141,0,0,0,.307.023c.174.019.36-.06.523.074a.177.177,0,0,0,.153,0,2.214,2.214,0,0,1,.876-.075c.1-.007.205,0,.319,0l.017-.292c.193-.193.535-.154.67-.437a1.334,1.334,0,0,0,.3.095.878.878,0,0,0,.619-.124,1.538,1.538,0,0,1,.473-.185,1.352,1.352,0,0,0,.578-.317c.083-.029.157.147.259.007.019-.026.156.034.27.062a1.635,1.635,0,0,1,.608-.145,1.355,1.355,0,0,0,.623-.119.811.811,0,0,1,.48-.008,2.683,2.683,0,0,0,.528.025c.029,0,.058-.043.053-.039l.42.069.04-.155h.349c.062.062.037.2-.07.358l-.47-.124a.757.757,0,0,1-.22.064,1.789,1.789,0,0,0-.442.077.221.221,0,0,0-.191.26c-.1.213-.31.211-.471.3-.2-.153-.4-.02-.606-.012a4.24,4.24,0,0,1-.636.082c-.237-.028-.382.2-.607.166l-.242.231-.109-.088c-.2.112-.314.336-.581.479-.1.116-.051.326-.06.53l-.314.412a.632.632,0,0,0,.171.547c-.092.176-.183.322-.248.479a1.81,1.81,0,0,1-.437.649,1.735,1.735,0,0,0-.224.337l.252.5-.1.4-.12.127.123.217c-.021.2-.025.364-.057.521s.223.3.016.436c.024.063.078.134.061.173a1.718,1.718,0,0,0-.071.758,2.159,2.159,0,0,1-.145.887.736.736,0,0,0-.014.309.57.57,0,0,1-.159.486v.247l-.1.029c-.218.068-.45.116-.456.42,0,.04-.062.078-.105.129h-.494a.819.819,0,0,0,.126.513v.4l.158.112a1.21,1.21,0,0,0,.326.922V23.3l.121.028a.2.2,0,0,1,.03.066.752.752,0,0,0,.076.4,1.028,1.028,0,0,1,.213.495c-.006.192.139.269.2.4a1.424,1.424,0,0,0,.166.371,2.606,2.606,0,0,1,.292.583c.156.317.3.639.477.945a1.406,1.406,0,0,0,.386.55c-.057.171.1.251.168.363a4.588,4.588,0,0,0,.753,1.028,2.388,2.388,0,0,0,1.68.7,2.785,2.785,0,0,0,1.253-.311,3.934,3.934,0,0,0,.616-.321,1.279,1.279,0,0,0,.158-.092,4.636,4.636,0,0,1,1.018-.779.213.213,0,0,0,.056-.055,4.905,4.905,0,0,0,.449-.564c.168-.283.4-.512.587-.779s.4-.517.6-.776c.1-.13.2-.263.279-.372a2.312,2.312,0,0,1,.15-.356,11.351,11.351,0,0,0,.8-1.444,6.443,6.443,0,0,0,.34-.8c.08-.27.244-.517.3-.781a6.688,6.688,0,0,0,.348-1.238c.208-.349.147-.77.3-1.137.01-.025-.037-.1.011-.169.036-.055,0-.153.008-.232a6.152,6.152,0,0,0,.078-1.11,3.312,3.312,0,0,0,.075-1.189,7.638,7.638,0,0,0-.007-1.22c-.049-.412-.088-.826-.158-1.234a1.093,1.093,0,0,0-.1-.389c-.145-.235-.08-.538-.269-.758a.242.242,0,0,1-.01-.224c.072-.121.135-.223-.005-.333.07-.284-.16-.49-.185-.754l-.138.023.188.556c-.263-.144-.153-.433-.3-.512.01-.2.022-.358.021-.515,0-.044-.059-.092-.053-.132a1.719,1.719,0,0,0-.219-.935c-.039-.089-.021-.2-.063-.289-.084-.17-.127-.372-.352-.444-.09-.029-.159-.124-.237-.19-.009-.075.009-.174-.032-.221-.311-.358-.48-.805-.757-1.184a2.195,2.195,0,0,1-.156-.211c-.113-.2-.377-.235-.483-.462-.09-.193-.329-.279-.413-.5-.023-.061-.144-.084-.21-.119V6.5a5.7,5.7,0,0,0-.743-.67,1.522,1.522,0,0,1-.282-.312l.083-.046c-.009-.04-.006-.074-.021-.086-.135-.114-.27-.23-.412-.334-.331-.242-.668-.477-1-.715a.547.547,0,0,1-.118-.092,2.606,2.606,0,0,0-.849-.611c-.2-.113-.4-.239-.6-.359V3.15l.081-.045c-.019-.211-.239-.213-.317-.349l.371.07.023-.149a.722.722,0,0,1,.067.028c.15.08.333.052.471.2a1.617,1.617,0,0,0,.444.241,1.123,1.123,0,0,1,.38.3.575.575,0,0,0,.167.164,4.713,4.713,0,0,1,1.262,1.029l.171.02.409.506.1-.123.112-.063a1.062,1.062,0,0,0-.134-.154A30.158,30.158,0,0,0,811.8,2.483a.374.374,0,0,1,.473.089,4.519,4.519,0,0,0,.688.439l.879.539-.106.265L813.9,3.7a.848.848,0,0,1,.23.1,7.146,7.146,0,0,0,.966.717c.092.055.026.225.181.211a3.265,3.265,0,0,0,.768.522,4.135,4.135,0,0,1,.623.5,1.116,1.116,0,0,0,.33.667,7.379,7.379,0,0,0,.8.887,1.569,1.569,0,0,1,.2.272c.033.051.044.123.087.159a4.8,4.8,0,0,1,.672.9,1.267,1.267,0,0,0,.3.212c0,.048-.022.15,0,.165.159.087.128.269.217.389a2.36,2.36,0,0,1,.2.351,2.033,2.033,0,0,1,.19.432.7.7,0,0,0,.274.438c.1.075.133.229.208.369l-.065.088c.141.31.191.672.372.993a1.811,1.811,0,0,1,.1.311,1.4,1.4,0,0,0,.067.169,1.515,1.515,0,0,1,.235.489,1.823,1.823,0,0,0,.332.813c.032.094-.071.254.077.365l-.157.147.228.148a.522.522,0,0,0,.008.122c.047.145-.195.258-.034.423.108.111-.038.3.1.432.046.043.007.176.007.268v1.088c.116-.1.225-.15.228-.206.012-.2.153-.334.214-.5s.107-.347.184-.515.082-.363.168-.52a7.642,7.642,0,0,1,.568-1.067,1.137,1.137,0,0,0,.209-.384,3.814,3.814,0,0,1,.266-.56,2.39,2.39,0,0,1,.146-.371c.09-.133.261-.215.246-.412.17-.1.118-.324.274-.443a1.591,1.591,0,0,0,.26-.368.361.361,0,0,1,.1-.309.991.991,0,0,0,.28-.392c.054-.157.221-.164.289-.307a1.592,1.592,0,0,1,.351-.367c0-.079,0-.157,0-.209a3.59,3.59,0,0,0,.3-.252c.431-.45.866-.9,1.279-1.363a2.4,2.4,0,0,1,.552-.466V7.679l.065-.038a1.508,1.508,0,0,0,.287-.161,11.444,11.444,0,0,0,1.023-.95,15.957,15.957,0,0,1,1.914-1.657.93.93,0,0,1,.267-.115,5.127,5.127,0,0,0,.959.05l.333.225h.434c.043.054.092.163.176.209.134.074.282.2.45.079a.353.353,0,0,1,.449.057c.158.133.348.186.526.314a.569.569,0,0,1,.6-.241l.176.3-.219.457.9.8h.15l.085-.2.261.241v.277c.213.016.307.369.6.177.172.041.211.24.349.334s.293.182.452.28h.191c.459.294.868.62,1.323.857v.312h-.462a1.317,1.317,0,0,0,.086.509.388.388,0,0,1-.025.485.91.91,0,0,0-.146.574.552.552,0,0,0,.154.449l-.626.826c.053.295-.182.459-.381.664v.205c-.177.331-.315.633-.5.906-.076.114-.047.219-.075.326l-.227.226v.335a1.068,1.068,0,0,0-.556.644.551.551,0,0,1-.494.327l-.438.555-1.029-.109a.724.724,0,0,0-.252-.147,1.154,1.154,0,0,1-.536-.324c-.221-.242-.486-.448-.688-.7a5.56,5.56,0,0,1-.83-1.072,1.006,1.006,0,0,0-.53-.563h-.441L829.8,14.57h-.1c-.352.395-.713.759-1.025,1.161s-.555.821-.853,1.269v.606c.114.234.448.218.591.454l.3-.1a.84.84,0,0,0,.666.479.368.368,0,0,1,.164.077c.3.225.683.262.992.464.055.036.154.005.229.005.191.167.331.406.628.4a2.672,2.672,0,0,0,.818.5,2.8,2.8,0,0,1,.523.354c.021.015.034.045.057.054a6.142,6.142,0,0,1,1.218.764,4.5,4.5,0,0,0,1.087.522,1.831,1.831,0,0,1,.962.8,2.7,2.7,0,0,1,.294.668,2.374,2.374,0,0,0,.364.582h.24a1.171,1.171,0,0,1,.143-.495c.135-.311.264-.628.385-.943.206-.536.474-1.039.706-1.56.212-.476.4-.963.595-1.447.169-.423.263-.863.4-1.294.027-.088.014-.276.174-.252a6.6,6.6,0,0,0,.25-.705,2.477,2.477,0,0,0,.2-.668c0-.026-.007-.067.005-.075.211-.134.142-.388.243-.571a1.522,1.522,0,0,0,.153-.568c.011-.1.12-.188.145-.291a1.883,1.883,0,0,0,.006-.393l.156-.1a1.05,1.05,0,0,1,.078-.516.811.811,0,0,0,.089-.4.747.747,0,0,1,.109-.345,5.712,5.712,0,0,0,.42-1.086c.1-.3.253-.579.361-.876.1-.274.259-.522.385-.786a2,2,0,0,0,.3-.941,1.5,1.5,0,0,1,.107-.405l.122-.025-.041-.29c.238-.21.2-.537.2-.837l.152-.152a2.056,2.056,0,0,1,.736-1.448l.549.259.408-.512h.326l.285-.193c.339.006.646.216,1.007.05a2.5,2.5,0,0,0,1.3-.015l.251.282a1.314,1.314,0,0,0,.767.035c.224.159.479.036.722.087a1.366,1.366,0,0,0,1.047.715l.335.335v.272a1.721,1.721,0,0,1,.247.789c0,.133.059.266.071.4s0,.289,0,.418c-.191.287-.2.676-.54.845v.595c.192.239.129.556.233.819s.105.58.221.868a.753.753,0,0,0,.008.706c-.04.11-.15.2-.027.341a.587.587,0,0,1,.092.518.725.725,0,0,0-.417.553,3.234,3.234,0,0,1-.548.987l.272.169-.037.04h.232a.716.716,0,0,1,.19.671c-.178.037-.275.294-.518.173l-.2-.386.1-.489-.279-.205a1.053,1.053,0,0,1-.368-.072.828.828,0,0,0-.438-.091.522.522,0,0,1-.458-.15h-.544a3.8,3.8,0,0,0-.674,1.167.942.942,0,0,0-.172.484c0,.093-.1.189-.157.285a.808.808,0,0,0-.145.5c.386-.01.742.121,1.119.094.12-.009.248.088.383.14a.852.852,0,0,1,.612-.042c.034.006.063.046.1.049.3.03.608.065.913.078a3.494,3.494,0,0,0,.9-.01,7.115,7.115,0,0,1,1.193-.066.529.529,0,0,0,.254-.057.388.388,0,0,1,.331.006.449.449,0,0,0,.257.049.515.515,0,0,1,.366.164,5.539,5.539,0,0,0,.742.587c.056.038.082.12.128.191h.145c.013-.012.04-.025.046-.045a19.986,19.986,0,0,1,1.209-2.69,11.191,11.191,0,0,0,.527-1.4c.091-.279.124-.573.227-.851a1.5,1.5,0,0,1,.128-.3.814.814,0,0,0,.192-.652l.112-.112c.088-.266.166-.484.232-.706a12.324,12.324,0,0,1,.957-2.124.624.624,0,0,0-.011-.683,3.786,3.786,0,0,0-.407-.528,1.619,1.619,0,0,0-.482-.268l-.334-.663a.817.817,0,0,1,.5.258l.269-.145-.187-.239a1.689,1.689,0,0,1,.248-1.172c.088-.047.256-.087.266-.152.025-.157.2-.1.248-.215V5.643l.225-.206a1.2,1.2,0,0,0,.426-.07.33.33,0,0,1,.39.084c.186-.123.371-.226.534-.357.23-.184.454-.378.665-.584a7.28,7.28,0,0,1,1.214-.974.183.183,0,0,0,.082-.083c.068-.238.305-.336.43-.531.232-.363.322-.789.548-1.153-.007-.36.25-.635.3-1.026l-.142-.262c.05,0,.107-.013.137.009.288.206.287.208.552.212.008-.033.018-.068.024-.1s.008-.074.012-.108l.372-.065.306.154L864.053,0a.466.466,0,0,1,.114.073,1.978,1.978,0,0,1,.139.2l.407-.214.176.254h.448V.469c.161.283.531.331.567.671.245.179.31.477.443.68l.109.663c-.216.176-.332.495-.672.574a1.39,1.39,0,0,1-.765-.11,1.223,1.223,0,0,0-.405-.041l-.208.208v.352a.21.21,0,0,0-.237.148c-.173.375-.368.741-.515,1.125a8.752,8.752,0,0,0-.246.954c-.034.086-.086.235-.152.378s-.023.314-.1.472a.83.83,0,0,0-.1.434,2.872,2.872,0,0,1-.067.479c-.013.17,0,.341,0,.515a1.907,1.907,0,0,1,.322,1.126,1.23,1.23,0,0,0,.065.679.343.343,0,0,1-.029.294c-.113.162.01.344-.091.518a.457.457,0,0,0,.049.5c.006.008,0,.026,0,.039-.019.118-.091.265-.046.346.074.132.027.253.042.377,0,.025-.048.056-.071.081a13.743,13.743,0,0,0,.235,1.46.273.273,0,0,0-.044.081,2.619,2.619,0,0,0-.105.621,1.071,1.071,0,0,1-.182.6c-.179.314-.479.543-.641.877-.036.074-.164.1-.289.177h-.523l-.148-.148h-.392c-.292.407-.407.907-.677,1.327-.079.123-.049.268-.1.39-.212.464-.368.95-.555,1.424a2.014,2.014,0,0,0-.123.342,3.062,3.062,0,0,1-.268.677c-.267.585-.54,1.168-.8,1.754a.991.991,0,0,0-.083.319c-.022.266-.211.462-.281.713-.075.269-.133.545-.218.813a4.909,4.909,0,0,0-.115.661c-.157.329-.319.7-.506,1.051a18.479,18.479,0,0,0-.857,2.126,1.332,1.332,0,0,0-.037.337,2.822,2.822,0,0,0-.3.861c-.037.119.046.256-.053.373-.083.1.038.265-.107.349a2.872,2.872,0,0,1-.161,1.076,4.185,4.185,0,0,1-.149.765c-.023.051.031.137.051.215a2.292,2.292,0,0,0-.225.634,3.785,3.785,0,0,1-.191.9,2.614,2.614,0,0,0-.07.486c-.041.126-.084.252-.123.379-.011.036.006.1-.013.11-.218.143-.147.41-.261.606a1.316,1.316,0,0,0-.131.616,1.333,1.333,0,0,1-.153.41l.078.094c-.207.2-.143.463-.154.711l-.122.122-.133-.192-.5-.242-.121.281-.053-.009-.021-.346c-.085-.182-.238-.106-.367-.14l-.033-.131-.19-.018-.087.2-.169-.142.087-1.328a.536.536,0,0,0-.26.521.225.225,0,0,1-.323.082l.074-.186-.127-.019v.413l.206-.08v.212l-.2.017-.114.147-.426-.269-.064.264-.08.01c-.018-.016-.047-.03-.051-.049-.03-.146-.048-.294-.083-.439-.028-.118-.073-.233-.117-.368l-.088-.012-.126.691-.164.155-.353-.183a2.574,2.574,0,0,1-.095-.968h-.2l-.124.229a.643.643,0,0,0-.255.008c-.069.032-.124.086-.208.071l.343-.41c-.122.029-.216.025-.27.07a.637.637,0,0,1-.388.182,2.4,2.4,0,0,1,.538-.439l.159-.322-.124-.124a4.347,4.347,0,0,0-.461.265,9.72,9.72,0,0,0-1.18.853c-.02.02-.076,0-.115,0l.237-.394c.173.012.246-.11.315-.236a.162.162,0,0,0,.056-.082c.194.03.242-.111.375-.231-.225-.005-.269.142-.375.231a.162.162,0,0,1-.056.082c-.173-.012-.246.11-.315.236h-.128l-.3.315h-.123a1.542,1.542,0,0,1,.521-.49c.1-.05.166-.165.254-.244s.157-.2.3-.231c.054-.013.087-.111.157-.207.249.03.4-.189.584-.366-.26-.165-.431.163-.7.113l-.2.244c-.324-.015-.457.235-.7.432a.837.837,0,0,1,.069-.205,2.147,2.147,0,0,1,.507-.387c.174-.123.337-.263.508-.392.079-.06.169-.1.243-.17a1,1,0,0,0,.129-.174c-.123-.09-.216-.072-.289.025a.2.2,0,0,1-.2.082c.093-.23.325-.314.5-.451a1.145,1.145,0,0,0,.449-.486c-.144-.206-.056-.445-.093-.723l-.241-.215h.462l.19.177.3-.454c.175.106.079.211.025.313l.127.118c.048-.024.082-.03.09-.047.086-.187.154-.384.255-.562a1.625,1.625,0,0,0,.226-.851,1.94,1.94,0,0,0-.034-.654c-.078-.194.046-.417-.123-.578.035-.2-.08-.415.077-.6.013-.015.005-.052,0-.077a9.576,9.576,0,0,1,.081-1.1l.144-.148v.466c.227.112.3-.07.406-.163-.034-.229.217-.363.185-.593a.382.382,0,0,1,.015.326,5.571,5.571,0,0,0-.121.619,1.451,1.451,0,0,0,.109.555.508.508,0,0,0,.08-.071.268.268,0,0,0,.047-.1,9.669,9.669,0,0,0,.55-2.507h-.234v-.426l-.275-.283a2.46,2.46,0,0,0-.516.006c-.5.11-1.013.007-1.5.089-.454.076-.9.031-1.349.065-.187.014-.372.054-.559.076s-.352-.031-.524.072c-.075.045-.2.008-.275.008-.121.088-.165.182-.112.287a5.674,5.674,0,0,1,.274.831.75.75,0,0,1,.026.225c0,.406,0,.813,0,1.248a1.626,1.626,0,0,1-.451.311c-.319.087-.6.317-.963.248l-.547-.108c-.018-.018-.06-.1-.112-.105a2.572,2.572,0,0,1-.8-.349c-.169-.082-.374-.045-.515-.185a4.683,4.683,0,0,0-.393-.386c-.165-.129-.351-.231-.539-.352a2.707,2.707,0,0,0-.489.959,1.943,1.943,0,0,0-.35.6c-.276.554-.563,1.105-.8,1.676a4.235,4.235,0,0,1-.439.995,7.156,7.156,0,0,0-.507.891,2.913,2.913,0,0,0-.189.512c-.043.126-.081.255-.131.411l.159.115a7.446,7.446,0,0,1-.691,1.08,2.863,2.863,0,0,0-.319.619l-.081-.068a.135.135,0,0,1-.241,0l-.1.089-.549-.308-.079.073-.224-.166-.24.3c-.013-.131-.019-.19-.025-.249s-.012-.1-.021-.16c-.155.049-.291.194-.436,0-.368.3-.672-.138-1.026-.052l-.21-.378-.248-.125-.342.514a.889.889,0,0,0-.165-.209,1.385,1.385,0,0,0-.31-.113l-.186.234-.113-.1c-.195.035-.19.327-.471.324l-.063-.15h-.391l-.12-.231c0-.262-.012-.551,0-.839a1.659,1.659,0,0,1,.1-.876l-.127-.129c-.074.027-.1.028-.118.044a5.142,5.142,0,0,1-.85.7c-.232.152-.392.4-.64.552-.032.019-.035.088-.051.134h-.192c-.02.026-.053.067-.084.108a7.607,7.607,0,0,1-1.113,1.017c-.263.234-.538.462-.821.675a6.757,6.757,0,0,1-.8.549,3.223,3.223,0,0,0-.326.256,4.335,4.335,0,0,1-1.6.786c-.092.032-.208.029-.278.085a.232.232,0,0,1-.338,0c-.05-.038-.151-.006-.257-.006l-.009-.2-.3-.276a.791.791,0,0,1-.107.055,1.649,1.649,0,0,1-.188.041l.3-.31-.108-.315-.4-.139.178-.259c-.059,0-.13-.032-.177-.009a1.627,1.627,0,0,0-.247.179.742.742,0,0,1,.036-.618l-.112-.117c-.188-.007-.183.14-.225.2l-.545-.173.207-.435-.329.1-.041-.148-.219-.032c0-.044-.006-.091.012-.113.068-.079.146-.15.217-.22l-.3-.2h-.3c-.158-.25-.452-.221-.69-.311-.149-.056-.334-.024-.474-.093-.174-.085-.379-.1-.529-.257a1.278,1.278,0,0,0-.4-.18l.083-.3-.264-.264.115-.24.278-.013c.107-.144-.147-.425-.427-.477v-.265c-.152-.081-.195-.3-.453-.271a6.391,6.391,0,0,0-.638.774l-.143-.474-.2.246v-.24l-.329.219-.259-.07-.646.914c-.01-.108-.045-.187-.019-.234a14.965,14.965,0,0,0,1.134-2.64,4.783,4.783,0,0,0,.119-.541,3.311,3.311,0,0,0,.076-.361c.013-.13,0-.262,0-.393a.406.406,0,0,1,.026-.107c.076-.243.152-.485.238-.761l.165.364.18-.255.027.344.213.25v-.29c.119-.1.175-.264.38-.2l.239-.3.212.216-.032.057-.211-.045-.085.079c.01.018.015.048.029.052.188.061.366.155.57.01.069-.049.2-.008.29-.008a5.762,5.762,0,0,1,.877.783c.25.028.5.064.754.082a1.139,1.139,0,0,0,.9-.3c.221-.051.255.147.429.219h.359l.458-.293-.168.352a.24.24,0,0,0,.079.028.521.521,0,0,0,.388-.2c.063-.067.122-.139.23-.111.014.13.117.058.18.079l.288-.354-.1-.12.5-.63h-.163c0-.013-.005-.034,0-.038a3.976,3.976,0,0,0,.551-.554,8.112,8.112,0,0,1,.59-.579c.394-.308.712-.7,1.127-.984a6.293,6.293,0,0,0,.588-.521,1.152,1.152,0,0,0-.682-.48,1.109,1.109,0,0,1-.326-.161c-.1-.057-.181-.133-.275-.192-.437-.276-.884-.538-1.312-.827a8.491,8.491,0,0,1-1.365-.9,1.882,1.882,0,0,0-.307-.2h-.266a1.906,1.906,0,0,0-1.207-.559l-.142-.141c-.1,0-.221-.057-.334.079L824,20.363a3.875,3.875,0,0,1-1-.344c-.11.106-.233-.04-.363-.007l-.073.156-.1-.087-.226.1-.07-.171-.214.278-.394-.236-.439.486-.112.786c-.115.32-.216.581-.3.845-.181.554-.4,1.1-.6,1.643-.221.6-.462,1.2-.672,1.81a8.088,8.088,0,0,1-.483,1.059,3.649,3.649,0,0,1-.464.717,4.1,4.1,0,0,0-.314.537c-.266.429-.552.846-.8,1.283a10.214,10.214,0,0,1-.689,1.093c-.211.279-.4.571-.618.849a7.654,7.654,0,0,1-1.467,1.3.275.275,0,0,1-.205.08.471.471,0,0,0-.334.142c-.209.168-.4.363-.613.523a5.857,5.857,0,0,1-.687.434c-.223.122-.474.2-.69.329a1.076,1.076,0,0,1-.412.155,2.869,2.869,0,0,1-.4.076,2.247,2.247,0,0,0-.479.076c-.188.047-.341-.085-.52-.083a2.2,2.2,0,0,1-.523-.062,6.654,6.654,0,0,0-.8-.161,1.936,1.936,0,0,1-.539-.23c-.247-.1-.456-.292-.7-.405a1.582,1.582,0,0,1-.452-.336c-.1-.1-.189-.238-.313-.292-.145-.063-.144-.219-.264-.294a2.333,2.333,0,0,1-.393-.339,2.755,2.755,0,0,1-.355-.4,7.46,7.46,0,0,0-.612-.693,1.105,1.105,0,0,1-.158-.364c-.121-.176-.342-.281-.4-.505-.071-.271-.305-.443-.4-.7-.033-.086-.176-.129-.281-.2l.057-.074-.2-.369-.165-.1c-.005-.092-.01-.181-.016-.284-.1-.031-.2-.064-.339-.1l.038,0-.03-.154-.051.007a.277.277,0,0,0,.044.149M745.781,32.04c-.2-.014-.411-.035-.529.19a1.253,1.253,0,0,0,.519-.294c.123.047.257.077.317-.127a.525.525,0,0,0-.308.232M812.655,3.789l.015-.016-.055-.064-.025.025a.56.56,0,0,0,.052.041l.765.679a1.11,1.11,0,0,0-.753-.665M800.042,23.871l-.122.1.325.152.067-.176a1.074,1.074,0,0,1,.671.352.6.6,0,0,1-.07.439c-.008.011.015.044.024.067l.331.037-.252.121.267.143-.313.048c.108.278.389.317.566.476a3.388,3.388,0,0,0,.632.47c.208.114.343.364.619.364.008-.041.025-.072.016-.089-.135-.246-.232-.51-.358-.757s-.155-.488-.272-.715c-.078-.152-.17-.3-.233-.455s-.1-.352-.164-.523-.15-.306-.208-.465a.64.64,0,0,0-.166-.329c-.058-.048-.069-.151-.094-.21l.092-.226a1.227,1.227,0,0,1-.34-.775c0-.1-.086-.2-.139-.309a6.339,6.339,0,0,0-.1-.811,4.488,4.488,0,0,1-.154-1.039c0-.057-.048-.112-.061-.17a7.375,7.375,0,0,1-.173-.952,4.435,4.435,0,0,0-.063-.6,5.908,5.908,0,0,1-.09-1.145,1.927,1.927,0,0,0-.148-.561c.007-.007.023-.016.025-.026a2.96,2.96,0,0,0,0-1.029.84.84,0,0,1,0-.517c.108-.173-.048-.259-.046-.3l.482-.784.536-.074.317-.317v-.273l-.155.24c-.157-.057-.314.049-.425-.1-.113.139-.265.053-.384.076a.529.529,0,0,0-.533-.13l-.3.528a.626.626,0,0,1-.133.491l.278.787v1h-.363a1.635,1.635,0,0,0-.329.3,1.264,1.264,0,0,1-.548.488l-.257-.091a3.628,3.628,0,0,0-.78.965,13.437,13.437,0,0,1-1.094,1.515c-.271.311-.58.585-.842.909a5.185,5.185,0,0,1-.656.838c-.066.054-.078.174-.115.263-.037.01-.087.007-.105.03-.144.175-.27.366-.424.531-.211.226-.31.557-.633.678-.464.49-.958.957-1.382,1.48-.24.3-.469.6-.733.874a6.063,6.063,0,0,0-.4.5c-.01.012.009.046.014.071l1.032-.165.365-.128c.1-.036.253-.04.3-.113.138-.207.346-.224.551-.287a6.2,6.2,0,0,0,.8-.254c.275-.127.565-.221.893-.346l.1-.1.108-.108a1.061,1.061,0,0,1,.358-.6c.225-.19.418-.413.662-.587a1.878,1.878,0,0,0,.33-.427c-.027-.271.237-.257.393-.359l-.152-.175.04-.039.3.148a2.562,2.562,0,0,0,.5,1.063.536.536,0,0,1,.57-.033v-.3l.152.1.013.281c.314.214.637.416.938.646a5.218,5.218,0,0,1,.632.39m-56.081,2.6.108-.161.2.189.223-.223.7.9.08-.073.426.324h.211a3.5,3.5,0,0,0,.6.282c.183.044.332.152.507.2.07.2.325.224.4.42V28.5l-.212.09.306.223-.018.208c-.123-.16-.251-.09-.379-.11l.011.158c.278-.078.312.274.574.257l-.21.411c.1.066.224.107.272.192.06.1.2.141.215.255.023.151.2.11.253.243.039.1.186.15.274.235.029.028.021.094.031.142-.2-.025-.3-.312-.562-.211.07.312.424.34.539.552l-.063.15a5.681,5.681,0,0,1,.421.464l-.1.117.325.253a.944.944,0,0,0,.419.522,2.955,2.955,0,0,0,.357-1.06h-.149c-.054-.173.072-.316.081-.479.021-.4.051-.792.077-1.188,0-.026-.01-.058,0-.078a.587.587,0,0,0,0-.607.154.154,0,0,1,.019-.144c.1-.089.052-.2.055-.294.007-.236,0-.473.005-.709a.753.753,0,0,1,.07-.2l-.16-.125a.64.64,0,0,0,.023-.626c-.028-.046.028-.138.031-.21a1.982,1.982,0,0,0,0-.6,1.574,1.574,0,0,1-.033-.688,1.426,1.426,0,0,0-.016-.9l.129-.254-.091-.535c-.013.012.022-.006.022-.025,0-.351,0-.7,0-1.058l-.187-.2h-.427c.026-.035.039-.053.053-.071s.023-.017.026-.028-.013-.018-.031-.041h-.394a.293.293,0,0,1-.09-.39,1.214,1.214,0,0,0,.042-.164c-.215,0-.337.245-.549.128l.4-.228-.013-.056h-.228l.073-.124c-.154-.115-.284.022-.424.047s-.286.07-.428.107c-.1.16-.1.16-.01.323l-.074.081.069.081a.8.8,0,0,1-.563.275,3.594,3.594,0,0,0-.54.123,2.854,2.854,0,0,0-.881.347c-.88.245-1.709.643-2.594.875-.166.044-.376.081-.465.287a3.273,3.273,0,0,0,.064.6,1.58,1.58,0,0,1-.086.573c-.137.089-.268.182-.406.262s-.282.147-.462.239a1.384,1.384,0,0,1-.435-.059c-.153-.069-.376.03-.542-.024-.275-.09-.6-.068-.813-.336a.5.5,0,0,1-.664-.039h-.372l-.1.3.2.118v.744l.186.108.285.619-.164.291c.025.109-.066.263.063.364-.163.309.031.664-.128.974l.159.239c.593-.07,1.112-.329,1.706-.395a3.386,3.386,0,0,0,1.122-1.059v-.319l.237-.2.217.186a.771.771,0,0,0,.428-.352l-.166-.28c.3.233.558-.1.774-.018l.32-.307Zm12.427-8.114c.358-.122.7-.286,1.046-.43a11.512,11.512,0,0,1,1.215-.492,12.189,12.189,0,0,0,1.236-.537c.4-.166.774-.414,1.177-.583.423-.177.779-.46,1.181-.667a11.551,11.551,0,0,0,1.009-.61c.353-.231.7-.475,1.04-.723.245-.177.482-.365.715-.557.111-.091.206-.2.308-.3s.171-.233.282-.267c.162-.05.159-.208.267-.289a3.064,3.064,0,0,0,.694-.853,1.578,1.578,0,0,0,.277-.751c.009-.161.036-.321.061-.535a2.673,2.673,0,0,0-.443-.622,3.769,3.769,0,0,0-.973-.6c-.054-.027-.117-.037-.17-.066-.246-.137-.5-.267-.731-.42a1.3,1.3,0,0,0-.411-.157c-.157-.041-.36-.042-.445-.226h-.317l-.5-.294-.075.076a1.436,1.436,0,0,0-.574-.21,3.618,3.618,0,0,1-.37-.059,2.526,2.526,0,0,0-.657-.2c-.229,0-.45-.229-.682-.029,0,0-.033-.047-.054-.051a5.544,5.544,0,0,0-1.545-.174.824.824,0,0,1-.39-.007c-.265-.125-.526-.036-.776-.076-.072.113-.167.2-.17.28a1.841,1.841,0,0,1-.087.4.383.383,0,0,0,0,.2c.068.22.149.437.222.656.023.07.017.161.06.21a2.666,2.666,0,0,1,.348.606c.067.131.17.244.23.378a1.751,1.751,0,0,1,.139.453,3.929,3.929,0,0,0,.3.746c.04.111-.009.235.072.323.166.182.118.4.132.616a1.22,1.22,0,0,0,.047.373,2.2,2.2,0,0,1,.015.658l-.169.058.166.5-.308.4v.3a.638.638,0,0,1-.559-.115v-.389l-.352-.172-.114.114-.575.14.082.143-.053.249.237.149v.407l.133.139.1.407-.284.36h-.178l-.315-.273a2.55,2.55,0,0,1,.157-1.3c-.114-.238-.074-.554-.388-.707-.114.2-.081.463-.259.623a.455.455,0,0,1,.055.485.361.361,0,0,0,.018.409.8.8,0,0,0-.054.219,16.94,16.94,0,0,1-.084,1.857,1.864,1.864,0,0,1-.058.211.617.617,0,0,0-.015.228,3.873,3.873,0,0,0,.119.379m28.015.487a1.451,1.451,0,0,0-.056.2,2.246,2.246,0,0,1-.021.307,4.273,4.273,0,0,0-.142.69,2.265,2.265,0,0,1-.108.506c-.135.391-.276.779-.4,1.176a3.051,3.051,0,0,1-.433.924,1.046,1.046,0,0,0-.159.366,2.4,2.4,0,0,1-.258.525,5.084,5.084,0,0,0-.471,1.028,2.652,2.652,0,0,1-.377.8l.414.474h.339c.378-.1.483-.424.735-.581.03-.186.212-.252.305-.386s.165-.274.257-.4a3.209,3.209,0,0,0,.3-.39,1.207,1.207,0,0,1,.569-.524,1.082,1.082,0,0,0,.544-.733,2.132,2.132,0,0,1,.3-.628c.12-.2.37-.321.356-.589l.147-.049v-.137c.063-.064.112-.109.155-.159.231-.271.362-.629.672-.777l.125-.457.2-.022.346-.345a.838.838,0,0,0,0-.107c-.016-.127.131-.059.153-.127a1.256,1.256,0,0,1,.467-.552,5.09,5.09,0,0,0,.341-.406c.153-.158.22-.4.459-.474a9.913,9.913,0,0,1,.707-.87v-.095l-.48-.669v-.334a.837.837,0,0,0-.212-.106c-.1-.017-.213.013-.314-.009a.406.406,0,0,0-.255-.006.5.5,0,0,1-.333-.03.621.621,0,0,0-.441,0c-.28.128-.517-.056-.774-.052-.009,0-.019-.017-.028-.027v-.09c-.185-.051-.377-.095-.561-.158s-.383-.151-.585-.21a.893.893,0,0,0-.632.033c-.2-.315-.657-.226-.843-.544l-.245.2a1.517,1.517,0,0,1,.106.767c0,.079-.033.191.006.23.156.154.011.37.139.541.059.078-.018.258-.038.424a1.424,1.424,0,0,1,.131.572c-.032.277-.054.556-.081.833,0,.01-.016.019-.024.029l-.107.028-.109.362.219.034m11.146-7.929c-.067.063-.095.111-.122.11a7.325,7.325,0,0,0-1.193.268c-.463.072-.865.385-1.342.455-.206.243-.564.173-.785.383a6.4,6.4,0,0,0-1.51.629.185.185,0,0,1-.067.021l-.113.31a1.911,1.911,0,0,1,.16,1.073l.789.944v.135l.131.131.343-.45c.281-.04.277-.413.547-.467-.008-.209.221-.179.3-.3a2.681,2.681,0,0,1,.477-.513c.161-.141.3-.335.466-.48.2-.177.324-.413.538-.57a.721.721,0,0,0,.114-.148,4.806,4.806,0,0,1,.95-.952.667.667,0,0,0,.315-.581m-5.329,5.863.478-.553.5-.571-.121-.231h-.322l-.05-.135-.436.106-.026.127h-.29c-.223.091-.151.236-.159.358a.971.971,0,0,1,.33.8l.1.1m70.865-12.3c-.266.04-.247.279-.354.412s-.229.3-.327.427l-.077.342.17.252a4.4,4.4,0,0,0,.592-1.275c.019-.038,0-.095,0-.158M794.744,24.67c-.008-.186.192-.288.158-.514-.429.183-.83.352-1.229.527-.018.008-.013.067-.024.129.381.031.708-.23,1.1-.143m7.674,2.382a1.919,1.919,0,0,0,.947.572,5.848,5.848,0,0,0-.61-.512c-.076-.049-.2-.179-.338-.059m-31.882,7.489c.166.151.295.349.545.353l-.529-.529-.016.176m-3.4-.512c.063.245.257.326.4.516v-.329l-.4-.187m.932.944c-.123-.16-.158-.39-.37-.477l-.088.063a.911.911,0,0,0,.459.414m32.212-10.467c.159-.08.272-.184.434-.169.012,0,.031-.078.054-.14h-.289c-.066.062-.135.123-.2.19-.013.014,0,.05,0,.119M768.406,35.072c-.1.007-.235-.09-.228.13h.228Zm83.918-1.022a.484.484,0,0,0,0,.445ZM811.508,11.07l-.035.182h.283l-.248-.182m-42.47,23.487-.163.067a.392.392,0,0,0,.163.174Zm25.511-4.267c-.175-.071-.269-.034-.364.146l.364-.146m-26.123,3.154.182-.249-.182-.033Zm81.84.117v-.167l-.143.029.029.138Zm-48.5-20.64c-.176-.007-.177.058-.116.163l.116-.022ZM850.3,33.759c-.1.031-.242.071-.119.212l.119-.212M749.02,21.816l-.028-.153-.1.153Zm-1.881-1.362c.209.013.209.013.184-.092l-.184.092m103.4,14.276.068-.009-.031-.128-.037.006Zm-47.208-6.763H803.3v.079h.026Zm-33.864,6.224h.026v-.079h-.026Zm82.478.84h.079v-.026h-.079Z" transform="translate(-709.331 0.003)"/><path d="M27.137,61.837h-.182c-.136-.069-.177-.268-.38-.221-.036-.1-.07-.208-.253-.142a1.4,1.4,0,0,0,.253.142,1.527,1.527,0,0,1,.168.221c-.188.016-.267-.167-.418-.229a3.578,3.578,0,0,0-.549-.284.576.576,0,0,1-.346-.128L25,61.407a.584.584,0,0,1,.173-.245c-.2-.13-.354-.33-.62-.275l-.037-.143h-.257l-.455.147a1.155,1.155,0,0,0-.139.045c-.352.166-.7.336-1.055.5a.77.77,0,0,0-.452.351c-.059.12-.252.175-.406.273l.168.206c.413-.17.831-.334,1.243-.516s.793-.371,1.216-.57l.283.278c-.354.126-.628.319-.964.409a9.86,9.86,0,0,0-.925.426c-.317.122-.638.237-.961.347s-.621.276-.97.435l-.032.195c-.276.122-.558.27-.855.374-.574.2-1.14.419-1.7.649-.3.124-.606.253-.91.372-.613.241-1.2.542-1.786.828-.042.02-.07.068-.125.124.383.363.925.383,1.26.708l.609-.1c.115.115.2.214.3.3a7.445,7.445,0,0,1,1.02,1.273c.1.128.164.278.264.4.187.228.39.443.583.666.317.367.659.717.938,1.111.163.231.3.481.477.708a6.255,6.255,0,0,1,.422.729c.063.108.138.209.2.3a3.113,3.113,0,0,1,.182.639,2.844,2.844,0,0,1-.094.636c-.066.243-.246.324-.5.357a.632.632,0,0,0-.55.342l-.489-.212v.445l-.32.123c-.174,1.408-.054,2.8-.09,4.194a16.989,16.989,0,0,1,.093,1.777,4.688,4.688,0,0,0,.212,1.247,2.865,2.865,0,0,1,.074.518c.047.232.134.449.2.67a.484.484,0,0,1-.055.508c.479.485.317,1.1.344,1.693l.156.122v.5l.161.159a1.608,1.608,0,0,1-.139.865l.265-.1.115.447-.231-.093.036.248-.19.136c.021.011-.007.006-.013-.009-.065-.144-.126-.29-.195-.451l-.213.1-.117-.077c-.059.105-.015.179.041.276.045.079.009.2.009.31v.323l-.126.044L20,87.133l-.061.308h-.118l-.03-.3-.126-.017-.037.227c-.024-.01-.055-.014-.058-.025-.034-.117-.063-.235-.1-.381-.12.177,0,.3.008.437.007.114-.047.236-.043.377a1.882,1.882,0,0,1-.1-.2c-.033-.09-.054-.185-.079-.276l-.429.1-.16-.429a.606.606,0,0,0-.135.767l-.107.121c-.076-.214-.289-.348-.292-.6,0-.072-.132-.143-.246-.256l-.094.217.135.143c-.242.248.03.519-.021.79-.27-.227-.146-.6-.332-.86l-.114.1a1.1,1.1,0,0,1,.056.173,2.081,2.081,0,0,1,0,.266l-.205-.287c-.113.157.111.291.047.441s.2.282,0,.441a1.006,1.006,0,0,1-.156-.7l-.235-.27-.2-.237c-.141.241.06.466.04.708a2.316,2.316,0,0,1-.564-.468,1.807,1.807,0,0,0-.488-.455,2.349,2.349,0,0,0-.813-.507c-.095-.026-.188-.058-.262-.082l-.238.174v-.323c-.27.033-.249.272-.355.4h-.172c-.076.114.057.324-.176.391-.026-.243.117-.445.153-.711-.11.047-.156.137-.227.184l-.035.337-.113-.233a.6.6,0,0,0-.1.105,3.761,3.761,0,0,1-.4.636c-.028-.228.137-.382.21-.572.044-.114.184-.221.057-.389l-.267.173A1.31,1.31,0,0,1,13.1,86.3a7.01,7.01,0,0,0,.546-1.156l-.207-.272.334-.036c.108-.167-.041-.247-.143-.367h.282l.143-.284-.2-.427c.2.035.246.2.34.371l.242-.457c.025-.1-.052-.241.067-.374.04-.044-.049-.172,0-.285a.948.948,0,0,0,.009-.351,2.53,2.53,0,0,0,0-.315,2.226,2.226,0,0,0-.077-.322.926.926,0,0,0-.106-.309c-.076-.1-.021-.2-.055-.294s-.123-.162-.148-.253a1.156,1.156,0,0,1-.006-.3l-.16-.159a10.035,10.035,0,0,0-.322-1.9l-.139-.139c-.008-.029-.006-.52-.012-.561a1.2,1.2,0,0,0-.041-.376.827.827,0,0,1,0-.444,4.136,4.136,0,0,0,0-1.266.337.337,0,0,0-.05-.1l.074-.091a6.658,6.658,0,0,1-.061-1.462c0-.042.043-.087.054-.109a1,1,0,0,1-.055-.22c0-.433.007-.867-.006-1.3-.007-.252-.059-.5-.073-.755s-.01-.5,0-.748c.006-.161-.053-.332.071-.483a.235.235,0,0,0,0-.192,4.572,4.572,0,0,1-.071-1.347c0-.049.058-.1.086-.151-.086-.107-.148-.055-.2.01-.082.11-.156.225-.182.262l-.778.255.011.044c-.314,0-.63.02-.942-.005a5.23,5.23,0,0,1-1.155-.252,6.215,6.215,0,0,0-.942-.307,2.2,2.2,0,0,1-.587-.288.34.34,0,0,0-.081-.016,2.5,2.5,0,0,1-.225.364,2.214,2.214,0,0,1-.318.258l-.218-.114c-.188-.163-.012-.412.006-.7l-.482.352-.152-.088a2.691,2.691,0,0,1-1.786.549l-.308-.307H4.621a5.358,5.358,0,0,0-1.374-.871,3.647,3.647,0,0,1-.787-.487,3.436,3.436,0,0,0-.5-.3c-.295-.179-.587-.361-.879-.544a1.138,1.138,0,0,0-.248-.16A.639.639,0,0,1,.316,66,2.757,2.757,0,0,1,0,65.006c.121-.2.225-.358.308-.523a2.138,2.138,0,0,1,.278-.516c.036-.04.028-.118.049-.175a6.2,6.2,0,0,1,.386-.864v-.359l.793-.681v-.2l.334-.314-.086-.255.1-.229a.791.791,0,0,0,.181,0,.849.849,0,0,0,.173-.084v-.346l.3-.1.111.09A1.342,1.342,0,0,1,3.614,60c.335-.4.918-.617,1.1-1.211L4.8,57.719a1.956,1.956,0,0,1,.576-.461c.125-.056.206-.211.306-.323a2.271,2.271,0,0,1,.651-.589c.172.1.364.036.561.06.19.075.352.254.6.236a.271.271,0,0,1,.2.08,1.786,1.786,0,0,0,.573.384.414.414,0,0,0,.272.4.312.312,0,0,1,.227.284.27.27,0,0,0,.091.156,1.4,1.4,0,0,1,.3.546,2.313,2.313,0,0,0,.158.283v.6a1.058,1.058,0,0,0,.565-.063c.288-.129.614-.171.889-.326a5.857,5.857,0,0,1,.7-.226,6.324,6.324,0,0,0,.892-.321,6.869,6.869,0,0,1,1.225-.47c.114-.043.228-.083.429-.155a.562.562,0,0,0,.466-.157.79.79,0,0,0,.458-.133c.129-.063.295-.051.427-.11a6.044,6.044,0,0,0,.83-.282.279.279,0,0,1,.184-.025c.224.042.418-.1.635-.089.073-.112.187-.067.286-.07a1.465,1.465,0,0,0,.884-.153,1.551,1.551,0,0,0,.81-.235c.079-.044.2-.007.3-.007l.146-.146a1.879,1.879,0,0,0,.767-.248,1.194,1.194,0,0,0,.371-.252.757.757,0,0,1,.272-.194,1.563,1.563,0,0,0,.923-.612l.172-.172c.133-.043.271-.045.336-.116a.88.88,0,0,1,.776-.231c.026,0,.053,0,.092,0,.167-.165.523-.141.53-.512.122-.06.287-.108.223-.308a.589.589,0,0,1,.658-.006,3.053,3.053,0,0,1,1.033.739c.16.171.382.261.512.487a1.982,1.982,0,0,0,.512.452c.087.07.184.127.287.2v.257l.311.142v.358a1.7,1.7,0,0,0,.351.158c.137.027.221.076.205.221s-.108.19-.244.182c-.025,0-.053.036-.119.086.193.087.32.222.53.109a1.418,1.418,0,0,1,.375-.06.961.961,0,0,1-.732.253l-.346.345c.217.206.26.2.411-.1H28.3l.013.04-.428.169.51.03.006.055-.555.133-.125.138.2.082c-.163.174-.036.326.061.452.179.234.388.444.58.668q.436.508.862,1.023c.019.023,0,.077,0,.116-.053,0-.105,0-.161,0l.012-.011-.055-.064-.025.025a.439.439,0,0,0,.068.051c.158.171.313.346.481.536-.232.044-.248-.245-.482-.221.071.082.131.146.183.215a1.9,1.9,0,0,0,.141.214.972.972,0,0,1,.365.573l-.1.1c-.145-.093-.36-.051-.462-.242l-.124.095-.73-.592-.115.2.056.215-.38-.182c-.04.181.12.276.112.418-.129.006-.165-.078-.21-.175a1.022,1.022,0,0,0-.177-.21h-.292v.15h-.49l.1.236M13.568,66.82c-.323-.083-.287.183-.4.3a.6.6,0,0,1,.148.59,1.051,1.051,0,0,0-.059.288c-.017.108-.041.215-.068.35l.2.141a9.635,9.635,0,0,1,.441-1.285l-.261-.384M28.229,61.16l.052.052.122-.023-.037-.2-.138.168m-.7-4.391h.079v-.026h-.079Z" transform="translate(0 -52.065)"/><path d="M5043.805,310.062v-.5l-.146-.152c-.115.284.117.518.03.8l-.293-.192v-.472l-.135-.133-.14.078c-.106-.161-.221-.331-.358-.538.052-.347-.206-.648-.376-1.007l-.173-.026c.072-.311.14-.607.209-.9-.019-.14-.035-.288-.058-.434s-.056-.287-.082-.427l.191-.069-.215-.131.039-.063.263.07a.329.329,0,0,0,.079-.075c.12-.185.2-.39.323-.578a4.126,4.126,0,0,0,.179-.514.928.928,0,0,1,.139-.258.3.3,0,0,0,.082-.161c.016-.243.184-.426.249-.646s.086-.43.162-.642a3.569,3.569,0,0,0,.043-.537,5.538,5.538,0,0,0,.2-.583c.049-.207.048-.425.086-.635a1.947,1.947,0,0,0,.077-.559,1.366,1.366,0,0,1,.128-.5,1.535,1.535,0,0,0,.032-.332,6.3,6.3,0,0,0,.229-.663c.069-.325.24-.611.331-.928.043-.152.091-.3.148-.451a1.187,1.187,0,0,1,.161-.326.869.869,0,0,0,.216-.536,2.835,2.835,0,0,1,.2-.831c.083-.308.168-.616.268-.978.122-.141.117-.389.17-.611a.771.771,0,0,1,.125-.3,1.3,1.3,0,0,0,.206-.548,2.477,2.477,0,0,1,.2-.746c.077-.128.066-.3.14-.453a3.021,3.021,0,0,1,.206-.387,1.786,1.786,0,0,0,.232-.69c.073-.4.215-.779.324-1.163l-.082-.09c.027-.082.054-.163.08-.244a1.775,1.775,0,0,1,.067-.209,3.326,3.326,0,0,0,.161-1.584,1.185,1.185,0,0,1,.183-.809c.288-.054.575-.2.849-.013a.273.273,0,0,0,.168-.256.456.456,0,0,1,.142-.251.3.3,0,0,0,.083-.278c.062-.006.108,0,.135-.015a6.284,6.284,0,0,1,.7-.312c.19-.1.194-.1.3-.3l.627-.173.554.229a.976.976,0,0,1,.317-.072,2.232,2.232,0,0,0,.956-.176,1.493,1.493,0,0,1,.287-.068c.148-.018.309.057.445-.072.027-.025.118.016.179.03.167.039.329.1.5.135a1.247,1.247,0,0,1,.616.3,3.212,3.212,0,0,0,.438.319h.465a1.208,1.208,0,0,1,.365.592l-.3.145-.272.427c.1.24-.157.425-.148.661a2.655,2.655,0,0,1-.157.645,7.314,7.314,0,0,0-.079.733l-.151.044a1.362,1.362,0,0,0-.077.46,1.165,1.165,0,0,0,.074.32,1.45,1.45,0,0,1,.075.4,3.981,3.981,0,0,0,.141.729c.04.088,0,.207.015.31a1.886,1.886,0,0,0,.076.283c.017.058.039.116.055.174a1.261,1.261,0,0,1,.09.647l-.3.639a.654.654,0,0,1-.011.309c-.056.116-.1.2,0,.314a2.181,2.181,0,0,0-.22.278.869.869,0,0,0-.091.85,1.049,1.049,0,0,1,.1.515,1.624,1.624,0,0,0,.09.44h-.227l-.417-.417c-.012-.191-.012-.191-.176-.5l-.259-.1a.385.385,0,0,0-.079,0l-.167.158h-.318a2.36,2.36,0,0,0-.341,1.354l-.341.45a4.575,4.575,0,0,0-.255.726c-.031.182-.208.281-.2.471a.662.662,0,0,1-.22.422.855.855,0,0,0-.092.275c-.025.081-.089.173-.07.241.029.1-.148.165-.025.259a5.268,5.268,0,0,0-.25.671c-.187.565-.406,1.119-.6,1.68-.028.08-.082.15-.118.227a19.5,19.5,0,0,0-.752,1.816,3.97,3.97,0,0,1-.28.554,1.688,1.688,0,0,0-.258,1.1,4.883,4.883,0,0,0-.477,1.193c-.084.216-.071.474-.173.677a7.514,7.514,0,0,0-.3,1.019c-.053.16.02.355-.087.516-.021.032-.046.061-.086.113v.32l-.3.193a.726.726,0,0,1-.152.492c-.177-.154-.016-.269-.008-.4l-.146-.038v.311l-.461.023c-.043.185-.085.364-.128.543a.577.577,0,0,1,.031-.561c-.015-.027-.019-.045-.027-.047-.061-.011-.123-.019-.2-.03l-.037.235h-.219V310l-.136-.022c-.1.4-.2.8-.295,1.2l.038.01-.11.14c-.025-.182-.1-.341,0-.5.079-.126-.035-.3.094-.425-.172-.154-.03-.3.028-.487-.072.009-.157,0-.167.023-.1.221-.309.4-.238.735-.194-.273.02-.47-.011-.685h-.271l-.139.228c-.027-.023-.056-.036-.057-.05,0-.1,0-.208,0-.352l-.205.069-.154-.081c-.024.067-.04.113-.07.2-.032-.073-.051-.119-.08-.191l-.194.1v.412l-.127.13-.361-.119c.053-.237.1-.477.162-.741l-.25-.013c.034.144.06.257.089.381l-.141.025c-.007-.133-.012-.258-.02-.428-.068.044-.139.067-.142.1a.348.348,0,0,1-.079.208c-.034.039-.007.129-.007.2l-.058,0" transform="translate(-4892.023 -277.126)"/><path d="M4313.2,178.091l.154.089c.021.039.063.113.113.2l-.079.12a1.265,1.265,0,0,1-.053,1l-.6-.107-.283-.339c-.25.166-.392.494-.737.423l-.3-.32v-.149l.449-.448a2.759,2.759,0,0,1,.563.3c.211-.074.147-.24.161-.327l.612-.445" transform="translate(-4182.992 -172.786)"/><path d="M3279.619,33.386c.052.135.117.083.184.013l.289.2v.184h-.039c-.164-.011-.248-.2-.449-.172-.12.014-.264-.111-.385-.192a2.647,2.647,0,0,0-.39-.3c-.327-.134-.565-.462-.961-.442a2.344,2.344,0,0,0-.606-.346c-.055-.027-.109-.055-.207-.106a1.442,1.442,0,0,1,.58.046,5.1,5.1,0,0,1,1.5.751c.079.057.167.1.254.155l-.1.1.324.11" transform="translate(-3179.442 -31.256)"/><path d="M2506.307,167.593a4.757,4.757,0,0,1-.466.134c-.061.012-.134-.04-.208-.065V167.2l.253-.165a.608.608,0,0,1,.42.56" transform="translate(-2430.999 -162.058)"/><path d="M5521.455,326.285l-.22-.291c0-.108-.041-.247.117-.331h.506a.9.9,0,0,1-.178.622Z" transform="translate(-5356.771 -315.962)"/><path d="M2191.078,1215.353a4.063,4.063,0,0,1-1-1.117.443.443,0,0,1-.028-.143c.255.1.328.374.5.552s.3.365.467.538c.037.039.039.112.057.17" transform="translate(-2124.818 -1177.928)"/><path d="M2526.277,127.026h.139l.23.244-.1.218h-.279a1.6,1.6,0,0,1,.006-.462" transform="translate(-2451.009 -123.242)"/><path d="M783.413,297.76l-1.161.5a.815.815,0,0,1,.456-.358c.231-.052.437-.217.7-.139" transform="translate(-758.951 -288.871)"/><path d="M4260.791,222.754l.2-.1c.15.2.15.245-.005.456-.1-.094-.236-.159-.2-.359" transform="translate(-4133.87 -216.025)"/><path d="M2148,1231.969l.1-.056c.1.3.431.4.528.679l-.624-.623" transform="translate(-2084.017 -1195.219)"/><path d="M2028.7,1226.973l.6.471c-.12,0-.218.029-.253-.005-.129-.127-.349-.186-.343-.466" transform="translate(-1968.272 -1190.426)"/><path d="M2518.426,108.12c.164.193.164.193.035.394l-.211-.1a.236.236,0,0,1,.176-.291" transform="translate(-2443.233 -104.899)"/><path d="M3151.688,981.112c-.114-.136-.384-.033-.38-.341l.222.186.158-.085Z" transform="translate(-3057.441 -951.557)"/><path d="M2068.638,1195.893h-.132l-.262-.315c.215,0,.292.174.394.315" transform="translate(-2006.638 -1159.966)"/><path d="M476.625,1156.2a.448.448,0,0,1-.243.508l.243-.508" transform="translate(-462.192 -1121.757)"/><path d="M3360.491,58.258c.162.028.323.058.394.236-.162-.028-.323-.058-.394-.236" transform="translate(-3260.393 -56.523)"/><path d="M2142.389,1174.419c.127.069.249.142.237.315h-.079l-.079-.079-.079-.079Z" transform="translate(-2078.574 -1139.437)"/><path d="M2089.307,1227.82l.219.223c-.134-.007-.207-.065-.219-.223" transform="translate(-2027.073 -1191.247)"/><path d="M3379.028,52.954a.362.362,0,0,1,.316.158h-.2l-.114-.158" transform="translate(-3278.378 -51.376)"/><path d="M3262.163,23.8c.208.005.343-.025.4.182l-.4-.182" transform="translate(-3164.994 -23.092)"/><path d="M3942.839,915.078c-.015-.12.082-.169.2-.2l-.2.2" transform="translate(-3825.394 -887.623)"/><path d="M3161.888,970.745a.362.362,0,0,1,.315.158h-.2l-.113-.158" transform="translate(-3067.706 -941.829)"/><path d="M3381.913,71.573a.194.194,0,0,1-.237-.158.194.194,0,0,1,.237.158" transform="translate(-3280.947 -69.287)"/><path d="M3339.307,44.967a.194.194,0,0,1,.236.158.194.194,0,0,1-.236-.158" transform="translate(-3239.84 -43.625)"/><path d="M4687.4,1155.838a.194.194,0,0,1-.236.157.194.194,0,0,1,.236-.157" transform="translate(-4547.549 -1121.407)"/><path d="M3394.916,79.351a.2.2,0,0,1,.237.158.195.195,0,0,1-.237-.158" transform="translate(-3293.793 -76.985)"/><path d="M3352.547,52.9a.194.194,0,0,1,.236.158.194.194,0,0,1-.236-.158" transform="translate(-3252.686 -51.324)"/><path d="M2182.619,1202.89c-.118-.026-.224-.06-.158-.242l.158.242" transform="translate(-2117.433 -1166.825)"/><path d="M3244.224,9.8l.205-.167.034.167Z" transform="translate(-3147.59 -9.343)"/><path d="M2230.283,1282.238c-.118-.026-.223-.06-.157-.243l.157.243" transform="translate(-2163.678 -1243.808)"/><path d="M3373.732,66.127a.194.194,0,0,1,.237.158.194.194,0,0,1-.237-.158" transform="translate(-3273.24 -64.155)"/><path d="M4676.811,1097.668l-.185.12c0-.053-.007-.1-.011-.15l.156-.011.04.042" transform="translate(-4537.314 -1064.931)"/><path d="M757.7,320.059l-.186.12-.01-.15.156-.011.04.042" transform="translate(-734.939 -310.485)"/><path d="M2975.743,973.869l.168-.1c.018.1.042.194-.168.1" transform="translate(-2887.105 -944.759)"/><path d="M4782.736,1181.574l.1.168c-.1.018-.194.042-.1-.168" transform="translate(-4640.24 -1146.379)"/><path d="M3259.936,18.822l-.12-.185.15-.01c0,.063.008.11.011.156l-.042.039" transform="translate(-3162.717 -18.072)"/><path d="M5111.315,1119.116c-.038-.061-.068-.11-.1-.168.1-.018.2-.042.1.168" transform="translate(-4958.965 -1085.608)"/><path d="M5206.019,116.376c0,.05.008.1.013.151l-.051.007-.031-.154.068,0" transform="translate(-5050.882 -112.909)"/><path d="M433.987,1158.74l.054-.191a.642.642,0,0,1,.034.11c0,.011-.028.027-.088.081" transform="translate(-421.06 -1124.04)"/><rect width="0.158" height="0.039" transform="translate(63.026 38.547)"/><rect width="0.158" height="0.039" transform="translate(61.764 37.68)"/><path d="M2100.016,1246.316v.131l-.039.005-.029-.131.068,0" transform="translate(-2037.398 -1209.192)"/><path d="M2091.912,1240.471q.007.076.013.151l-.051.006c-.01-.051-.02-.1-.03-.154l.068,0" transform="translate(-2029.535 -1203.521)"/><path d="M3422.926,86.943l.191.054a.663.663,0,0,1-.11.034c-.011,0-.027-.028-.081-.088" transform="translate(-3320.969 -84.353)"/><path d="M954.943,332.921l.191.054a.661.661,0,0,1-.111.034c-.011,0-.027-.028-.081-.088" transform="translate(-926.499 -323.004)"/><path d="M3408.313,87.394c-.06-.012-.151.039-.157-.079.06.012.151-.039.157.079" transform="translate(-3306.638 -84.714)"/><path d="M2124.3,1201.244v-.131l.039-.005.029.132-.067,0" transform="translate(-2061.029 -1165.331)"/><path d="M3403.018,84.749c-.06-.012-.151.039-.158-.079.06.012.151-.039.158.079" transform="translate(-3301.5 -82.147)"/><path d="M2168.705,1187.572c0,.05.008.1.013.151l-.051.007c-.01-.051-.02-.1-.03-.154l.068,0" transform="translate(-2104.041 -1152.198)"/><path d="M4803.229,828.128l.056-.195a.573.573,0,0,1,.034.11c0,.012-.027.027-.09.084" transform="translate(-4660.158 -803.272)"/><path d="M2002.2,1185.04c-.06-.012-.151.039-.158-.079.06.012.151-.039.158.079" transform="translate(-1942.408 -1149.664)"/><path d="M433.987,1185.189l.054-.191a.644.644,0,0,1,.034.11c0,.011-.028.027-.088.081" transform="translate(-421.06 -1149.701)"/><path d="M3327.461,39.3l.2.055a.67.67,0,0,1-.111.034c-.011,0-.028-.028-.085-.09" transform="translate(-3228.347 -38.125)"/><path d="M3958.951,891.453c.007-.118.1-.067.158-.079-.007.118-.1.067-.158.079" transform="translate(-3841.027 -864.822)"/><path d="M3516.884,182.611c-.06-.012-.151.039-.158-.079.06.012.151-.039.158.079" transform="translate(-3411.975 -177.094)"/><path d="M3951.164,896.664c-.006.118-.1.067-.158.079.007-.118.1-.067.158-.079" transform="translate(-3833.319 -869.954)"/><path d="M4655.619,1158.39l-.151.013c0-.017,0-.034-.007-.051l.153-.03c0,.023,0,.045,0,.068" transform="translate(-4516.791 -1123.819)"/><path d="M3373.889,50.365c-.06-.012-.151.039-.158-.079.06.012.151-.039.158.079" transform="translate(-3273.24 -48.787)"/><path d="M3334.011,42.351c.06.012.151-.039.158.079-.06-.012-.151.039-.158-.079" transform="translate(-3234.703 -41.088)"/><path d="M3364.532,44.585l.2.055a.639.639,0,0,1-.111.034c-.011,0-.027-.028-.085-.09" transform="translate(-3264.314 -43.257)"/><path d="M3389.62,76.735c.06.012.151-.039.157.079-.059-.012-.151.039-.157-.079" transform="translate(-3288.655 -74.448)"/><path d="M1358.529,1119.033c.012-.06-.039-.151.079-.158-.012.06.039.151-.079.158" transform="translate(-1318.062 -1085.547)"/><path d="M3418.749,103.185c.06.012.151-.039.157.079-.06-.012-.151.039-.157-.079" transform="translate(-3316.916 -100.11)"/><path d="M3347.409,50.365c-.06-.012-.151.039-.158-.079.06.012.151-.039.158.079" transform="translate(-3247.548 -48.787)"/><path d="M3622.727,314.816v.144l-.052.006-.026-.15Z" transform="translate(-3514.741 -305.439)"/><path d="M956.063,320.106l.079.079-.079-.079" transform="translate(-927.585 -310.571)"/><path d="M924.024,319.829l.065.055-.025.025-.055-.064.015-.015" transform="translate(-896.486 -310.302)"/><path d="M762.478,317.769l.055-.064.025.025-.064.055-.015-.015" transform="translate(-739.766 -308.241)"/><path d="M3715.655,1039.264l-.055.064-.025-.025.064-.055.016.015" transform="translate(-3604.901 -1008.293)"/><rect width="0.026" height="0.079" transform="translate(110.615 31.122)"/><rect width="0.026" height="0.079" transform="translate(88.293 29.231)"/><path d="M3172.226,975.772l.065.055-.025.025-.055-.064.015-.016" transform="translate(-3077.721 -946.707)"/><path d="M3620.31,312.495l-.065-.055.025-.025.055.064-.015.016" transform="translate(-3512.41 -303.109)"/><path d="M958.79,322.83l-.079-.079.079.079" transform="translate(-930.154 -313.137)"/><rect width="0.079" height="0.026" transform="translate(24.771 9.325)"/><path d="M4687.164,1089.86l.079-.079-.079.079" transform="translate(-4547.549 -1057.32)"/><path d="M4684.516,1092.5l.079-.079-.079.079" transform="translate(-4544.98 -1059.886)"/><path d="M4681.947,1095.071l-.079.079.079-.079" transform="translate(-4542.411 -1062.453)"/><rect width="0.079" height="0.026" transform="translate(27.768 9.719)"/><path d="M1295.321,1103.329l-.065-.055.025-.025.055.064-.016.015" transform="translate(-1256.676 -1070.387)"/><path d="M4671,1103.314l.056-.064.025.025-.065.055-.016-.015" transform="translate(-4531.865 -1070.388)"/><path d="M1297.4,1105.373l.065.055-.025.025-.055-.065.016-.015" transform="translate(-1258.739 -1072.448)"/><path d="M4668.706,1105.65l-.08.079.08-.079" transform="translate(-4529.564 -1072.716)"/><path d="M5097.355,1105.373l.064.055-.025.025-.055-.064.015-.016" transform="translate(-4945.508 -1072.448)"/><rect width="0.026" height="0.079" transform="translate(43.491 33.012)"/><path d="M4666.058,1108.3l-.079.079.079-.079" transform="translate(-4526.996 -1075.282)"/><path d="M4663.656,1110.678l-.055.064-.025-.025.065-.055.015.016" transform="translate(-4524.664 -1077.58)"/><path d="M3362.863,69.145l.055-.064.025.025-.064.055-.015-.015" transform="translate(-3262.695 -67.023)"/><rect width="0.079" height="0.026" transform="translate(94.261 28.548)"/><rect width="0.026" height="0.079" transform="translate(43.175 33.328)"/><path d="M3392.013,60.626l.064.055-.025.025-.054-.064.015-.016" transform="translate(-3290.961 -58.82)"/><path d="M992.873,288.09l.064.055-.025.025-.055-.064.016-.015" transform="translate(-963.284 -279.509)"/><path d="M1356.243,1123.9l-.055.065-.025-.025.064-.055.016.015" transform="translate(-1315.768 -1090.411)"/><path d="M990.567,285.8l-.079-.079.079.079" transform="translate(-960.985 -277.211)"/><rect width="0.026" height="0.079" transform="translate(40.336 33.643)"/><path d="M987.84,283.077l.079.079-.079-.079" transform="translate(-958.416 -274.645)"/><path d="M4644.519,1137.7l.056-.064.024.025-.064.055-.016-.015" transform="translate(-4506.173 -1103.748)"/><path d="M4642.472,1139.772l-.055.064-.025-.025.065-.055.015.016" transform="translate(-4504.11 -1105.807)"/><path d="M1364.187,1142.417l-.055.064-.025-.025.064-.055.015.016" transform="translate(-1323.475 -1108.374)"/><path d="M3371.162,47.757l-.079-.079.079.079" transform="translate(-3270.669 -46.258)"/><rect width="0.026" height="0.079" transform="translate(138.142 34.037)"/><path d="M1204.718,280.155l.064.055-.025.025-.055-.064.016-.015" transform="translate(-1168.818 -271.81)"/><path d="M3940.493,923.15l-.079.079.079-.079" transform="translate(-3823.042 -895.652)"/><path d="M1967.618,1150.614l.079.079-.079-.079" transform="translate(-1909.009 -1116.341)"/><path d="M4697.756,1150.693l.079-.079-.079.079" transform="translate(-4557.826 -1116.341)"/><path d="M1970.266,1153.259l.079.079-.079-.079" transform="translate(-1911.579 -1118.907)"/><path d="M4695.187,1153.259l-.079.079.079-.079" transform="translate(-4555.256 -1118.907)"/><rect width="0.026" height="0.079" transform="translate(14.701 34.431)"/><path d="M1972.993,1155.983l-.079-.079.079.079" transform="translate(-1914.148 -1121.473)"/><path d="M4647.522,1155.9l-.079.079.079-.079" transform="translate(-4509.012 -1121.473)"/><path d="M1202.332,277.787l.079.079-.079-.079" transform="translate(-1166.519 -269.513)"/><path d="M4708.672,1155.643l-.055.064-.025-.025.065-.055.015.016" transform="translate(-4568.34 -1121.205)"/><path d="M3389.62,58.258l.079.079-.079-.079" transform="translate(-3288.655 -56.523)"/><path d="M1199.763,275.221l-.079-.079.079.079" transform="translate(-1163.95 -266.946)"/><path d="M961.1,325.119l.065.055-.025.025-.055-.064.015-.015" transform="translate(-932.455 -315.435)"/><path d="M1975.562,1158.549l.079.079-.079-.079" transform="translate(-1916.717 -1124.04)"/><path d="M4644.873,1158.549l-.079.079.079-.079" transform="translate(-4506.442 -1124.04)"/><path d="M3946.035,901.729l-.055.064-.025-.025.064-.055.015.015" transform="translate(-3828.418 -874.855)"/><path d="M1978.21,1161.194l.079.079-.079-.079" transform="translate(-1919.286 -1126.606)"/><path d="M1197.345,272.821l-.065-.055.025-.025.055.064-.015.015" transform="translate(-1161.617 -264.617)"/><path d="M2150.641,1161.518l-.064-.055.025-.025.055.064-.015.015" transform="translate(-2086.518 -1126.843)"/><path d="M4642.146,1161.272l.079-.079-.079.079" transform="translate(-4503.873 -1126.606)"/><path d="M4684.84,1160.932l-.054.064-.025-.025.064-.055.015.015" transform="translate(-4545.217 -1126.337)"/><path d="M3948.358,899.425l.079-.079-.079.079" transform="translate(-3830.749 -872.557)"/><path d="M1980.858,1163.839l.079.079-.079-.079" transform="translate(-1921.855 -1129.172)"/><path d="M2152.719,1163.562l.064.055-.025.025-.055-.064.015-.015" transform="translate(-2088.582 -1128.903)"/><path d="M4639.824,1163.577c-.018.022-.037.043-.055.064l-.025-.025.064-.055.016.015" transform="translate(-4501.542 -1128.903)"/><path d="M1983.585,1166.563l-.079-.079.079.079" transform="translate(-1924.424 -1131.738)"/><path d="M1986.154,1169.129l.079.079-.079-.079" transform="translate(-1926.993 -1134.304)"/><path d="M2049.445,1168.852l.064.055-.025.025-.055-.064Z" transform="translate(-1988.384 -1134.036)"/><path d="M1988.8,1171.774l.079.079-.079-.079" transform="translate(-1929.562 -1136.871)"/><path d="M1991.45,1174.419l.079.079-.079-.079" transform="translate(-1932.131 -1139.437)"/><rect width="0.079" height="0.026" transform="translate(101.596 2.392)"/><path d="M3956.3,894.135l.08-.079-.08.079" transform="translate(-3838.457 -867.425)"/><path d="M3514.387,180.249l-.064-.055.024-.025.055.064-.015.016" transform="translate(-3409.643 -174.802)"/><path d="M1994.177,1177.142l-.079-.079.079.079" transform="translate(-1934.701 -1142.002)"/><path d="M2012.635,1177.142v-.079h.079l-.079.079" transform="translate(-1952.685 -1142.002)"/><path d="M897.544,327.764l.065.055-.025.025-.055-.064.015-.015" transform="translate(-870.795 -318.001)"/><path d="M1996.746,1179.708l.079.079-.079-.079" transform="translate(-1937.27 -1144.568)"/><path d="M2010.311,1179.447l-.055.065-.025-.025.064-.055.015.015" transform="translate(-1950.353 -1144.301)"/><path d="M2063.256,1180.032l-.064-.055.025-.025.055.064-.015.015" transform="translate(-2001.736 -1144.805)"/><path d="M1999.473,1182.432l-.079-.079.079.079" transform="translate(-1939.839 -1147.135)"/><path d="M2065.6,1182.353l.079.079-.079-.079" transform="translate(-2004.069 -1147.135)"/><path d="M3378.773,84.43l.064.055-.025.025-.055-.064.015-.016" transform="translate(-3278.116 -81.915)"/><rect width="0.026" height="0.079" transform="translate(142.796 25.686)"/><rect width="0.026" height="0.079" transform="translate(143.033 24.977)"/><path d="M2068.322,1185.077l-.079-.079.079.079" transform="translate(-2006.637 -1149.701)"/><path d="M3543.515,167.024l-.064-.055.025-.025.055.064-.015.016" transform="translate(-3437.904 -161.971)"/><path d="M2150.333,1185l.079.079-.079-.079" transform="translate(-2086.282 -1149.701)"/><path d="M2166.531,1185.322l-.065-.055.025-.025.055.064-.015.015" transform="translate(-2101.934 -1149.938)"/><path d="M2007.076,1187.366l.065.055-.025.025-.055-.064.015-.015" transform="translate(-1947.277 -1151.998)"/><path d="M2070.892,1187.643l.079.079-.079-.079" transform="translate(-2009.207 -1152.267)"/><path d="M910.784,327.764l.065.055-.025.025-.055-.064.015-.015" transform="translate(-883.64 -318.001)"/><path d="M1999.132,1190.011l.065.055-.025.025-.055-.064.015-.015" transform="translate(-1939.57 -1154.564)"/><path d="M2073.276,1190.011l.064.055-.025.025-.055-.064.015-.015" transform="translate(-2011.505 -1154.564)"/><path d="M2065.6,1192.933l.079.079-.079-.079" transform="translate(-2004.069 -1157.4)"/><rect width="0.026" height="0.079" transform="translate(64.787 35.612)"/><rect width="0.079" height="0.026" transform="translate(59.871 35.717)"/><path d="M969.612,331.01l-.064-.055.025-.025.055.064-.015.015" transform="translate(-940.668 -321.073)"/><path d="M2081.223,1205.881l.064.055-.025.025-.055-.064.016-.015" transform="translate(-2019.215 -1169.962)"/><rect width="0.079" height="0.026" transform="translate(63.42 35.954)"/><path d="M2187.485,1211.527l-.079-.079.079.079" transform="translate(-2122.25 -1175.363)"/><rect width="0.079" height="0.026" transform="translate(61.054 36.269)"/><path d="M2115.908,1216.737l.079.079-.079-.079" transform="translate(-2052.882 -1180.494)"/><path d="M971.689,333.053l.064.055-.025.025-.055-.064.015-.015" transform="translate(-942.731 -323.132)"/><path d="M2118.557,1219.382l.079.079-.079-.079" transform="translate(-2055.452 -1183.061)"/><path d="M2121.205,1222.027l.079.079-.079-.079" transform="translate(-2058.022 -1185.627)"/><path d="M2022.965,1224.4l.064.055-.024.025-.055-.064.016-.015" transform="translate(-1962.692 -1187.925)"/><path d="M2123.589,1224.4l.064.055-.025.025-.055-.064.015-.015" transform="translate(-2060.32 -1187.925)"/><path d="M3413.531,90.076l-.079-.079.079.079" transform="translate(-3311.777 -87.316)"/><path d="M3416.409,100.9l-.065-.055.025-.025.055.064-.015.016" transform="translate(-3314.583 -97.819)"/><rect width="0.079" height="0.026" transform="translate(97.337 0.028)"/><rect width="0.079" height="0.026" transform="translate(61.212 36.82)"/><path d="M2089.737,1238.221l-.065-.055.025-.025.055.064-.015.016" transform="translate(-2027.428 -1201.261)"/><path d="M961.438,336.054l-.079-.079.079.079" transform="translate(-932.723 -325.967)"/><path d="M2057.96,1251.446l-.064-.055.025-.025.055.064-.016.015" transform="translate(-1996.598 -1214.092)"/><path d="M2105.625,1251.446l-.064-.055.025-.025.055.064-.016.015" transform="translate(-2042.844 -1214.092)"/><path d="M2060.378,1253.845l-.079-.079.079.079" transform="translate(-1998.93 -1216.42)"/><path d="M2107.7,1253.49l.064.055-.025.025-.055-.064.015-.015" transform="translate(-2044.906 -1216.152)"/><path d="M2062.685,1256.134l.065.055-.025.025-.055-.065.015-.015" transform="translate(-2001.23 -1218.718)"/><path d="M2224.557,1256.49l-.079-.079.079.079" transform="translate(-2158.219 -1218.987)"/><rect width="0.026" height="0.079" transform="translate(62.106 37.503)"/><path d="M2227.2,1259.135l-.079-.079.079.079" transform="translate(-2160.787 -1221.553)"/><path d="M2229.513,1261.424l.064.055-.025.025-.055-.064Z" transform="translate(-2163.088 -1223.85)"/><path d="M963.745,338.343l.064.055-.025.025-.055-.064.015-.015" transform="translate(-935.024 -328.265)"/><rect width="0.079" height="0.026" transform="translate(65.471 38.475)"/><path d="M2235.071,1290.8l.079.079-.079-.079" transform="translate(-2168.496 -1252.347)"/><rect width="0.079" height="0.026" transform="translate(108.537 10.664)"/><path d="M2237.456,1293.164l.064.055-.025.025-.055-.064.016-.015" transform="translate(-2170.795 -1254.645)"/><rect width="0.026" height="0.079" transform="translate(63.604 38.606)"/><rect width="0.026" height="0.079" transform="translate(63.92 38.842)"/><rect width="0.026" height="0.079" transform="translate(63.683 38.921)"/><path d="M1306.434,751.277a.433.433,0,0,1-.47.114c.151-.029.279-.156.47-.114" transform="translate(-1267.064 -728.891)"/><path d="M1351.131,1061.341l-.158.243c-.066-.182.04-.216.158-.243" transform="translate(-1310.712 -1029.727)"/><path d="M1314.92,1034.148l.156.011c0,.055-.007.1-.01.15l-.185-.12.039-.042" transform="translate(-1275.715 -1003.344)"/><path d="M1155,888.539l-.23.011c0-.018,0-.035,0-.053l.232-.03c0,.024,0,.048,0,.072" transform="translate(-1120.371 -862.002)"/><path d="M1311.134,732.552l-.151.013c0-.017,0-.034-.006-.051l.154-.03,0,.068" transform="translate(-1271.926 -710.666)"/><path d="M1292.783,737.981h-.131l-.006-.037.128-.031.009.068" transform="translate(-1254.142 -715.933)"/><path d="M1335.152,759.141h-.131c0-.013,0-.025-.006-.038l.128-.03.009.068" transform="translate(-1295.249 -736.463)"/><rect width="0.079" height="0.026" transform="translate(38.495 29.572)"/><path d="M1324.45,1039.851l-.064-.055.025-.025.055.064-.015.016" transform="translate(-1284.937 -1008.8)"/><path d="M1326.528,1041.9l.065.055-.025.025-.055-.065.015-.015" transform="translate(-1287.001 -1010.86)"/><path d="M2963.377,744.593h-.295l.044-.2.251.2" transform="translate(-2874.822 -722.223)"/><path d="M3045.119,801.206l.065.055-.025.025-.055-.064.015-.016" transform="translate(-2954.4 -777.341)"/><path d="M2984.777,751.554l-.064-.055.025-.025.055.064-.015.016" transform="translate(-2895.808 -729.09)"/></g></g></g></svg>