<svg width="48" height="49" viewBox="0 0 48 49" fill="none" xmlns="http://www.w3.org/2000/svg">
<g clip-path="url(#clip0_49_247)">
<path d="M24 4.57004C30.4125 4.57004 31.1719 4.59817 33.6938 4.71067C36.0375 4.81379 37.3031 5.20754 38.1469 5.53567C39.2625 5.96692 40.0688 6.49192 40.9031 7.32629C41.7469 8.17004 42.2625 8.96692 42.6938 10.0825C43.0219 10.9263 43.4156 12.2013 43.5188 14.5357C43.6313 17.0669 43.6594 17.8263 43.6594 24.2294C43.6594 30.6419 43.6313 31.4013 43.5188 33.9232C43.4156 36.2669 43.0219 37.5325 42.6938 38.3763C42.2625 39.4919 41.7375 40.2982 40.9031 41.1325C40.0594 41.9763 39.2625 42.4919 38.1469 42.9232C37.3031 43.2513 36.0281 43.645 33.6938 43.7482C31.1625 43.8607 30.4031 43.8888 24 43.8888C17.5875 43.8888 16.8281 43.8607 14.3063 43.7482C11.9625 43.645 10.6969 43.2513 9.85313 42.9232C8.7375 42.4919 7.93125 41.9669 7.09688 41.1325C6.25313 40.2888 5.7375 39.4919 5.30625 38.3763C4.97813 37.5325 4.58438 36.2575 4.48125 33.9232C4.36875 31.3919 4.34063 30.6325 4.34063 24.2294C4.34063 17.8169 4.36875 17.0575 4.48125 14.5357C4.58438 12.1919 4.97813 10.9263 5.30625 10.0825C5.7375 8.96692 6.2625 8.16067 7.09688 7.32629C7.94063 6.48254 8.7375 5.96692 9.85313 5.53567C10.6969 5.20754 11.9719 4.81379 14.3063 4.71067C16.8281 4.59817 17.5875 4.57004 24 4.57004ZM24 0.248169C17.4844 0.248169 16.6688 0.276294 14.1094 0.388794C11.5594 0.501294 9.80625 0.913794 8.2875 1.50442C6.70312 2.12317 5.3625 2.93879 4.03125 4.27942C2.69063 5.61067 1.875 6.95129 1.25625 8.52629C0.665625 10.0544 0.253125 11.7982 0.140625 14.3482C0.028125 16.9169 0 17.7325 0 24.2482C0 30.7638 0.028125 31.5794 0.140625 34.1388C0.253125 36.6888 0.665625 38.4419 1.25625 39.9607C1.875 41.545 2.69063 42.8857 4.03125 44.2169C5.3625 45.5482 6.70313 46.3732 8.27813 46.9825C9.80625 47.5732 11.55 47.9857 14.1 48.0982C16.6594 48.2107 17.475 48.2388 23.9906 48.2388C30.5063 48.2388 31.3219 48.2107 33.8813 48.0982C36.4313 47.9857 38.1844 47.5732 39.7031 46.9825C41.2781 46.3732 42.6188 45.5482 43.95 44.2169C45.2812 42.8857 46.1063 41.545 46.7156 39.97C47.3063 38.4419 47.7188 36.6982 47.8313 34.1482C47.9438 31.5888 47.9719 30.7732 47.9719 24.2575C47.9719 17.7419 47.9438 16.9263 47.8313 14.3669C47.7188 11.8169 47.3063 10.0638 46.7156 8.54504C46.125 6.95129 45.3094 5.61067 43.9688 4.27942C42.6375 2.94817 41.2969 2.12317 39.7219 1.51379C38.1938 0.923169 36.45 0.510669 33.9 0.398169C31.3313 0.276294 30.5156 0.248169 24 0.248169Z" fill="black"/>
<path d="M24 11.92C17.1938 11.92 11.6719 17.4419 11.6719 24.2482C11.6719 31.0544 17.1938 36.5763 24 36.5763C30.8062 36.5763 36.3281 31.0544 36.3281 24.2482C36.3281 17.4419 30.8062 11.92 24 11.92ZM24 32.245C19.5844 32.245 16.0031 28.6638 16.0031 24.2482C16.0031 19.8325 19.5844 16.2513 24 16.2513C28.4156 16.2513 31.9969 19.8325 31.9969 24.2482C31.9969 28.6638 28.4156 32.245 24 32.245Z" fill="black"/>
<path d="M39.6937 11.4325C39.6937 13.0262 38.4 14.3106 36.8156 14.3106C35.2219 14.3106 33.9375 13.0168 33.9375 11.4325C33.9375 9.8387 35.2313 8.55432 36.8156 8.55432C38.4 8.55432 39.6937 9.84807 39.6937 11.4325Z" fill="black"/>
</g>
<defs>
<clipPath id="clip0_49_247">
<rect width="48" height="48" fill="white" transform="translate(0 0.248169)"/>
</clipPath>
</defs>
</svg>
