<svg xmlns="http://www.w3.org/2000/svg" xmlns:xlink="http://www.w3.org/1999/xlink" width="610.348" height="478" viewBox="0 0 610.348 478"><defs><clipPath id="a"><rect width="478" height="478" transform="translate(0 -0.388)" fill="#fff"/></clipPath><clipPath id="b"><rect width="610.348" height="144.185" fill="#fff"/></clipPath></defs><g transform="translate(-377.826 -95)"><g transform="translate(446 95.196)" opacity="0.196"><g transform="translate(0 0.192)" clip-path="url(#a)"><path d="M337.514,114.163A65.834,65.834,0,1,1,271.68,48.329a65.834,65.834,0,0,1,65.834,65.834" transform="translate(-33.781 -8.143)" fill="#fff"/><path d="M240.855,268.1a65.834,65.834,0,1,1-65.834-65.834A65.834,65.834,0,0,1,240.855,268.1" transform="translate(-17.919 -33.405)" fill="#fff"/><path d="M441.332,268.1A65.834,65.834,0,1,1,375.5,202.266,65.834,65.834,0,0,1,441.332,268.1" transform="translate(-50.818 -33.405)" fill="#fff"/><path d="M105.01,352.624s29.924,17.955,38.9,20.947,8.977,2.992,38.9,0,77.8-14.962,188.524-5.985c0,0,29.925-2.992,44.887-8.977s20.947-2.992,20.947,5.985S425.2,424.442,377.322,439.4c-11.969,2.993-53.864-8.978-80.8-11.97S185.806,436.412,170.844,442.4s-26.932,14.962-41.895,11.97S93.04,424.442,87.055,400.5s-5.984-17.955,17.955-47.879" transform="translate(-13.741 -58.08)" fill="#fff"/><path d="M238.647,477.294C107.057,477.294,0,370.238,0,238.647S107.057,0,238.647,0,477.294,107.058,477.294,238.647,370.238,477.294,238.647,477.294m0-453.354c-118.39,0-214.708,96.317-214.708,214.707s96.318,214.708,214.708,214.708,214.707-96.318,214.707-214.708S357.037,23.94,238.647,23.94" transform="translate(0 -0.212)" fill="#fff"/></g></g><g transform="translate(377.826 282.305)"><g transform="translate(0 -0.003)" clip-path="url(#b)"><path d="M998.386,104.573a2.687,2.687,0,0,1,.416.813c-.862.224-.926-1.074-1.784-.717l.311.34c-.073.046-.181.155-.222.134-.559-.287-1.108-.591-1.715-.922a3.051,3.051,0,0,0,1.64,1.51c.393.215.825.364,1.206.6a3.1,3.1,0,0,1,.554.572c-.594.043-.983-.447-1.527-.589l-.428.287-3.119-1.682a2.707,2.707,0,0,0,1.1,1.147c.767.423,1.794.611,2.067,1.681.016.064.319.034.363.116a2,2,0,0,1,.059.646c-1.671-.853-3.17-1.676-4.718-2.392-1.509-.7-2.858-1.739-4.644-2.143l-.62.519,1.084.166-2.293.872-.134-.178.623-.771a2.2,2.2,0,0,0-1.659.864c-.709,0-1.481.041-2.247-.009a8.4,8.4,0,0,0-4.083,1.065,1.239,1.239,0,0,0-.735.766l-.619-.389a3.316,3.316,0,0,1-.341.166,10.979,10.979,0,0,1-2.927,1.049,4.388,4.388,0,0,0-1.364.558c-1.47.678-3.127.962-4.385,2.093a1.018,1.018,0,0,1-.628.223,1.834,1.834,0,0,0-1.433.843l1.3-.3c-.293.295-.381.451-.51.5a89.817,89.817,0,0,1-9.05,3.482c-2.395.668-4.645,1.747-7.04,2.354-1.411.358-2.761.853-4.139,1.285-.342.107-.671.256-1.112.426.124.627.246,1.255.374,1.882s-.244,1.307.26,1.943a1.156,1.156,0,0,1-.005,1.113c-.454.544-.031,1.176-.285,1.639a3.652,3.652,0,0,0-.277,1.634c-.251.189-.585.427-.9.684s-.654.554-.975.828a10.643,10.643,0,0,1-2.918.337c-.929-.118-1.859-.225-2.952-.357a2.548,2.548,0,0,0-2.041-.508c-.29-1.03-1.195-1.3-1.919-1.75a12.341,12.341,0,0,1-2.575-1.889,4.733,4.733,0,0,0-1.722-1.46.829.829,0,0,1-.309-.3,5.629,5.629,0,0,0-.739-.993c-.3-.252-.762-.3-1.075-.544-.71-.546-1.362-1.167-2.057-1.735-.456-.373-.946-.705-1.406-1.045l-.458.426c-.194-.321-.385-.633-.571-.948-.2-.34-.2-.822-.792-.867-.224-.017-.453-.338-.629-.561-.632-.8-1.227-1.632-1.866-2.428a2.356,2.356,0,0,0-1.7-.826,4.148,4.148,0,0,1,.455-2.794c-.549-.991-1.147-2.086-1.764-3.171a1.526,1.526,0,0,0-.408-.412c-.421-.325-.993-.455-1.131-1.115-.107-.515-.91-.429-1.024-1-.931-.356-1.052-1.515-2.069-1.923a11.5,11.5,0,0,0-1.984,1.544c-1.269,1.233-2.534,2.481-3.906,3.594a24.559,24.559,0,0,1-4.424,3.022,12.1,12.1,0,0,0-1.563,1.129c-.2.021-.593-.052-.838.107a8.533,8.533,0,0,1-5.243,1.082,3.454,3.454,0,0,1-2.042-.349,2.459,2.459,0,0,1-.247-.243,14.757,14.757,0,0,0-2.608.253,6.413,6.413,0,0,1-4.151-.817,26.68,26.68,0,0,1-4.906-3.138l-.671.292v-.756c-1.048-1.047-2.061-2.027-3.035-3.044a14.823,14.823,0,0,0-1.475-1.694c-.445-.338-.956-.539-1.091-1.148-1.167-.869-1.524-2.289-2.332-3.4a5.083,5.083,0,0,0-.868-.74,3.19,3.19,0,0,0-.555-2c-.582-1.006-.962-2.126-1.5-3.16a11.036,11.036,0,0,0-1.032-1.423c.472-1.465-1.009-2.61-.687-3.966a6.248,6.248,0,0,1-1.188-3.945l-.846-.845V82.273l-.658-.5.294-.322-1-4.572-.468-.359a5.019,5.019,0,0,0,.324-1.391c-.066-.966-.345-1.921-.369-2.884-.013-.522-.534-1.081.069-1.645a.923.923,0,0,0-.166-1.054c-.472-.481-.372-1.121-.391-1.729a6.985,6.985,0,0,0-.252-2.661c-.132-.31.126-.785.24-1.355l-.378-.865-.624-.033a5.521,5.521,0,0,1-1.854,1.315c-.672.371-1.323.783-1.993,1.16-1.224.688-2.512,1.242-3.759,1.86s-2.331,1.406-3.5,2.1a6.991,6.991,0,0,1-2.723,1.194,7.482,7.482,0,0,0-2.242.889,3.211,3.211,0,0,1-1.241.539c-.556.034-.654.463-.616.984l1.212,1.061c.76.115,1.364-.437,1.912-1.255l1.05.752.592-1.2.924,1.156.938-1.4A6.373,6.373,0,0,1,850.9,74.1c-.114,1.508.758,2.739.945,4.144.474.3.174.795.3,1.184a12.2,12.2,0,0,0,2.886,4.926,5.67,5.67,0,0,1,.623.9,11.918,11.918,0,0,0,1.416,2.05,17.138,17.138,0,0,1,1.174,1.971c1.01,1.407,1.535,3.092,2.6,4.461.08.1.093.259.171.364.336.447.674.891,1.029,1.322,1.327,1.616,2.625,3.251,3.829,4.966.989,1.409,2.179,2.678,3.158,4.093.635.917,1.513,1.587,2.173,2.449a48.292,48.292,0,0,1,3.379,4.417c.806,1.344,1.911,2.5,2.81,3.8a27.717,27.717,0,0,0,2.529,3.3c1.37,1.442,2.281,3.209,3.652,4.637a23.708,23.708,0,0,1,2.813,3.66,2.073,2.073,0,0,1-.543-.273,7.4,7.4,0,0,1-1.07-1.159c-.289-.431-.908-.5-1.07-.983-.178-.533-.764-.786-.9-1.227-.141-.471-.528-.44-.756-.683a34.339,34.339,0,0,1-3.7-4.442,2.651,2.651,0,0,0-1.31-1.215l-.5-1.13-.179.049v1.165l.766,1.47c1.329,1.756,3.083,3.472,4.569,5.432s3.4,3.565,4.82,5.586h-.8l.8.582.292.291.292.291c-.055.4.107.679.583.865v-.574l1.414,1.57-.431.841-.131-.705-.536.535.646.642.586-.342.73,1,.49-.271c.021.013.122.038.143.093a4.5,4.5,0,0,0,1.043,1.6,17.575,17.575,0,0,1,2.595,3.129c.432.7,1.206,1.186,1.606,1.954.007.014-.056.066-.183.207-.412-.3-.839-.618-1.278-.917a.6.6,0,0,0,.044-.041l-.2-.238-.092.092a1.621,1.621,0,0,0,.251.188c.079.24.144.494.222.8l-.36.36-.273-.586h-.393c-.031.358-.062.721-.1,1.107-.1-.029-.2-.027-.227-.072-.688-.974-1.368-1.953-2.059-2.945l.653-.3a2.9,2.9,0,0,0-.3-.475c-1.64-1.745-3.366-3.419-4.9-5.25-.923-1.1-1.925-2.1-2.935-3.177l-1.465.242-.354-.354c0,.056-.075.246-.014.311.561.592,1.146,1.163,1.724,1.74l-.195.194c.56,1.8,2.671,2.236,3.378,3.918-2.653-1.889-4.755-4.424-7.422-6.4-.076.232-.118.36-.16.489,1.348,1.564,3.242,2.541,4.4,4.272H883.2c-2-1.933-4.279-3.514-6.182-5.521-.19-.2-.565-.224-.98-.376l.28.655H875.9c-.719-.565-1.186-1.4-2.12-1.845a6.8,6.8,0,0,0,1.731,2.043,9.066,9.066,0,0,1,2.552,2.423,3.334,3.334,0,0,1-1.75-1.032c-.54-.485-1.016-1.041-1.553-1.53a35.71,35.71,0,0,0-2.781-2.31c.19.4.012,1,.7,1.1.116.018.2.2.31.3,1.846,1.744,3.693,3.488,5.589,5.277.019.664.279,1.219,1.057,1.234l.476,1.5-.35.15a4.708,4.708,0,0,0-.609-.816,2.259,2.259,0,0,0-1.031-.635c-.552-.074-.3-.641-.664-.811a2.547,2.547,0,0,1-.994-.721c-.21-.289-.314-.628-.635-.671l.246-.841-.477-.476-.6.564h-.656c-.042-.268-.084-.534-.123-.78l-1.694-1.249-.1-.242-.2.242-.78.2c-.772-.761-1.6-1.573-2.42-2.4-.077-.078-.051-.258-.075-.4h-.62l-2.981-2.978-1.093.277a6.559,6.559,0,0,1,3.011,2.391c-.194,0-.389,0-.6.015.006,0,.025-.023.044-.042l-.2-.238-.092.092a1.652,1.652,0,0,0,.252.188,1.854,1.854,0,0,0,.912,1.057c.425.2.292,1.046,1.021.991l2.162,2.305a4.3,4.3,0,0,1-.639-.211c-.229-.116-.433-.281-.956-.631.193.521.209.764.339.881a16.821,16.821,0,0,0,2.422,2.2,7.72,7.72,0,0,1,1.459,1.551h-.564a7.533,7.533,0,0,0-1.208-1.3c-1.192-.776-2.1-1.875-3.243-2.7-.677-.493-1.28-1.088-1.932-1.616-.49-.4-.707-1.025-1.309-1.344a7.32,7.32,0,0,1-1.43-1.118c-.573-.524-1.1-1.092-1.655-1.641-1.786-1.784-3.585-3.556-5.353-5.359a15.372,15.372,0,0,1-2.2-2.427,2.283,2.283,0,0,0-1.39-1.168c-.159-.033-.276-.262-.416-.4-1.248-1.186-2.408-2.454-3.772-3.53a18.853,18.853,0,0,1-2.289-2.528,23.933,23.933,0,0,1-2.3-2.532,7.829,7.829,0,0,0-2.047-2.053,3.552,3.552,0,0,0-3.349-.69c-1.988.685-3.082.455-4.463-.751h-.9a1.484,1.484,0,0,0-.126-.362,4.1,4.1,0,0,0-1.335-1.5,3.744,3.744,0,0,1-1.582-2.219,2.55,2.55,0,0,0-.289-.607c-1.184-1.922-1.928-4.061-3-6.036a1.422,1.422,0,0,1,.021-1.6c-.145-1.12-.281-2.16-.435-3.351l.6-.43-1.126-2.675a3.886,3.886,0,0,1,.361-2.794,9.51,9.51,0,0,1,2.113-3.592l.592.8c.439-.624.811-1.23,1.26-1.773.436-.528,1.046-.933,1.1-1.883a25.106,25.106,0,0,0-3.646,1.145c-.466.208-1.057-.163-1.462.356l-.468-.344-.811.7-.534-.3-.642.894a12.853,12.853,0,0,1-.341,1.341c-.132.379.438.649.048,1.1-.192.224-.036.747-.036,1.135a5.885,5.885,0,0,1-.018,1.451c-.423,1.6-.085,3.242-.322,4.827-.162,1.085-.079,2.181-.286,3.226-.2.989-.052,2-.287,2.935-.456,1.811-.116,3.62-.255,5.421-.083,1.077-.229,2.15-.278,3.228s-.032,2.135,0,3.2c.013.452-.186.946.256,1.358a.7.7,0,0,1,.007.686c-.566.531-.15,1.253-.439,1.87a5.9,5.9,0,0,0-.135,1.983c-.008.122-.131.237-.219.383l.808,1.57v1.122l-.8.528c-.137,1.185-.282,2.441-.444,3.841l-.841.7v1.136c-.185-.019-.393.014-.434-.054-.323-.535-.613-1.09-.939-1.683H819c-.12.477-.24.956-.392,1.555l.178.323a2.439,2.439,0,0,0-.2.472,2.943,2.943,0,0,0-.008.6c-.786-.443-.747-1.208-1.01-1.821l-.436.13c.109.451.211.869.325,1.335h-.565c-.045-.292-.085-.559-.124-.813l-.447-.043c-.037.354-.075.709-.093.88l-.82.946c-.118-.327-.23-.619-.328-.915a1.822,1.822,0,0,0-.488-.879c-.061.278-.122.557-.182.826l-.341.031-.587-1.591-.792.6.442.894-.646.107v-1c-.306-.306-1.786.586-2.193,1.271h-1.014a2.587,2.587,0,0,1,.235,1.665l-.486.145c-.041-.4-.077-.756-.118-1.166h-1.035l-.709.747v1.792h-.549v-1.126l-.608.03c.07.373.133.7.2,1.057l-.3.357-.635-.964-.644.384c-.581-.248-1.259-.38-1.326-1.274-.631.357-1.271.47-1.49,1.23-.074.258-.481.42-.736.626.032-.177,0-.417.106-.522a2.1,2.1,0,0,0,.488-2.716c-.073-.135-.01-.344-.01-.644L800.5,123.21c.1-.542.235-1.081.281-1.628.049-.578.016-1.164.007-1.746a2.106,2.106,0,0,0-.073-.385l-.3-.027-1.114,1.781a12.9,12.9,0,0,1-1.41-.921,12.273,12.273,0,0,1-1.107-1.238c-.058.394-.1.662-.14.955l-2.105-1.519-.117.142.688,1.091h-.8a8.723,8.723,0,0,1-.81-.654c.011.138.032.4.053.654h.758a7.454,7.454,0,0,1,.064,1.247l.885-.347c-.034.643-.342.873-.759.854l-1.607-1.605a.986.986,0,0,0-.082,1.326,4.524,4.524,0,0,1-.954-.368c-.5-.336-.956-.746-1.434-1.12-.764-.6-1.53-1.195-2.286-1.784a12.859,12.859,0,0,0-3.468,1.687c-.394.311-1.155,0-1.472.643-1.17.046-1.787.937-2.525,1.645a.887.887,0,0,1-.23.149c-.039.019-.1,0-.211,0l-.274-.58a23.531,23.531,0,0,0-2.835,1.909c-.159.167-.525.12-.772.225-1.2.508-2.388,1.039-3.561,1.614a34.274,34.274,0,0,1-3.7,1.267,24.443,24.443,0,0,0-5.393,2.46,3.122,3.122,0,0,1-.591.218c.084,1.168.167,2.337.258,3.61l-1.175.078a7.335,7.335,0,0,1-2.465.97,9.61,9.61,0,0,1-3.625-.046c-.177-.05-.431-.141-.543-.062-1.006.716-1.871-.007-2.692-.344a8.137,8.137,0,0,0-2.422-.847c-.21-.017-.4-.2-.61-.277a8.064,8.064,0,0,0-2.7-.9c-.286-.006-.56-.272-.852-.387a19.282,19.282,0,0,0-1.858-.808c-.7-.2-1.524-.6-1.411-1.624a5.37,5.37,0,0,1-3.151-1.977c-.493-.563-.289-1.347-.317-2.08-.371-.544-.718-1.143-1.153-1.668-.4-.477-1-.756-1.312-1.329-.665-1.232-2.045-1.937-2.483-3.684a3.162,3.162,0,0,0-.464-1.656,6.5,6.5,0,0,1-.461-1.985c.242-.423.706-.633.665-1.236a1.446,1.446,0,0,1,.779-1.36,1.149,1.149,0,0,0,.644-1.067,9.025,9.025,0,0,0-.009-1.018,3.632,3.632,0,0,1,.331-2.048,2.594,2.594,0,0,0-.346-2.8c.243-1.592-.472-3.214-.27-4.89-.776-2.693-.58-5.456-.571-8.2a4.993,4.993,0,0,0-.511-2.21c.083-.61.35-1.2.159-1.471-.339-.474-.175-.918-.241-1.369a10.139,10.139,0,0,1-.293-2.791c.047-.362-.155-.771.234-1.075.077-.061.043-.266.057-.406.063-.65-.774-1.293-.013-1.948,0-.775.011-1.549.013-2.324,0-.728.036-1.458-.011-2.183-.033-.5-.194-.986-.276-1.482a9.618,9.618,0,0,0-.23-1.355c-.2-.63-.091-1.38-.358-2.043-.083-.208-.181-.41-.281-.634.1-.267.219-.56.363-.93l-.732-.834a5.189,5.189,0,0,0,.137-3.565l.785-2.6c-.564-1.14-.117-2.405-.3-3.573l-1.726-2.563c-.078-.511-.19-1.2-.288-1.884-.092-.64.258-1.347-.279-1.776l.91-1.854-.337-.434c.288-1.034.605-2.072.857-3.126a1.665,1.665,0,0,0-.014-1.142c-.546-.812-.195-1.494.135-2.238h4.99l.691.608c.784-.475,1.532-.95,2.436-.354a.606.606,0,0,0,.563,0c.492-.413,1.081-.224,1.571-.283l.567-.566a7.109,7.109,0,0,0,3.9-1.188c.178.074.4.255.552.211.385-.108.725-.376,1.11-.475.4-.1.857-.029,1.259-.14.333-.093.672-.05,1.008-.122a2.526,2.526,0,0,0,1.467-.579,5.485,5.485,0,0,0,1.3-.155c1.395-.527,2.928-.6,4.151-1.2l3.1-.688.182.182c.059-.019.127-.037.193-.064a3.086,3.086,0,0,1,1.416-.477,3.918,3.918,0,0,0,1.189-.269c1.211-.328,2.48-.306,3.691-.6a33.235,33.235,0,0,0,4.024-1.189,3.8,3.8,0,0,1,.936-.237c.868-.532,1.518-.963,2.2-1.339s1.368-.681,2.07-1.026l.459.316a4.08,4.08,0,0,0,.743-.3c2.159-1.406,2.156-1.41,4.328-1.505l-.288-.758H783.5c.9.853,1.737,1.954,3.163,2.306.733.181,1.407.741,2.13.792a3.323,3.323,0,0,1,2.277,1.267l1.167-.343.089.159-1.105.833,1.025.25-.632,1.194,1.306.592-1.151.466V40.1l.929.592-.619.851.517.517c-.051.058-.1.166-.154.167-.616.012-1.232.008-2,.008.167.319.232.482.33.624.218.316.683.3.838.8.169.537.9.326,1.337.584.243.142.689-.064,1.324-.152a1.593,1.593,0,0,0,1.792-.105c.715.311,1.378-.555,2.257-.1a1.767,1.767,0,0,1-1.195.676,7.529,7.529,0,0,0-4.186,1.574c-.008.125-.026.265-.023.4a1.217,1.217,0,0,0,.047.239l1.332.5c-1.29.471-2.193,1.039-2.274,2.441-1.673.513-3.26,1.422-5.109,1.561a6.64,6.64,0,0,0-1.282.41,11.5,11.5,0,0,1-3.046.739c-.1,0-.222-.04-.288.006-1.076.752-2.428.711-3.571,1.232-1.109.505-2.309.721-3.409,1.281a19.144,19.144,0,0,1-3.1.927,9.354,9.354,0,0,1-1.916.7,6.9,6.9,0,0,0-1.839.8c-.494.214-1.012.372-1.5.6a4.469,4.469,0,0,0-.7.511,4.523,4.523,0,0,1,.973.828,4.679,4.679,0,0,1,.35,1.161c.117.389.251.773.424,1.3l.407.407v.893l.557.483v1.4c1-.682,1.872.39,2.77-.036l1.314,1.313v.94l-1.559,1.557c-.784.106-1.278-.415-1.858-.906-.6.338-1.6.013-1.861,1.192-1.415-.214-2.1.927-2.989,1.747a2.791,2.791,0,0,1-1.733-.822h-2.628c-.824.39-.767,1.318-1.181,2.085l1.086.731c.547-.38,1.178-.12,1.748-.243a14.874,14.874,0,0,0,1.657-.566c.3-.1.6-.184.9-.3.239-.091.391.552.661.068,1.02-.119,2.038-.313,3.06-.333a17.038,17.038,0,0,0,2.725-.467c1.393-.253,2.725-.72,4.1-1.023a3.714,3.714,0,0,0,1.749-.724,1.614,1.614,0,0,1,1.528-.406l.613-.613a3.935,3.935,0,0,0,2.156-.541c.727-.284,1.492.571,2.321.155.024-.22.049-.449.076-.7.082.014.175,0,.214.041a8.306,8.306,0,0,0,4.027,2.263,4.13,4.13,0,0,1,2.424,2c.137.23.235.483.4.817l1.318.452c-.273.3-.929.253-.811.991l.72.094.725.866.964-.51-.409,1.069h-1.3l-.444.472c.215.145.407.273.612.387a.508.508,0,0,0-.044.042l.2.238.092-.092a1.63,1.63,0,0,0-.251-.188c.446-.251.446-.251,1.273-.081l-.863,1.027H791.6l1.613.829h1.034l.553.6a3.365,3.365,0,0,0-3.052,1.1c1.493-.058,2.7.293,3.9-.207a2.642,2.642,0,0,1,.854-.051,4.964,4.964,0,0,0,3.691-1.935,7.676,7.676,0,0,0,.6-.985,1.329,1.329,0,0,1-.009-1.73,4.727,4.727,0,0,1-.129-3.1c-.076-.83-.152-1.665-.243-2.678l-.5-.34c0-.273-.06-.465.01-.551.656-.8.463-1.841.764-2.743.109-.326-.307-.889-.151-1.125.325-.491-.15-.819-.067-1.246a1.592,1.592,0,0,0-.213-1.217,1.52,1.52,0,0,1,.115-1.36,1.357,1.357,0,0,0,.134-1.457.469.469,0,0,1,0-.424,1.939,1.939,0,0,0-.1-2.141l.648-.689a3.821,3.821,0,0,0-.6-2.526c.714-.5.4-1.482.9-2.17a.733.733,0,0,0-.1-.659,1.2,1.2,0,0,1-.132-1.225,4.8,4.8,0,0,0,.258-1.938c.074-.594.212-1.18.28-1.774s-.142-1.234.291-1.777c.048-.059.021-.192,0-.286-.115-.637-.586-1.343-.246-1.892.387-.626.189-1.207.229-1.8a3.96,3.96,0,0,0-.247-1.09l.528-1v-1.73a14.656,14.656,0,0,1-4.132-2.072c-.677.079-.96-.505-1.42-.805a9.531,9.531,0,0,0-1.595-.714c-.584-.242-1.247-.3-1.7-.836a1.421,1.421,0,0,0-.73-.325,7.252,7.252,0,0,1-3.174-1.846c-.341-.311-.726-.585-1.082-.866a6.373,6.373,0,0,1-2.195-2.707,2.8,2.8,0,0,1-.256-.763,8.393,8.393,0,0,0-.056-2.024c-.2-.614.228-1.106.061-1.671a.86.86,0,0,1,.172-.641,2.838,2.838,0,0,0,.395-1.879c-.007-.29,0-.58,0-.856.45-.715.45-.715,1.053-1.043a5.675,5.675,0,0,0,.425-2.135,1.312,1.312,0,0,1,.286-.884,2.276,2.276,0,0,0,.56-1.923l.9-1.373-.4-1.013c.325-.277.653-.527.944-.814a8.129,8.129,0,0,1,.679-.78,1.85,1.85,0,0,1,1.851-.315,9.606,9.606,0,0,0,4.16.506c.163,0,.324-.151.487-.231.124.068.28.227.438.23a14.2,14.2,0,0,0,3.2-.034,23.285,23.285,0,0,1,3.533-.257c.595-.037,1.211-.558,1.758-.25a3.41,3.41,0,0,0,2.081.234,30.07,30.07,0,0,0,3.014-.512l.241.22,2.183-1.24,1.1,1,1.943-.787a8.718,8.718,0,0,0,2.657.182,6.558,6.558,0,0,0,2.448-.651l.861.68.947-.2c.178-.039.457-.171.519-.1.546.6,1.411-.028,1.987.542.123.121.578-.092,1.107-.2-.043-.03.093.14.25.164.922.136,1.85.228,2.773.353.594.08,1.185.18,1.774.291.542.1,1.148-.254,1.65.268.085.088.46-.169.679-.132a10.3,10.3,0,0,0,3.164.428c.419-.059.813.5,1.219.016a1.75,1.75,0,0,0,1.336.287,3.06,3.06,0,0,1,1.346.272c.425.137.882.115,1.346.266a15,15,0,0,0,2.632.348c.262.035.509.241.765.244.6.007.775.771,1.5.673.516-.069,1.1.334,1.647.532a4.914,4.914,0,0,0,1.517.527,9.7,9.7,0,0,1,2.989.908c.953.292,1.836.762,2.773,1.043a10.205,10.205,0,0,1,2.5,1.017c.7-.242.91.544,1.461.706a13.7,13.7,0,0,1,2.7,1.21,45.96,45.96,0,0,1,4.733,2.659c1.19.856,2.423,1.653,3.635,2.48a2.068,2.068,0,0,1,.208.2c1.265,1.168,2.526,2.339,3.8,3.5.805.735,1.626,1.454,2.474,2.212v.852a3.843,3.843,0,0,1,1.236,1.787c.069.247.429.406.521.655.608,1.643,1.181,3.3,1.759,4.952a1.017,1.017,0,0,1,0,.29,7.6,7.6,0,0,0,.246,2.224c.152.465.343,1.158-.428,1.585l1.236.877a12.755,12.755,0,0,0,3.3-1.435,13.244,13.244,0,0,1,1.737.02,7.225,7.225,0,0,1,1.409.5l.916-1.12H892a12.665,12.665,0,0,1,.924-1.548,8.972,8.972,0,0,1,1.2-1.059l.347.172a3.7,3.7,0,0,1,.8-.156c.26,0,.464.308.806.017.142-.121.576.1,1.044.2,1.181-.659,2.772-.9,3.961-2.064a3.187,3.187,0,0,0,.451.36,1.55,1.55,0,0,0,.443.079,4.413,4.413,0,0,0,.014.881,2.76,2.76,0,0,0,.4.669l-.942,1.472-1.429-.231c-.046.412-.086.773-.133,1.194-.732-.093-1.407.774-2.335-.081a10.7,10.7,0,0,1,.336,1.309,9.3,9.3,0,0,1,.011,1.172l.8,1.181a7.591,7.591,0,0,0-.208,2.843,2.89,2.89,0,0,0,.2.814c-.715.688.292,1.149.251,2.041-.254.6-.254.6.4,1.683l-.1.1.26,2.365a.642.642,0,0,1-.124.994c.436.8,1.058,1.53.813,2.588l.838.665a22.032,22.032,0,0,1,.674,4.8c-.018.6.477,1.141.031,1.827-.164.251.153.859.324,1.273.188.456.462.878.758,1.424a2.412,2.412,0,0,0-.866,2.006c-.226.171-.454.26-.544.424a3.986,3.986,0,0,1-3.869,2.346c-.583,0-1.168.024-1.749-.011a4.454,4.454,0,0,1-.892-.266l-.384.258a8.394,8.394,0,0,1-3.748-1.686H889.54l-.359.358a17.418,17.418,0,0,1-.272,2.932,2.216,2.216,0,0,0,.213,2.062c.118.153.05.474.019.712-.187,1.437.316,2.823.31,4.249,0,.3.221.593.266.9a7.077,7.077,0,0,1,.012,1.018c.255.685,1.038,1.293.313,2.123.157.366.325.727.47,1.1q.637,1.63,1.254,3.267a1.245,1.245,0,0,1,0,.356c.642.241.646,1.173,1.408,1.368.113.8.083,1.663,1.1,2.013.237.081.341.519.528.777a2.719,2.719,0,0,0,1.812,1.193,1.242,1.242,0,0,1,.381.134c.542.337,1.076.686,1.607,1.028h3.517l.512-.525a1.047,1.047,0,0,0,.2.076c.263.041.624.2.773.088a10.32,10.32,0,0,1,2.594-1.146,6.263,6.263,0,0,0,1.855-1.178c.814-.741,1.783-1.309,2.664-1.98a4.641,4.641,0,0,0,1.257-1.147,16.564,16.564,0,0,1,2.3-2.539,4.635,4.635,0,0,0,1.408-1.9.893.893,0,0,1,.24-.336,21.014,21.014,0,0,0,2.966-4.6,7.1,7.1,0,0,0,.834-1.4,3.057,3.057,0,0,1,.726-1.457.667.667,0,0,0,.17-.5c-.088-.458.174-.707.448-.993a1.253,1.253,0,0,0,.309-.594c.322-1.648,1.229-3.139,1.3-4.853.589-.534.119-1.332.514-1.982a1.652,1.652,0,0,0-.115-1.634.7.7,0,0,1,.17-.987,5.5,5.5,0,0,1-.266-1.057c-.04-.774-.017-1.553-.011-2.329a12.315,12.315,0,0,0-1.057-4.951A8.315,8.315,0,0,1,921.7,54.8a7.871,7.871,0,0,0-.532-1.669c-.261-.487-.389-1.015-.619-1.493a57.048,57.048,0,0,1-2.581-6.362,15.519,15.519,0,0,0-1.351-2.444l.727.2a.687.687,0,0,0,.083-.283c-.01-.137-.087-1.31-.085-1.448.005-.333-.018-.666-.033-1.112l1.553-.8c.333.529.66,1.138,1.074,1.681s1.138.76,1.376,1.5l.387-.365c.272-1.631.531-3.186.8-4.821a1.591,1.591,0,0,0,.783-1.148A20.919,20.919,0,0,1,923.856,34a2.089,2.089,0,0,1,.339-.5l-.384-.54,1.2-2.038a2.273,2.273,0,0,1,.591-1.948A3.5,3.5,0,0,1,926.07,27a17.5,17.5,0,0,0,1-2.751,7.826,7.826,0,0,1,4.728.7,3.768,3.768,0,0,0,1.733.407c.749-.075,1.425.363,2.213.31A6.888,6.888,0,0,0,939,25.054c.641.243.769-.618,1.363-.612A6.166,6.166,0,0,0,941.927,24c.921.365,1.128.3,2.328-.768a7.743,7.743,0,0,0,1.794-.406,4.6,4.6,0,0,1,2.778-.707,10.981,10.981,0,0,0,3.459-1.132,3.091,3.091,0,0,1,1.185-.294c.675-.047,1.355-.013,1.912-.013a6.523,6.523,0,0,1,2.68-.9,5.152,5.152,0,0,0,1.973-.49,3.579,3.579,0,0,1,1.755-.361,5.1,5.1,0,0,1,2.692-.862,1.559,1.559,0,0,0,1.044-.308c.672-.471,1.57-.469,2.188-1.091.135-.137.578.031,1.068.075l.84-.475.743.9a.974.974,0,0,0,1.107-.653l-1.879-.761c.453-.182.66-.352.8-.308a13.345,13.345,0,0,1,3.416,1.624c1.206.8,2.244,1.931,3.708,2.278a12.922,12.922,0,0,1,1.886.734,7.315,7.315,0,0,1,1.619,1.027,6.41,6.41,0,0,0,1.1.541c.186.6-.194,1.318.327,1.889a.429.429,0,0,1,0,.419c-.493.54-.187,1.19-.312,1.848l1.662.622.245-.507h.3l.5,1.183c1.1-.176,1.639-1.259,2.695-1.2l.6.945a9.963,9.963,0,0,1,4.363-.6c.636.432,1.334.875,2,1.365.622.458.688,1.485,1.582,1.6-.415.869-.1,1.788-.235,2.713l-.4.357a3.284,3.284,0,0,0-3.072.768v1.013l.952.789-.31.524c.315.934,1.141,1.689,1.132,2.819,0,.312.307.647.523.935a3.865,3.865,0,0,1,.63,4.026,17.462,17.462,0,0,0-.586,2.082l-.922.6.492.491.384-.511c1.3-.165,2.427-.477,2.925-1.711a11.557,11.557,0,0,1,1.359-.4,6.777,6.777,0,0,1,1.144-.013l1.211,1.209.855-.246a7.573,7.573,0,0,1,3.117.413,7.917,7.917,0,0,0,1.135.083c.644.07,1.333-.224,1.932.274a.652.652,0,0,0,.567,0c1.048-.51,2.16-.2,3.238-.276.377-.027.759,0,1.178,0,.022-.393.041-.72.062-1.081.714-.713,1.979-.568,2.476-1.615a4.929,4.929,0,0,0,1.125.35,3.247,3.247,0,0,0,2.289-.459,5.683,5.683,0,0,1,1.749-.682,5,5,0,0,0,2.139-1.173c.308-.106.58.544.958.025.07-.1.577.126,1,.23a6.042,6.042,0,0,1,2.25-.535,5.009,5.009,0,0,0,2.3-.439,3,3,0,0,1,1.774-.029,9.919,9.919,0,0,0,1.951.091c.107,0,.214-.159.2-.146l1.552.256.15-.573h1.291c.229.229.139.734-.26,1.324l-1.738-.459a2.8,2.8,0,0,1-.814.238,6.612,6.612,0,0,0-1.634.285.817.817,0,0,0-.706.961c-.357.786-1.148.78-1.743,1.1-.749-.566-1.487-.075-2.241-.044a15.672,15.672,0,0,1-2.352.3c-.878-.105-1.413.736-2.244.614l-.893.852-.4-.324c-.738.416-1.16,1.243-2.15,1.77-.355.427-.19,1.2-.22,1.961-.363.476-.732.958-1.161,1.523a2.334,2.334,0,0,0,.633,2.022c-.34.649-.677,1.189-.916,1.77a6.688,6.688,0,0,1-1.614,2.4,6.423,6.423,0,0,0-.827,1.245l.931,1.837-.351,1.493-.445.471.453.8c-.076.744-.093,1.345-.21,1.926-.114.564.824,1.1.059,1.614.088.232.29.5.225.639a6.348,6.348,0,0,0-.261,2.8,7.98,7.98,0,0,1-.536,3.278,2.722,2.722,0,0,0-.052,1.141,2.106,2.106,0,0,1-.588,1.8v.914c-.119.034-.247.069-.375.109-.8.25-1.664.428-1.684,1.552,0,.147-.229.29-.389.478h-1.826a3.029,3.029,0,0,0,.465,1.9V81.14l.583.413a4.473,4.473,0,0,0,1.205,3.409v1.185l.446.1a.732.732,0,0,1,.11.244,2.778,2.778,0,0,0,.28,1.492,3.8,3.8,0,0,1,.787,1.828c-.022.711.512,1,.746,1.461a5.262,5.262,0,0,0,.613,1.372,9.636,9.636,0,0,1,1.08,2.155c.575,1.17,1.116,2.361,1.762,3.492a5.2,5.2,0,0,0,1.426,2.034c-.211.633.375.928.62,1.342a16.958,16.958,0,0,0,2.785,3.8,8.829,8.829,0,0,0,6.211,2.6,10.3,10.3,0,0,0,4.632-1.15,14.538,14.538,0,0,0,2.277-1.186,4.732,4.732,0,0,0,.584-.339,17.141,17.141,0,0,1,3.766-2.88.786.786,0,0,0,.207-.2,18.162,18.162,0,0,0,1.659-2.084c.621-1.047,1.481-1.894,2.168-2.882s1.484-1.912,2.227-2.869c.373-.481.732-.974,1.032-1.374a8.529,8.529,0,0,1,.553-1.317,41.93,41.93,0,0,0,2.944-5.339,23.755,23.755,0,0,0,1.258-2.971c.3-1,.9-1.913,1.093-2.887.31-1.571,1.276-2.941,1.286-4.577.769-1.29.545-2.848,1.1-4.2.038-.094-.137-.356.039-.623.134-.2.012-.566.029-.856a22.764,22.764,0,0,0,.289-4.1c.593-1.432.216-2.929.277-4.394a28.232,28.232,0,0,0-.024-4.509c-.182-1.522-.327-3.053-.586-4.562a4.033,4.033,0,0,0-.364-1.438c-.536-.868-.3-1.989-.995-2.8a.9.9,0,0,1-.035-.827c.268-.449.5-.823-.02-1.23.257-1.05-.591-1.811-.683-2.787l-.511.083.695,2.057c-.974-.531-.565-1.6-1.122-1.892.035-.74.08-1.322.079-1.9,0-.164-.218-.338-.2-.489a6.352,6.352,0,0,0-.811-3.458c-.143-.328-.077-.75-.232-1.067-.309-.628-.468-1.375-1.3-1.642-.333-.107-.587-.46-.877-.7-.034-.277.034-.642-.118-.816-1.151-1.323-1.774-2.977-2.8-4.376a8.093,8.093,0,0,1-.576-.781c-.419-.749-1.4-.87-1.784-1.707-.331-.712-1.216-1.033-1.528-1.843-.086-.224-.531-.31-.777-.442v-.676a21.08,21.08,0,0,0-2.749-2.478,5.625,5.625,0,0,1-1.042-1.153l.305-.171c-.033-.148-.022-.273-.078-.32-.5-.421-1-.849-1.524-1.234-1.226-.894-2.468-1.764-3.7-2.645a2.023,2.023,0,0,1-.437-.342,9.631,9.631,0,0,0-3.139-2.26c-.751-.42-1.477-.884-2.213-1.327v-.44l.3-.166c-.072-.778-.883-.788-1.174-1.29l1.372.259c.023-.151.055-.351.086-.55.083.034.169.061.248.1.553.3,1.23.191,1.743.742a5.972,5.972,0,0,0,1.642.892,4.155,4.155,0,0,1,1.405,1.1,2.122,2.122,0,0,0,.618.605,17.428,17.428,0,0,1,4.668,3.8l.632.073,1.511,1.869.365-.454.415-.233a3.933,3.933,0,0,0-.5-.568c-3.851-2.891-7.345-6.26-11.58-8.657a1.381,1.381,0,0,1,1.749.328,16.723,16.723,0,0,0,2.545,1.624c1.087.669,2.176,1.335,3.249,1.993l-.393.98.646-.431a3.136,3.136,0,0,1,.851.37,26.436,26.436,0,0,0,3.573,2.651c.339.2.1.833.67.779a12.068,12.068,0,0,0,2.839,1.931,15.3,15.3,0,0,1,2.3,1.842,4.126,4.126,0,0,0,1.221,2.467,27.269,27.269,0,0,0,2.946,3.28,5.79,5.79,0,0,1,.726,1.006c.123.187.162.454.32.589a17.759,17.759,0,0,1,2.483,3.341,4.684,4.684,0,0,0,1.1.784c0,.176-.083.556.014.609.586.321.474.993.8,1.439a8.709,8.709,0,0,1,.728,1.3,7.522,7.522,0,0,1,.7,1.6,2.6,2.6,0,0,0,1.013,1.619c.359.276.492.845.77,1.363l-.241.327c.52,1.145.707,2.486,1.374,3.67a6.677,6.677,0,0,1,.382,1.151,5.258,5.258,0,0,0,.249.625,5.594,5.594,0,0,1,.867,1.809,6.744,6.744,0,0,0,1.227,3.007c.119.346-.262.939.285,1.349l-.582.544.843.546a1.943,1.943,0,0,0,.03.452c.173.536-.719.952-.125,1.564.4.412-.14,1.11.385,1.6.169.158.026.651.026.991V62.3c.429-.373.831-.555.843-.762.044-.738.567-1.235.793-1.867s.4-1.283.68-1.9.3-1.344.622-1.923a28.252,28.252,0,0,1,2.1-3.943,4.2,4.2,0,0,0,.773-1.42,14.077,14.077,0,0,1,.984-2.072,8.8,8.8,0,0,1,.54-1.373c.333-.493.965-.795.908-1.522.627-.357.438-1.2,1.012-1.636a5.878,5.878,0,0,0,.96-1.359,1.337,1.337,0,0,1,.38-1.141,3.664,3.664,0,0,0,1.036-1.448c.2-.579.817-.606,1.068-1.135a5.886,5.886,0,0,1,1.3-1.358c0-.291,0-.582,0-.772a13.284,13.284,0,0,0,1.11-.931c1.592-1.664,3.2-3.315,4.729-5.037a8.9,8.9,0,0,1,2.04-1.723V28.4c.082-.048.159-.1.239-.139a5.584,5.584,0,0,0,1.062-.593,42.294,42.294,0,0,0,3.78-3.511c2.087-2.372,4.674-4.137,7.076-6.126A3.437,3.437,0,0,1,1100,17.6a18.958,18.958,0,0,0,3.545.185l1.23.833h1.6c.158.2.34.6.651.774.5.275,1.043.723,1.664.291a1.305,1.305,0,0,1,1.659.212c.583.491,1.288.687,1.945,1.16a2.1,2.1,0,0,1,2.226-.892l.65,1.1q-.384.8-.811,1.69l3.323,2.939h.553l.314-.731.964.89v1.023c.786.06,1.136,1.366,2.2.653.634.151.78.888,1.289,1.236.527.359,1.084.674,1.672,1.035h.707c1.7,1.087,3.21,2.292,4.89,3.167v1.155h-1.707a4.877,4.877,0,0,0,.319,1.882A1.434,1.434,0,0,1,1128.8,38a3.364,3.364,0,0,0-.538,2.121,2.039,2.039,0,0,0,.57,1.659l-2.315,3.052c.2,1.09-.672,1.7-1.41,2.455v.76c-.654,1.222-1.163,2.34-1.835,3.35-.281.423-.173.809-.277,1.2l-.838.837v1.237a3.95,3.95,0,0,0-2.055,2.382,2.039,2.039,0,0,1-1.825,1.21l-1.618,2.051-3.806-.4a2.674,2.674,0,0,0-.932-.544,4.268,4.268,0,0,1-1.983-1.2c-.816-.9-1.8-1.655-2.544-2.6-1.033-1.308-2.345-2.388-3.068-3.963a3.72,3.72,0,0,0-1.959-2.081h-1.631l-4.768,4.347h-.378c-1.3,1.459-2.636,2.806-3.789,4.293-1.119,1.445-2.051,3.034-3.153,4.692V65.1c.423.865,1.657.807,2.185,1.679l1.1-.378a3.106,3.106,0,0,0,2.463,1.769,1.359,1.359,0,0,1,.605.286c1.1.83,2.524.969,3.669,1.714.2.133.568.019.847.019.706.616,1.224,1.5,2.32,1.467a9.882,9.882,0,0,0,3.023,1.857,10.323,10.323,0,0,1,1.933,1.31c.079.055.127.166.21.2a22.72,22.72,0,0,1,4.5,2.823,16.628,16.628,0,0,0,4.019,1.931,6.769,6.769,0,0,1,3.558,2.957,9.985,9.985,0,0,1,1.087,2.468,8.787,8.787,0,0,0,1.347,2.151h.889a4.332,4.332,0,0,1,.529-1.829c.5-1.151.975-2.321,1.423-3.486.761-1.982,1.753-3.84,2.61-5.766.783-1.759,1.483-3.56,2.2-5.351.626-1.564.974-3.192,1.468-4.783.1-.327.053-1.022.644-.933a24.385,24.385,0,0,0,.925-2.607,9.14,9.14,0,0,0,.729-2.469c0-.094-.027-.246.02-.276.781-.5.525-1.433.9-2.113a5.633,5.633,0,0,0,.565-2.1c.041-.373.444-.7.534-1.077a6.948,6.948,0,0,0,.022-1.452l.575-.357a3.881,3.881,0,0,1,.287-1.908,3,3,0,0,0,.331-1.473,2.765,2.765,0,0,1,.4-1.277,21.113,21.113,0,0,0,1.553-4.015c.383-1.115.934-2.142,1.334-3.239.369-1.012.959-1.932,1.423-2.905a7.414,7.414,0,0,0,1.118-3.479,5.539,5.539,0,0,1,.395-1.5l.45-.094c-.045-.315-.091-.647-.152-1.073.878-.776.734-1.987.741-3.1l.562-.562a7.6,7.6,0,0,1,2.719-5.354l2.028.958,1.508-1.893h1.2l1.054-.715c1.253.024,2.389.8,3.724.183a9.26,9.26,0,0,0,4.8-.054l.926,1.043a4.858,4.858,0,0,0,2.836.131c.829.588,1.772.132,2.668.32a5.051,5.051,0,0,0,3.872,2.642l1.24,1.239V27.64a6.359,6.359,0,0,1,.915,2.919c-.006.492.217.983.263,1.482.049.529.011,1.067.011,1.545-.707,1.062-.723,2.5-2,3.124v2.2c.71.884.478,2.056.86,3.029.4,1.027.389,2.146.817,3.208a2.782,2.782,0,0,0,.031,2.609c-.149.406-.555.749-.1,1.259a2.171,2.171,0,0,1,.341,1.915,2.681,2.681,0,0,0-1.541,2.044,11.953,11.953,0,0,1-2.025,3.651l1,.624-.136.147h.857a2.649,2.649,0,0,1,.7,2.48c-.658.135-1.016,1.085-1.917.639l-.735-1.427.356-1.809-1.032-.759a3.894,3.894,0,0,1-1.361-.265,3.062,3.062,0,0,0-1.619-.336,1.929,1.929,0,0,1-1.693-.555h-2.013c-1.282,1.16-1.713,2.84-2.492,4.313a3.484,3.484,0,0,0-.636,1.791c.012.344-.377.7-.58,1.053a2.985,2.985,0,0,0-.535,1.833c1.426-.039,2.742.447,4.135.348.445-.032.918.324,1.414.516a3.149,3.149,0,0,1,2.261-.154c.126.022.235.169.359.181,1.125.109,2.25.239,3.377.288a12.918,12.918,0,0,0,3.342-.036,26.3,26.3,0,0,1,4.409-.245,1.958,1.958,0,0,0,.939-.211,1.435,1.435,0,0,1,1.224.022,1.658,1.658,0,0,0,.948.182,1.9,1.9,0,0,1,1.353.607,20.444,20.444,0,0,0,2.742,2.171c.207.142.3.443.474.708h.535c.046-.043.148-.092.171-.166a73.893,73.893,0,0,1,4.47-9.945,41.386,41.386,0,0,0,1.95-5.163c.337-1.031.457-2.117.84-3.145a5.533,5.533,0,0,1,.473-1.122,3.009,3.009,0,0,0,.709-2.412l.414-.414c.325-.983.615-1.789.857-2.609a45.586,45.586,0,0,1,3.539-7.851,2.307,2.307,0,0,0-.039-2.527,14,14,0,0,0-1.506-1.951,5.984,5.984,0,0,0-1.782-.989l-1.235-2.452a3.021,3.021,0,0,1,1.841.953l.995-.535-.693-.883a6.246,6.246,0,0,1,.916-4.332c.324-.173.946-.321.984-.562.093-.581.747-.372.918-.8v-.952l.831-.761a4.422,4.422,0,0,0,1.575-.258,1.219,1.219,0,0,1,1.441.31c.689-.454,1.37-.837,1.973-1.318.852-.679,1.677-1.4,2.457-2.159a26.931,26.931,0,0,1,4.487-3.6.679.679,0,0,0,.3-.308c.253-.878,1.127-1.243,1.588-1.962.857-1.341,1.192-2.918,2.026-4.261-.026-1.332.923-2.349,1.1-3.793-.094-.173-.287-.529-.525-.968.185.008.394-.047.506.033,1.066.761,1.062.767,2.04.786.029-.122.066-.252.088-.384s.03-.272.044-.4l1.374-.239,1.132.568c.18-.741.339-1.4.525-2.161a1.723,1.723,0,0,1,.42.269,7.253,7.253,0,0,1,.515.743l1.505-.791.649.937h1.657v.588c.6,1.045,1.962,1.225,2.1,2.48.9.662,1.147,1.763,1.636,2.513.142.861.262,1.594.4,2.451-.8.651-1.226,1.829-2.483,2.123a5.139,5.139,0,0,1-2.83-.407,4.522,4.522,0,0,0-1.5-.152l-.769.768v1.3a.775.775,0,0,0-.877.546c-.639,1.385-1.362,2.738-1.9,4.16a32.456,32.456,0,0,0-.91,3.526c-.126.316-.316.869-.563,1.4-.258.551-.086,1.159-.36,1.746a3.07,3.07,0,0,0-.376,1.605,10.608,10.608,0,0,1-.247,1.769c-.049.627-.011,1.261-.011,1.9a7.049,7.049,0,0,1,1.189,4.163,4.549,4.549,0,0,0,.241,2.512,1.265,1.265,0,0,1-.109,1.086c-.418.6.037,1.27-.337,1.913a1.688,1.688,0,0,0,.18,1.866c.024.029.01.1,0,.143-.07.435-.337.978-.169,1.278.274.49.1.936.154,1.393.011.093-.178.209-.264.3.5,1.748.162,3.623.868,5.4a1.016,1.016,0,0,0-.162.3,9.682,9.682,0,0,0-.389,2.3,3.957,3.957,0,0,1-.673,2.21c-.66,1.16-1.77,2.009-2.37,3.243-.133.273-.6.382-1.067.653h-1.933l-.549-.549h-1.449c-1.08,1.5-1.506,3.354-2.5,4.907-.293.456-.182.991-.387,1.442-.782,1.717-1.362,3.512-2.052,5.264a7.449,7.449,0,0,0-.456,1.264,11.313,11.313,0,0,1-.99,2.5c-.987,2.164-2,4.316-2.975,6.484a3.664,3.664,0,0,0-.306,1.179c-.08.985-.78,1.708-1.039,2.637-.277,1-.491,2.015-.8,3.006a18.132,18.132,0,0,0-.424,2.444c-.582,1.216-1.18,2.575-1.87,3.885a68.314,68.314,0,0,0-3.17,7.859,4.94,4.94,0,0,0-.138,1.246,10.442,10.442,0,0,0-1.117,3.183c-.136.439.172.945-.2,1.378-.307.363.141.981-.4,1.289a10.614,10.614,0,0,1-.593,3.977,15.47,15.47,0,0,1-.551,2.828c-.085.19.114.506.189.8a8.481,8.481,0,0,0-.831,2.344,13.991,13.991,0,0,1-.706,3.339,9.647,9.647,0,0,0-.257,1.795c-.153.467-.313.932-.454,1.4-.04.132.024.36-.049.408-.807.527-.543,1.517-.964,2.24a4.871,4.871,0,0,0-.485,2.278,4.931,4.931,0,0,1-.564,1.517l.288.348c-.766.736-.527,1.71-.57,2.627l-.453.452-.492-.71-1.855-.895c-.109.253-.277.646-.447,1.039l-.2-.033c-.029-.458-.057-.916-.079-1.277-.316-.674-.879-.391-1.357-.516-.028-.111-.062-.242-.122-.483l-.7-.068-.321.75-.625-.524c.105-1.6.21-3.187.323-4.909a1.982,1.982,0,0,0-.963,1.928.833.833,0,0,1-1.194.3l.275-.688-.469-.069v1.527l.761-.3v.785l-.725.062-.423.543-1.576-1c-.1.4-.168.694-.236.977l-.295.038c-.065-.06-.174-.112-.189-.182-.11-.539-.178-1.088-.306-1.623-.1-.438-.271-.861-.434-1.362l-.324-.046c-.152.835-.3,1.648-.464,2.553l-.607.573-1.3-.676a9.522,9.522,0,0,1-.35-3.58h-.758l-.457.848a2.377,2.377,0,0,0-.942.028c-.254.119-.458.318-.767.263l1.267-1.514c-.449.107-.8.094-1,.258a2.357,2.357,0,0,1-1.434.674,8.864,8.864,0,0,1,1.989-1.623l.589-1.19-.459-.458a16.051,16.051,0,0,0-1.7.981,35.911,35.911,0,0,0-4.364,3.155c-.073.073-.281.009-.427.009l.875-1.456c.64.044.91-.406,1.166-.874a.6.6,0,0,0,.207-.3c.716.11.894-.41,1.385-.855-.833-.02-.994.524-1.385.855a.6.6,0,0,1-.207.3c-.64-.044-.91.406-1.166.874h-.474l-1.115,1.165h-.453a5.7,5.7,0,0,1,1.928-1.811c.37-.186.615-.611.941-.9.345-.306.582-.728,1.1-.854.2-.048.323-.41.58-.764.922.112,1.486-.7,2.16-1.355-.962-.611-1.592.6-2.582.419l-.729.9c-1.2-.054-1.689.867-2.592,1.6a3.082,3.082,0,0,1,.256-.76,7.928,7.928,0,0,1,1.874-1.432c.644-.456,1.246-.971,1.876-1.449.291-.221.626-.388.9-.628a3.694,3.694,0,0,0,.478-.642c-.456-.331-.8-.265-1.068.091a.728.728,0,0,1-.751.3c.345-.852,1.2-1.162,1.85-1.668a4.234,4.234,0,0,0,1.66-1.8c-.533-.763-.206-1.645-.345-2.674l-.89-.795h1.709l.7.654,1.094-1.677c.647.393.294.78.092,1.158l.47.438c.178-.089.3-.109.332-.173.319-.691.57-1.42.944-2.079a6.006,6.006,0,0,0,.836-3.145,7.162,7.162,0,0,0-.126-2.419c-.287-.717.17-1.542-.455-2.137.128-.731-.295-1.532.285-2.211.048-.056.02-.19,0-.285-.218-1.387.365-2.711.3-4.057l.534-.548v1.721c.841.416,1.093-.259,1.5-.6-.125-.846.8-1.342.684-2.192a1.411,1.411,0,0,1,.055,1.205,20.688,20.688,0,0,0-.449,2.289,5.363,5.363,0,0,0,.4,2.051,1.888,1.888,0,0,0,.3-.263,1,1,0,0,0,.172-.363c.666-3.056,2.169-5.931,2.033-9.27h-.863V89.6l-1.017-1.046a9.1,9.1,0,0,0-1.906.021c-1.848.408-3.743.026-5.557.329-1.679.28-3.331.115-4.988.241-.692.052-1.376.2-2.066.28-.643.076-1.3-.116-1.936.267-.278.167-.741.028-1.016.028-.447.327-.611.672-.414,1.062a20.991,20.991,0,0,1,1.014,3.074,2.762,2.762,0,0,1,.094.833c.009,1.5,0,3,0,4.615a6.012,6.012,0,0,1-1.667,1.151c-1.179.322-2.236,1.174-3.561.915-.634-.123-1.267-.249-2.023-.4-.067-.066-.223-.365-.412-.388a9.507,9.507,0,0,1-2.966-1.29c-.624-.3-1.382-.165-1.9-.685a17.31,17.31,0,0,0-1.453-1.427c-.609-.478-1.3-.854-1.993-1.3a10.008,10.008,0,0,0-1.808,3.546,7.19,7.19,0,0,0-1.3,2.23c-1.022,2.049-2.082,4.086-2.964,6.2a15.66,15.66,0,0,1-1.622,3.678,26.485,26.485,0,0,0-1.875,3.295,10.79,10.79,0,0,0-.7,1.891c-.16.467-.3.941-.483,1.521l.588.425a27.543,27.543,0,0,1-2.556,3.993,10.579,10.579,0,0,0-1.181,2.287l-.3-.252a.5.5,0,0,1-.892,0l-.378.328-2.031-1.138-.293.271-.829-.612-.887,1.114c-.049-.483-.069-.7-.094-.921-.02-.176-.046-.352-.078-.593-.573.182-1.076.719-1.611,0-1.36,1.123-2.485-.509-3.792-.192l-.778-1.4-.915-.461-1.264,1.9a3.306,3.306,0,0,0-.61-.771,5.125,5.125,0,0,0-1.147-.419l-.686.865-.419-.357c-.719.128-.7,1.207-1.743,1.2-.048-.114-.163-.388-.233-.554h-1.446l-.442-.854c0-.967-.043-2.037.012-3.1.054-1.029-.288-2.1.369-3.238l-.469-.476c-.272.1-.38.1-.437.163a19.015,19.015,0,0,1-3.141,2.6c-.857.561-1.449,1.5-2.366,2.039-.118.07-.128.324-.188.5h-.71c-.075.1-.195.246-.311.4a28.1,28.1,0,0,1-4.114,3.759c-.973.865-1.987,1.707-3.034,2.494a24.961,24.961,0,0,1-2.949,2.029,11.936,11.936,0,0,0-1.205.945c-2.423,1.726-2.684,1.8-5.91,2.907-.341.117-.769.106-1.028.314a.859.859,0,0,1-1.249,0c-.183-.139-.559-.023-.948-.023-.011-.242-.021-.469-.034-.745l-1.1-1.019a2.937,2.937,0,0,1-.394.205,6.1,6.1,0,0,1-.695.15l1.1-1.146-.4-1.164-1.487-.512.66-.958c-.218-.017-.481-.118-.656-.034a6.017,6.017,0,0,0-.914.663,2.742,2.742,0,0,1,.133-2.285l-.413-.431c-.7-.028-.678.517-.831.749l-2.016-.64.765-1.608-1.216.352c-.046-.164-.092-.329-.152-.548l-.809-.12c.014-.163-.023-.336.046-.416.253-.293.541-.555.8-.813l-1.106-.742h-1.092c-.583-.923-1.67-.818-2.549-1.148-.55-.206-1.236-.09-1.751-.343-.643-.316-1.4-.368-1.955-.949a4.724,4.724,0,0,0-1.466-.665l.305-1.126-.978-.978.425-.888,1.029-.047c.4-.534-.542-1.57-1.58-1.764v-.979c-.563-.3-.72-1.1-1.674-1a23.639,23.639,0,0,0-2.359,2.863c-.169-.558-.338-1.119-.529-1.752l-.746.911v-.887l-1.218.81-.958-.259-2.386,3.379c-.039-.4-.165-.692-.071-.867a55.3,55.3,0,0,0,4.192-9.759,17.666,17.666,0,0,0,.441-2,12.151,12.151,0,0,0,.28-1.335c.049-.48,0-.969.016-1.454a1.493,1.493,0,0,1,.1-.4c.279-.9.562-1.794.881-2.814l.61,1.346.667-.942c.039.49.073.931.1,1.271l.787.923v-1.072c.44-.366.648-.976,1.4-.745l.884-1.1.785.8-.12.212-.781-.167-.314.292c.036.068.057.176.107.193.693.227,1.354.572,2.107.035.255-.181.747-.029,1.071-.029,1.352.738,2.146,1.988,3.242,2.9.925.1,1.854.235,2.786.3a4.211,4.211,0,0,0,3.328-1.126c.815-.19.942.543,1.587.808h1.326l1.691-1.085-.623,1.3a.89.89,0,0,0,.293.1,1.925,1.925,0,0,0,1.433-.75c.234-.248.451-.513.851-.409.052.48.433.215.667.294l1.065-1.307-.356-.442,1.85-2.331h-.6c0-.049-.019-.127,0-.141a14.707,14.707,0,0,0,2.038-2.049,29.955,29.955,0,0,1,2.181-2.141c1.456-1.137,2.632-2.582,4.165-3.638a23.289,23.289,0,0,0,2.172-1.926,4.258,4.258,0,0,0-2.52-1.775,4.1,4.1,0,0,1-1.206-.594c-.355-.211-.669-.491-1.018-.712-1.616-1.02-3.267-1.989-4.85-3.056-1.669-1.125-3.588-1.868-5.045-3.319a6.981,6.981,0,0,0-1.134-.738h-.984c-1.356-1.026-2.631-2.119-4.462-2.065l-.523-.523c-.385-.011-.819-.209-1.236.291l-.2-.487a14.317,14.317,0,0,1-3.686-1.271c-.406.392-.86-.147-1.341-.025l-.271.577-.354-.322-.835.356-.259-.634L1066.983,75l-1.457-.873-1.624,1.8c-.173,1.21-.312,2.18-.416,2.905-.426,1.184-.8,2.147-1.119,3.126C1061.7,84,1060.9,86,1060.158,88.028c-.817,2.234-1.708,4.441-2.486,6.691a29.9,29.9,0,0,1-1.785,3.917,13.488,13.488,0,0,1-1.715,2.65,15.153,15.153,0,0,0-1.16,1.984c-.983,1.586-2.042,3.127-2.968,4.745a37.737,37.737,0,0,1-2.549,4.041c-.779,1.033-1.491,2.111-2.286,3.138a28.3,28.3,0,0,1-5.425,4.814,1.017,1.017,0,0,1-.759.294,1.739,1.739,0,0,0-1.234.526c-.773.623-1.472,1.343-2.267,1.933a21.654,21.654,0,0,1-2.539,1.6c-.826.45-1.753.725-2.55,1.215a3.977,3.977,0,0,1-1.524.574,10.606,10.606,0,0,1-1.487.281,8.307,8.307,0,0,0-1.772.282c-.7.172-1.26-.315-1.922-.309a8.139,8.139,0,0,1-1.932-.229,24.6,24.6,0,0,0-2.957-.595,7.153,7.153,0,0,1-1.994-.849c-.915-.365-1.686-1.079-2.586-1.5a5.851,5.851,0,0,1-1.671-1.241c-.377-.375-.7-.88-1.156-1.079-.537-.234-.534-.809-.977-1.086a8.612,8.612,0,0,1-1.453-1.255,10.182,10.182,0,0,1-1.311-1.5,27.569,27.569,0,0,0-2.264-2.562,4.082,4.082,0,0,1-.586-1.345c-.449-.651-1.263-1.039-1.481-1.867-.264-1-1.129-1.638-1.49-2.59-.12-.317-.65-.479-1.038-.742l.209-.272-.736-1.363-.61-.363c-.019-.341-.037-.668-.058-1.05-.368-.115-.754-.236-1.253-.353a1.157,1.157,0,0,1,.139-.009q-.055-.285-.112-.569l-.188.026a1.026,1.026,0,0,0,.161.553M785.354,118.461c-.724-.05-1.521-.13-1.955.7a4.634,4.634,0,0,0,1.919-1.087c.455.174.95.286,1.173-.47a1.941,1.941,0,0,0-1.137.856M1032.592,14.016l.056-.058-.2-.237-.092.092a2.092,2.092,0,0,0,.19.153l2.83,2.509a4.1,4.1,0,0,0-2.782-2.459M985.961,88.258l-.453.366,1.2.562.247-.651a3.972,3.972,0,0,1,2.481,1.3,2.217,2.217,0,0,1-.26,1.622c-.029.039.056.162.088.248l1.222.136-.932.447.986.528L989.384,93c.4,1.029,1.44,1.171,2.091,1.76a12.519,12.519,0,0,0,2.336,1.737c.77.421,1.267,1.347,2.29,1.346.03-.153.092-.267.058-.328-.5-.908-.857-1.885-1.322-2.8-.438-.861-.575-1.8-1.005-2.645-.287-.561-.629-1.1-.861-1.681-.25-.625-.369-1.3-.605-1.933-.219-.587-.554-1.131-.767-1.719a2.364,2.364,0,0,0-.613-1.215c-.214-.177-.257-.56-.346-.776l.342-.834a4.536,4.536,0,0,1-1.259-2.865c.012-.36-.318-.731-.515-1.144a23.412,23.412,0,0,0-.356-3,16.59,16.59,0,0,1-.568-3.84c0-.21-.177-.413-.225-.629a27.245,27.245,0,0,1-.64-3.521,16.394,16.394,0,0,0-.232-2.221,21.822,21.822,0,0,1-.332-4.233,7.125,7.125,0,0,0-.546-2.074c.027-.027.086-.057.092-.1a10.939,10.939,0,0,0-.008-3.8,3.105,3.105,0,0,1,0-1.913c.4-.641-.177-.958-.171-1.1l1.781-2.9,1.982-.272,1.173-1.171V48.124l-.574.886c-.58-.21-1.161.18-1.57-.356-.417.513-.979.2-1.42.282a1.954,1.954,0,0,0-1.97-.482L984.507,50.4a2.315,2.315,0,0,1-.491,1.817l1.027,2.908v3.7H983.7a6.044,6.044,0,0,0-1.215,1.116,4.673,4.673,0,0,1-2.027,1.805l-.95-.337a13.411,13.411,0,0,0-2.883,3.569,49.647,49.647,0,0,1-4.045,5.6c-1,1.151-2.145,2.165-3.112,3.362a19.167,19.167,0,0,1-2.426,3.1c-.244.2-.288.644-.424.974-.135.035-.32.026-.39.111-.531.647-1,1.353-1.567,1.963-.78.835-1.145,2.06-2.339,2.505-1.717,1.812-3.543,3.537-5.11,5.471-.886,1.094-1.735,2.211-2.711,3.233a22.344,22.344,0,0,0-1.487,1.857c-.036.046.033.172.053.262l3.814-.61,1.351-.472c.382-.133.937-.149,1.115-.416.512-.766,1.279-.829,2.037-1.062a22.927,22.927,0,0,0,2.96-.94c1.017-.469,2.091-.817,3.3-1.28l.381-.381.4-.4a3.923,3.923,0,0,1,1.323-2.227c.831-.7,1.546-1.526,2.446-2.169a6.94,6.94,0,0,0,1.218-1.579c-.1-1,.878-.951,1.452-1.328l-.563-.648.147-.144,1.122.549c.578,1.4.718,2.907,1.865,3.931a1.982,1.982,0,0,1,2.107-.123v-1.1l.563.376c.016.349.031.672.047,1.038,1.16.791,2.354,1.537,3.468,2.388a19.3,19.3,0,0,1,2.338,1.441M778.626,97.87l.4-.6.743.7.825-.824,2.572,3.317.3-.269,1.576,1.2h.779a12.943,12.943,0,0,0,2.233,1.041c.678.162,1.228.56,1.875.749.26.755,1.2.829,1.485,1.554v.632l-.783.332,1.133.825c-.019.216-.038.441-.066.768-.456-.59-.927-.331-1.4-.405.017.254.026.385.04.586,1.028-.288,1.153,1.012,2.121.948l-.777,1.518c.366.244.827.4,1.007.71.221.384.731.523.8.942.085.559.74.408.934.9.143.363.689.556,1.012.869.107.1.079.347.113.527-.733-.094-1.119-1.153-2.079-.779.259,1.153,1.568,1.259,1.994,2.041l-.234.555a20.97,20.97,0,0,1,1.557,1.717l-.383.433,1.2.934a3.489,3.489,0,0,0,1.549,1.931,10.926,10.926,0,0,0,1.321-3.92h-.551c-.2-.639.265-1.167.3-1.772.079-1.465.189-2.929.285-4.393.006-.1-.036-.215.006-.288a2.169,2.169,0,0,0,.008-2.244.569.569,0,0,1,.069-.533c.357-.328.191-.724.2-1.087.025-.873-.007-1.747.019-2.62a2.777,2.777,0,0,1,.258-.722l-.591-.463a2.368,2.368,0,0,0,.086-2.315c-.1-.17.1-.511.113-.775a7.32,7.32,0,0,0-.007-2.232,5.82,5.82,0,0,1-.122-2.542c.277-1.789.36-2.059-.06-3.323l.477-.938c-.126-.741-.224-1.313-.338-1.978-.046.046.082-.022.082-.091.012-1.3.009-2.592.009-3.911l-.69-.743h-1.58c.095-.128.143-.2.2-.263.03-.038.085-.065.1-.105.007-.025-.047-.067-.113-.153H797.16a1.082,1.082,0,0,1-.333-1.442,4.527,4.527,0,0,0,.157-.605c-.794.012-1.247.905-2.028.472l1.475-.844q-.024-.1-.048-.206h-.844l.269-.458c-.57-.425-1.05.081-1.568.175-.534.1-1.056.26-1.583.394-.353.593-.353.593-.037,1.2l-.273.3.254.3a2.949,2.949,0,0,1-2.082,1.016,13.289,13.289,0,0,0-2,.455,10.548,10.548,0,0,0-3.255,1.282c-3.254.9-6.317,2.376-9.591,3.235-.615.161-1.39.3-1.72,1.059a12.1,12.1,0,0,0,.235,2.2,5.835,5.835,0,0,1-.317,2.118c-.508.33-.991.672-1.5.968s-1.043.543-1.706.884a5.115,5.115,0,0,1-1.61-.22c-.567-.253-1.39.11-2-.09-1.018-.331-2.21-.252-3-1.244a1.828,1.828,0,0,1-2.456-.144h-1.375l-.367,1.1.728.437v2.752l.689.4c.4.859.733,1.592,1.053,2.288l-.605,1.077c.091.4-.244.972.234,1.345-.6,1.142.114,2.456-.471,3.6l.588.884c2.192-.259,4.11-1.217,6.308-1.46a12.519,12.519,0,0,0,4.147-3.916v-1.181l.877-.726.8.687a2.851,2.851,0,0,0,1.583-1.3c-.193-.325-.4-.68-.614-1.035,1.094.86,2.063-.36,2.862-.065l1.183-1.135Zm45.945-30c1.325-.452,2.582-1.058,3.865-1.591a42.539,42.539,0,0,1,4.493-1.818,45.094,45.094,0,0,0,4.57-1.986c1.494-.614,2.862-1.532,4.353-2.156,1.562-.654,2.879-1.7,4.368-2.467a42.736,42.736,0,0,0,3.729-2.254c1.306-.854,2.582-1.758,3.846-2.674.9-.655,1.781-1.351,2.644-2.06.411-.337.762-.748,1.139-1.125.344-.343.633-.861,1.043-.988.6-.186.589-.768.988-1.07a11.333,11.333,0,0,0,2.567-3.153,5.84,5.84,0,0,0,1.024-2.777c.032-.595.133-1.186.225-1.977a9.886,9.886,0,0,0-1.636-2.3,13.933,13.933,0,0,0-3.6-2.226c-.2-.1-.433-.135-.627-.243-.909-.505-1.835-.987-2.7-1.554a4.8,4.8,0,0,0-1.519-.581c-.58-.15-1.33-.155-1.645-.836h-1.17l-1.839-1.088-.277.281a5.308,5.308,0,0,0-2.124-.777,13.391,13.391,0,0,1-1.369-.218,9.337,9.337,0,0,0-2.431-.75c-.845.01-1.664-.848-2.521-.107-.005,0-.121-.174-.2-.19a20.5,20.5,0,0,0-5.713-.645,3.047,3.047,0,0,1-1.442-.025c-.979-.463-1.943-.135-2.868-.283-.267.418-.618.722-.628,1.036a6.791,6.791,0,0,1-.323,1.479,1.413,1.413,0,0,0,0,.722c.252.815.551,1.615.821,2.425.086.257.062.595.223.775a9.861,9.861,0,0,1,1.286,2.24c.248.484.628.9.849,1.4a6.463,6.463,0,0,1,.514,1.675,14.538,14.538,0,0,0,1.094,2.757c.147.41-.035.868.265,1.2.614.672.435,1.492.488,2.278a4.521,4.521,0,0,0,.172,1.378,8.142,8.142,0,0,1,.057,2.433l-.624.216.615,1.862L833.414,53.6V54.69a2.358,2.358,0,0,1-2.067-.426V52.825l-1.3-.636-.421.42-2.127.519.3.527-.194.922.877.552v1.5l.491.514c.135.579.239,1.023.352,1.5l-1.051,1.33h-.659l-1.166-1.008c-.035-2.961.048-3.643.58-4.8-.421-.879-.274-2.049-1.435-2.615-.422.736-.3,1.711-.956,2.3a1.684,1.684,0,0,1,.2,1.792,1.334,1.334,0,0,0,.068,1.511,2.963,2.963,0,0,0-.2.809,62.651,62.651,0,0,1-.311,6.867,6.8,6.8,0,0,1-.215.78,2.284,2.284,0,0,0-.054.844,14.247,14.247,0,0,0,.44,1.4m103.573,1.8a5.35,5.35,0,0,0-.207.756,8.319,8.319,0,0,1-.079,1.136,15.819,15.819,0,0,0-.525,2.551,8.355,8.355,0,0,1-.4,1.869c-.5,1.446-1.019,2.881-1.463,4.348a11.28,11.28,0,0,1-1.6,3.414,3.867,3.867,0,0,0-.587,1.351,8.887,8.887,0,0,1-.953,1.94,18.8,18.8,0,0,0-1.741,3.8,9.8,9.8,0,0,1-1.393,2.943l1.531,1.753h1.252c1.4-.373,1.786-1.569,2.717-2.149.112-.686.782-.93,1.128-1.427s.61-1.014.949-1.5a11.869,11.869,0,0,0,1.1-1.442,4.462,4.462,0,0,1,2.1-1.936,4,4,0,0,0,2.01-2.71,7.887,7.887,0,0,1,1.1-2.323c.442-.742,1.369-1.187,1.316-2.178l.542-.181v-.508c.233-.238.415-.4.573-.587.856-1,1.337-2.326,2.483-2.874l.464-1.689.734-.081,1.279-1.277a3.135,3.135,0,0,0,0-.395c-.058-.468.486-.218.567-.469a4.642,4.642,0,0,1,1.725-2.04,18.805,18.805,0,0,0,1.261-1.5c.564-.586.813-1.479,1.7-1.752a36.66,36.66,0,0,1,2.615-3.216v-.35l-1.773-2.472V59.248a3.094,3.094,0,0,0-.782-.392c-.379-.061-.789.047-1.159-.035a1.5,1.5,0,0,0-.944-.023,1.855,1.855,0,0,1-1.233-.111,2.3,2.3,0,0,0-1.631.008c-1.035.473-1.91-.206-2.863-.193-.035,0-.069-.064-.1-.1v-.332c-.685-.19-1.392-.349-2.073-.585-.724-.251-1.417-.56-2.164-.776a3.3,3.3,0,0,0-2.337.122c-.721-1.166-2.428-.835-3.118-2.012l-.906.733a5.606,5.606,0,0,1,.392,2.835c0,.291-.123.707.022.852.577.571.041,1.368.515,2,.217.289-.068.954-.139,1.567a5.267,5.267,0,0,1,.483,2.113c-.118,1.025-.2,2.054-.3,3.081,0,.038-.058.072-.089.108l-.394.1-.4,1.338.811.125m41.207-29.312c-.249.232-.35.409-.449.408-1.544-.016-2.907.757-4.41.99-1.712.265-3.2,1.422-4.961,1.683-.76.9-2.085.64-2.9,1.417a23.664,23.664,0,0,0-5.582,2.327.685.685,0,0,1-.249.077l-.418,1.148c.8,1.2.554,2.585.593,3.968l2.917,3.491v.5l.485.484,1.268-1.662c1.039-.15,1.026-1.528,2.022-1.728-.031-.773.816-.662,1.118-1.11a9.907,9.907,0,0,1,1.762-1.9c.594-.52,1.122-1.238,1.721-1.774.731-.653,1.2-1.528,1.989-2.108a2.665,2.665,0,0,0,.421-.547,17.774,17.774,0,0,1,3.513-3.518,2.467,2.467,0,0,0,1.164-2.15m-19.7,21.677c.616-.713,1.19-1.381,1.768-2.046.63-.724,1.262-1.446,1.842-2.109l-.447-.854h-1.189l-.186-.5-1.611.391c-.034.167-.061.3-.1.469h-1.072c-.825.338-.56.873-.59,1.323a3.59,3.59,0,0,1,1.22,2.966l.36.36m261.989-45.47c-.983.148-.913,1.03-1.309,1.524-.435.543-.847,1.1-1.208,1.578-.1.464-.19.848-.284,1.264l.628.932c1.311-1.373,1.425-3.192,2.19-4.713.07-.139-.006-.351-.016-.585M966.373,91.213c-.031-.686.709-1.065.582-1.9-1.587.676-3.069,1.3-4.542,1.95-.066.029-.05.246-.089.478,1.408.114,2.616-.85,4.048-.527m28.371,8.807a7.1,7.1,0,0,0,3.5,2.113,21.618,21.618,0,0,0-2.254-1.894c-.282-.183-.753-.661-1.249-.22m-117.87,27.689c.614.557,1.089,1.291,2.016,1.3l-1.956-1.954c-.014.157-.031.338-.059.65M864.3,125.816c.232.9.951,1.206,1.464,1.908v-1.218l-1.464-.69m3.446,3.491c-.456-.593-.583-1.44-1.37-1.763l-.327.232a3.368,3.368,0,0,0,1.7,1.531m119.091-38.7c.587-.3,1.006-.681,1.6-.625.043,0,.114-.289.2-.519h-1.07c-.243.231-.5.456-.728.7-.048.051-.007.185-.007.44M869,129.669c-.36.025-.87-.333-.843.481H869Zm310.247-3.779a1.789,1.789,0,0,0,0,1.646Zm-150.9-84.956c-.056.289-.087.451-.13.673h1.046l-.917-.673M871.334,127.766l-.6.247a1.45,1.45,0,0,0,.6.642Zm94.316-15.774c-.648-.261-1-.124-1.346.539l1.346-.539m-96.578,11.661.675-.922-.675-.124Zm302.566.432v-.618l-.529.107c.042.2.076.364.106.511ZM992.35,47.776c-.651-.026-.655.215-.429.6l.429-.082Zm179.408,77.04c-.369.115-.893.264-.439.784l.439-.784M797.329,80.662c-.047-.254-.07-.383-.1-.566l-.374.566Zm-6.955-5.035c.772.047.772.047.68-.34l-.68.34m382.265,52.78.252-.031-.114-.474-.138.022Zm-174.529-25h-.1v.291h.1Zm-125.2,23.01h.1v-.291h-.1Zm304.926,3.107h.292v-.1h-.292Z" transform="translate(-650.597 0.003)" fill="#fff"/><path d="M100.326,83.879h-.673c-.5-.254-.656-.99-1.4-.818-.133-.379-.26-.77-.934-.527a5.194,5.194,0,0,0,.934.527,5.645,5.645,0,0,1,.619.818c-.694.057-.989-.618-1.545-.845a13.226,13.226,0,0,0-2.03-1.051,2.128,2.128,0,0,1-1.281-.474l-1.6.78a2.159,2.159,0,0,1,.641-.906c-.723-.479-1.31-1.218-2.291-1.015l-.137-.528h-.95l-1.684.544a4.272,4.272,0,0,0-.514.167c-1.3.613-2.595,1.243-3.9,1.846a2.848,2.848,0,0,0-1.672,1.3c-.216.444-.93.646-1.5,1.01l.619.762c1.525-.63,3.074-1.236,4.594-1.906,1.479-.652,2.93-1.37,4.5-2.107l1.047,1.027c-1.308.467-2.322,1.179-3.566,1.511a36.452,36.452,0,0,0-3.421,1.576c-1.173.451-2.36.878-3.553,1.283s-2.3,1.019-3.585,1.609l-.117.721c-1.02.452-2.062,1-3.162,1.383-2.122.742-4.216,1.549-6.3,2.4-1.122.46-2.24.934-3.365,1.376-2.266.89-4.42,2-6.6,3.061-.154.075-.259.252-.463.458,1.414,1.342,3.42,1.416,4.66,2.618l2.25-.368c.426.426.75.792,1.117,1.108a27.523,27.523,0,0,1,3.77,4.706c.355.473.605,1.027.978,1.483.69.844,1.441,1.638,2.154,2.462,1.174,1.356,2.437,2.651,3.469,4.109.6.853,1.106,1.779,1.764,2.619a23.123,23.123,0,0,1,1.56,2.694c.233.4.511.773.742,1.119a11.508,11.508,0,0,1,.672,2.361,10.513,10.513,0,0,1-.347,2.351c-.244.9-.911,1.2-1.839,1.318a2.338,2.338,0,0,0-2.033,1.264l-1.809-.785v1.644l-1.182.456c-.641,5.206-.2,10.363-.332,15.506.526,2.174.05,4.406.345,6.571a17.333,17.333,0,0,0,.785,4.612,10.591,10.591,0,0,1,.273,1.914c.172.857.5,1.658.744,2.475a1.791,1.791,0,0,1-.2,1.877c1.771,1.792,1.172,4.049,1.27,6.26l.578.45v1.849l.594.587c-.094.939.227,1.971-.516,3.2l.979-.372L77.9,175.6l-.856-.344.133.916-.7.5c.077.041-.025.022-.049-.032-.239-.533-.465-1.071-.72-1.667l-.788.387-.434-.286c-.218.389-.054.66.152,1.022.167.293.034.757.034,1.146v1.193l-.467.163-.264-1.194-.226,1.139h-.436l-.109-1.113-.466-.064-.135.84c-.088-.036-.2-.05-.214-.094-.126-.431-.235-.867-.376-1.409-.442.655,0,1.122.031,1.616.024.423-.172.873-.158,1.394a6.961,6.961,0,0,1-.379-.753c-.122-.333-.2-.682-.292-1.019l-1.587.382-.59-1.588a2.24,2.24,0,0,0-.5,2.836l-.394.447c-.282-.79-1.068-1.285-1.079-2.22,0-.266-.489-.527-.911-.947l-.349.8.5.529c-.9.918.112,1.918-.078,2.919-1-.838-.538-2.218-1.227-3.178l-.423.383a4.083,4.083,0,0,1,.206.638,7.693,7.693,0,0,1,.008.982l-.759-1.061c-.419.581.41,1.076.172,1.632-.221.515.751,1.041.01,1.629a3.72,3.72,0,0,1-.578-2.587c-.283-.325-.576-.661-.868-1-.25-.289-.5-.579-.756-.876-.519.89.221,1.722.147,2.617a8.562,8.562,0,0,1-2.084-1.732,6.68,6.68,0,0,0-1.8-1.681,8.682,8.682,0,0,0-3.006-1.874c-.351-.1-.7-.216-.969-.3l-.879.644v-1.194c-1,.121-.919,1-1.311,1.484h-.635c-.282.42.212,1.2-.651,1.445-.1-.9.434-1.646.567-2.63-.405.174-.578.508-.839.68l-.131,1.247-.418-.86a2.226,2.226,0,0,0-.368.388,13.907,13.907,0,0,1-1.463,2.352c-.105-.841.507-1.412.776-2.113.161-.42.679-.817.211-1.439l-.987.64a4.845,4.845,0,0,1,.32-1.031,25.916,25.916,0,0,0,2.018-4.275l-.766-1,1.233-.134c.4-.616-.152-.913-.528-1.358h1.043l.528-1.05-.74-1.577c.755.13.91.737,1.257,1.372l.895-1.691c.093-.364-.193-.893.246-1.382.146-.163-.18-.634,0-1.053a3.5,3.5,0,0,0,.033-1.3,9.355,9.355,0,0,0-.01-1.164,8.229,8.229,0,0,0-.284-1.19,3.422,3.422,0,0,0-.391-1.141c-.282-.37-.077-.753-.2-1.088s-.455-.6-.546-.935a4.275,4.275,0,0,1-.022-1.117l-.59-.589c.235-2.414-.968-4.629-1.192-7.016l-.515-.515c-.03-.108-.023-1.922-.043-2.073a4.422,4.422,0,0,0-.152-1.392,3.057,3.057,0,0,1,0-1.64,15.29,15.29,0,0,0,.015-4.679,1.245,1.245,0,0,0-.185-.361l.275-.336c-.491-1.786-.133-3.607-.227-5.406-.008-.156.157-.32.2-.4a3.693,3.693,0,0,1-.2-.812c-.018-1.6.024-3.2-.022-4.8-.027-.933-.219-1.86-.268-2.792s-.037-1.845,0-2.766c.023-.6-.2-1.227.264-1.787a.868.868,0,0,0,.007-.709c-.628-1.634-.128-3.324-.263-4.981-.015-.181.213-.381.318-.557-.318-.395-.547-.2-.728.037-.3.405-.578.832-.671.969l-2.876.944.042.163c-1.161,0-2.328.075-3.482-.019a19.337,19.337,0,0,1-4.269-.932,22.976,22.976,0,0,0-3.481-1.135,8.139,8.139,0,0,1-2.171-1.063,1.255,1.255,0,0,0-.3-.06,9.228,9.228,0,0,1-.831,1.347,8.187,8.187,0,0,1-1.175.955l-.806-.421c-.7-.6-.044-1.524.023-2.576l-1.782,1.3-.561-.326c-1.524,1.065-4.163,2.4-6.6,2.029l-1.137-1.136H17.082A19.807,19.807,0,0,0,12,107.458a13.483,13.483,0,0,1-2.908-1.8,12.7,12.7,0,0,0-1.866-1.1c-1.089-.66-2.169-1.335-3.249-2.01a4.208,4.208,0,0,0-.919-.593,2.363,2.363,0,0,1-1.893-2.7A10.193,10.193,0,0,1,0,95.6c.449-.753.833-1.324,1.14-1.933a7.905,7.905,0,0,1,1.028-1.909c.134-.149.1-.436.181-.647A22.9,22.9,0,0,1,3.777,87.91V86.583l2.931-2.519V83.33l1.233-1.16-.318-.941L8,80.384a2.925,2.925,0,0,0,.668-.011,3.139,3.139,0,0,0,.638-.311v-1.28l1.115-.372.411.333a4.963,4.963,0,0,1,2.526-1.64c1.24-1.489,3.395-2.282,4.062-4.475l.324-3.972a7.233,7.233,0,0,1,2.131-1.706c.463-.207.762-.782,1.132-1.194a8.4,8.4,0,0,1,2.408-2.177c.637.364,1.347.134,2.074.224.7.279,1.3.938,2.213.872a1,1,0,0,1,.735.294,6.6,6.6,0,0,0,2.117,1.419,1.532,1.532,0,0,0,1.007,1.5,1.155,1.155,0,0,1,.838,1.05,1,1,0,0,0,.336.578,5.187,5.187,0,0,1,1.112,2.019,8.55,8.55,0,0,0,.582,1.048v2.229a3.911,3.911,0,0,0,2.088-.234c1.065-.477,2.272-.631,3.286-1.207a21.652,21.652,0,0,1,2.573-.835,23.383,23.383,0,0,0,3.3-1.186A25.394,25.394,0,0,1,50.2,69.608c.421-.157.844-.306,1.587-.574a2.078,2.078,0,0,0,1.724-.582,2.921,2.921,0,0,0,1.693-.492c.479-.233,1.089-.189,1.578-.408.993-.444,2.127-.452,3.069-1.044a1.032,1.032,0,0,1,.681-.093c.826.156,1.545-.381,2.348-.33.27-.416.693-.248,1.057-.258,1.118-.03,2.268.147,3.266-.565a5.736,5.736,0,0,0,3-.871c.293-.164.755-.026,1.109-.026l.54-.539a6.948,6.948,0,0,0,2.835-.917,4.414,4.414,0,0,0,1.371-.931,2.8,2.8,0,0,1,1.006-.718c2.412-.915,1.89-.745,3.411-2.261l.636-.635c.491-.158,1-.168,1.242-.428a3.252,3.252,0,0,1,2.868-.854c.1.006.194,0,.34,0,.618-.609,1.935-.52,1.959-1.895.451-.222,1.059-.4.824-1.138a2.179,2.179,0,0,1,2.434-.023,11.285,11.285,0,0,1,3.82,2.733c.593.633,1.414.966,1.894,1.8a7.326,7.326,0,0,0,1.894,1.672c.321.259.681.47,1.061.727v.951l1.15.523v1.323a6.287,6.287,0,0,0,1.3.585c.507.1.818.28.759.818-.056.52-.4.7-.9.671-.093-.005-.195.134-.441.316.712.32,1.184.821,1.959.4a5.243,5.243,0,0,1,1.385-.223c-1.036.689-1.792,1.128-2.707.934l-1.278,1.277c.8.763.962.726,1.519-.356h2.433l.048.149-1.582.624,1.885.112.023.2-2.053.493-.464.511.737.3c-.6.644-.133,1.2.225,1.671.662.863,1.435,1.641,2.146,2.468q1.61,1.877,3.188,3.78c.072.087.01.284.01.43-.194,0-.389,0-.6.015.006,0,.025-.023.044-.042l-.2-.238-.092.092a1.623,1.623,0,0,0,.252.188c.585.631,1.156,1.278,1.779,1.983-.856.164-.918-.907-1.782-.816.261.3.485.538.676.8a7.021,7.021,0,0,0,.522.791,3.594,3.594,0,0,1,1.35,2.119l-.362.379c-.536-.345-1.332-.19-1.709-.893l-.459.351-2.7-2.19-.425.748.206.8-1.4-.675c-.146.671.443,1.022.415,1.545-.476.021-.611-.287-.778-.649a3.78,3.78,0,0,0-.653-.775h-1.079v.554H99.972l.355.874M50.162,102.3c-1.194-.308-1.061.678-1.49,1.107a2.225,2.225,0,0,1,.547,2.182,3.887,3.887,0,0,0-.22,1.066c-.064.4-.152.793-.25,1.3l.749.52a35.619,35.619,0,0,1,1.629-4.749l-.966-1.42m54.2-20.928.193.192.452-.086-.137-.727-.509.622m-2.581-16.235h.292v-.1h-.292Z" transform="translate(0 -47.754)" fill="#fff"/><path d="M5048.1,375.943V374.1l-.541-.562c-.423,1.051.432,1.916.113,2.942-.341-.223-.693-.452-1.083-.71v-1.744c-.14-.134-.3-.3-.5-.492l-.518.289c-.394-.594-.817-1.222-1.323-1.989.191-1.284-.763-2.4-1.392-3.722l-.641-.1c.266-1.148.517-2.242.773-3.338-.068-.518-.128-1.064-.215-1.6s-.206-1.061-.3-1.58l.706-.256-.8-.483c.049-.078.095-.156.144-.234l.97.26a1.238,1.238,0,0,0,.293-.278c.441-.685.755-1.441,1.192-2.139a15.221,15.221,0,0,0,.663-1.9,3.406,3.406,0,0,1,.514-.955,1.114,1.114,0,0,0,.3-.595c.06-.9.68-1.576.92-2.389.229-.779.319-1.588.6-2.374a13.107,13.107,0,0,0,.159-1.984,20.371,20.371,0,0,0,.745-2.156c.181-.766.177-1.572.321-2.349a7.22,7.22,0,0,0,.284-2.066,5.043,5.043,0,0,1,.476-1.838,5.756,5.756,0,0,0,.117-1.228,23.545,23.545,0,0,0,.847-2.451c.253-1.2.888-2.26,1.221-3.429.16-.562.338-1.121.55-1.666a4.345,4.345,0,0,1,.6-1.2,3.221,3.221,0,0,0,.8-1.981,10.475,10.475,0,0,1,.736-3.071c.307-1.14.62-2.276.988-3.617.45-.52.433-1.438.631-2.26a2.821,2.821,0,0,1,.464-1.117,4.83,4.83,0,0,0,.761-2.027,9.192,9.192,0,0,1,.731-2.758c.286-.474.245-1.123.52-1.675a11.154,11.154,0,0,1,.76-1.432,6.58,6.58,0,0,0,.858-2.549c.271-1.48.8-2.879,1.2-4.3-.107-.12-.205-.225-.3-.331.1-.3.2-.6.3-.9a6.649,6.649,0,0,1,.248-.771c.866-1.884.678-3.89.6-5.855a4.381,4.381,0,0,1,.675-2.99c1.066-.2,2.127-.749,3.139-.049a1.01,1.01,0,0,0,.621-.946,1.684,1.684,0,0,1,.527-.93,1.094,1.094,0,0,0,.3-1.03c.227-.021.4.014.5-.055a23.315,23.315,0,0,1,2.586-1.152c.7-.388.717-.368,1.1-1.091l2.319-.639,2.049.848a3.611,3.611,0,0,1,1.174-.266,8.252,8.252,0,0,0,3.532-.649,5.528,5.528,0,0,1,1.06-.252c.549-.067,1.141.21,1.646-.266.1-.092.436.059.662.111.618.145,1.214.364,1.844.5a4.614,4.614,0,0,1,2.277,1.094,11.843,11.843,0,0,0,1.618,1.18h1.719a4.47,4.47,0,0,1,1.348,2.189c-.371.18-.694.338-1.1.537l-1,1.579c.358.887-.582,1.572-.547,2.444a9.854,9.854,0,0,1-.581,2.385,27.192,27.192,0,0,0-.293,2.712l-.559.163a5.038,5.038,0,0,0-.286,1.7,4.332,4.332,0,0,0,.273,1.182,5.326,5.326,0,0,1,.279,1.494,14.741,14.741,0,0,0,.522,2.694c.146.324,0,.766.056,1.146a6.892,6.892,0,0,0,.28,1.046c.062.216.142.428.2.644a4.668,4.668,0,0,1,.333,2.393c-.311.656-.659,1.388-1.121,2.361a2.424,2.424,0,0,1-.04,1.141c-.208.429-.386.728-.013,1.16a8.011,8.011,0,0,0-.812,1.029,3.214,3.214,0,0,0-.337,3.144,3.886,3.886,0,0,1,.359,1.9,6.018,6.018,0,0,0,.333,1.628h-.838q-.773-.768-1.542-1.542c-.045-.708-.045-.708-.65-1.834-.287-.114-.625-.247-.959-.374a1.418,1.418,0,0,0-.292,0l-.62.583h-1.176c-.744,1.606-1.535,3.18-1.261,5.005-.465.618-.915,1.212-1.26,1.664a16.886,16.886,0,0,0-.941,2.684c-.116.672-.768,1.04-.753,1.742a2.448,2.448,0,0,1-.813,1.559,3.15,3.15,0,0,0-.341,1.017c-.094.3-.33.638-.258.889.108.369-.549.611-.095.959a19.716,19.716,0,0,0-.922,2.481c-.692,2.087-1.5,4.137-2.227,6.212-.1.294-.3.554-.435.84a71.979,71.979,0,0,0-2.783,6.713,14.562,14.562,0,0,1-1.036,2.047,6.249,6.249,0,0,0-.956,4.076c-.96,1.35-1.207,2.943-1.763,4.409-.311.8-.262,1.751-.641,2.5a27.811,27.811,0,0,0-1.1,3.768c-.195.59.073,1.314-.32,1.907-.08.117-.17.224-.319.418v1.182l-1.117.713a2.688,2.688,0,0,1-.563,1.82c-.652-.57-.057-.994-.03-1.5l-.54-.14v1.152l-1.706.085c-.159.684-.316,1.346-.473,2.007a2.133,2.133,0,0,1,.115-2.075c-.056-.1-.071-.167-.1-.173-.223-.041-.452-.07-.734-.111-.049.31-.09.578-.135.87h-.809v-1.074l-.5-.08c-.362,1.478-.728,2.967-1.089,4.455l.139.037q-.2.259-.407.517c-.093-.673-.355-1.26.017-1.854.292-.466-.128-1.122.348-1.57-.638-.57-.111-1.114.1-1.8-.265.032-.581,0-.62.085-.366.817-1.143,1.467-.88,2.718-.717-1.01.072-1.739-.042-2.533h-1c-.174.285-.341.558-.515.843-.1-.085-.206-.134-.209-.186-.017-.384-.007-.769-.007-1.3-.292.1-.521.176-.758.254l-.571-.3c-.09.249-.146.417-.257.731-.117-.271-.188-.441-.3-.705l-.716.38v1.524c-.191.2-.327.337-.469.48-.427-.142-.858-.283-1.334-.44.2-.878.386-1.762.6-2.738l-.922-.047c.125.532.222.951.331,1.409l-.522.093c-.025-.492-.045-.952-.074-1.584-.251.163-.515.248-.526.362a1.285,1.285,0,0,1-.292.77c-.124.143-.026.477-.026.725l-.213-.008" transform="translate(-4486.952 -254.18)" fill="#fff"/><path d="M4318.01,178.091l.571.328c.078.145.231.417.417.754-.078.119-.175.271-.292.445a4.678,4.678,0,0,1-.194,3.693l-2.209-.4c-.254-.306-.623-.747-1.047-1.252-.922.613-1.448,1.827-2.724,1.563-.33-.35-.66-.7-1.117-1.183v-.552c.558-.554,1.1-1.1,1.661-1.658a10.2,10.2,0,0,1,2.08,1.113c.782-.274.545-.886.594-1.21l2.262-1.646" transform="translate(-3836.63 -158.479)" fill="#fff"/><path d="M3286.535,36.54c.194.5.434.305.682.047.349.239.7.479,1.067.728V38c-.048,0-.1,0-.145,0-.605-.042-.917-.722-1.66-.638-.445.05-.977-.412-1.423-.71a9.759,9.759,0,0,0-1.444-1.1c-1.211-.495-2.088-1.709-3.552-1.633a8.656,8.656,0,0,0-2.24-1.278c-.2-.1-.4-.2-.767-.391a5.327,5.327,0,0,1,2.144.172,18.855,18.855,0,0,1,5.563,2.777c.293.21.615.377.939.573-.116.117-.184.185-.364.363l1.2.406" transform="translate(-2916.177 -28.668)" fill="#fff"/><path d="M2508.125,169.1a17.6,17.6,0,0,1-1.723.494c-.226.043-.5-.149-.768-.242v-1.712l.937-.61a2.25,2.25,0,0,1,1.555,2.07" transform="translate(-2229.707 -148.639)" fill="#fff"/><path d="M5522.061,327.963c-.339-.45-.56-.742-.813-1.076,0-.4-.151-.911.431-1.224h1.871a3.335,3.335,0,0,1-.658,2.3Z" transform="translate(-4913.221 -289.8)" fill="#fff"/><path d="M2193.844,1218.752a15.031,15.031,0,0,1-3.687-4.131,1.654,1.654,0,0,1-.1-.53c.944.38,1.213,1.381,1.855,2.042.607.624,1.121,1.35,1.726,1.991.137.146.145.415.21.627" transform="translate(-1948.878 -1080.393)" fill="#fff"/><path d="M2526.331,127.026h.515c.321.341.576.611.852.9-.092.2-.216.485-.358.807h-1.031a5.913,5.913,0,0,1,.023-1.71" transform="translate(-2248.061 -113.037)" fill="#fff"/><path d="M786.543,297.816l-4.291,1.837a3.011,3.011,0,0,1,1.686-1.323c.855-.192,1.615-.8,2.605-.514" transform="translate(-696.109 -264.952)" fill="#fff"/><path d="M4260.808,223.017l.75-.36c.556.743.556.9-.019,1.686-.355-.349-.873-.589-.731-1.326" transform="translate(-3791.576 -198.137)" fill="#fff"/><path d="M2148,1232.121l.354-.208c.365,1.092,1.593,1.495,1.951,2.51l-2.305-2.3" transform="translate(-1911.456 -1096.252)" fill="#fff"/><path d="M2028.7,1226.973c.743.585,1.39,1.1,2.2,1.741-.444,0-.807.108-.937-.02-.477-.468-1.291-.689-1.268-1.721" transform="translate(-1805.295 -1091.856)" fill="#fff"/><path d="M2518.918,108.12c.607.715.607.715.128,1.456l-.78-.381a.872.872,0,0,1,.652-1.074" transform="translate(-2240.929 -96.213)" fill="#fff"/><path d="M3152.714,982.032c-.422-.5-1.42-.123-1.406-1.261l.822.688.583-.315Z" transform="translate(-2804.279 -872.766)" fill="#fff"/><path d="M2069.7,1196.742h-.49l-.969-1.164c.8,0,1.08.644,1.458,1.164" transform="translate(-1840.484 -1063.918)" fill="#fff"/><path d="M477.279,1156.2a1.658,1.658,0,0,1-.9,1.879l.9-1.879" transform="translate(-423.922 -1028.872)" fill="#fff"/><path d="M3360.491,58.258c.6.1,1.192.213,1.457.874-.6-.1-1.193-.214-1.457-.874" transform="translate(-2990.425 -51.842)" fill="#fff"/><path d="M2142.389,1174.419c.469.256.919.526.876,1.166h-.293l-.291-.292c-.1-.1-.2-.193-.292-.291Z" transform="translate(-1906.464 -1045.089)" fill="#fff"/><path d="M2089.307,1227.82l.809.823c-.5-.027-.766-.241-.809-.823" transform="translate(-1859.227 -1092.609)" fill="#fff"/><path d="M3379.028,52.955a1.338,1.338,0,0,1,1.167.583h-.748c-.123-.172-.271-.378-.42-.583" transform="translate(-3006.922 -47.122)" fill="#fff"/><path d="M3262.162,23.8c.771.018,1.268-.094,1.492.672l-1.492-.672" transform="translate(-2902.925 -21.18)" fill="#fff"/><path d="M3942.843,915.63c-.055-.445.3-.623.747-.756-.281.286-.548.555-.747.756" transform="translate(-3508.642 -814.125)" fill="#fff"/><path d="M3161.888,970.746a1.336,1.336,0,0,1,1.165.583h-.746c-.126-.172-.272-.378-.419-.583" transform="translate(-2813.694 -863.843)" fill="#fff"/><path d="M3382.55,72a.718.718,0,0,1-.875-.583.718.718,0,0,1,.875.583" transform="translate(-3009.277 -63.549)" fill="#fff"/><path d="M3339.306,44.972a.718.718,0,0,1,.875.583.718.718,0,0,1-.875-.583" transform="translate(-2971.572 -40.013)" fill="#fff"/><path d="M4688.037,1155.843a.715.715,0,0,1-.873.582.715.715,0,0,1,.873-.582" transform="translate(-4171.003 -1028.552)" fill="#fff"/><path d="M3394.916,79.356a.722.722,0,0,1,.877.583.719.719,0,0,1-.877-.583" transform="translate(-3021.059 -70.61)" fill="#fff"/><path d="M3352.547,52.907a.718.718,0,0,1,.875.583.718.718,0,0,1-.875-.583" transform="translate(-2983.357 -47.074)" fill="#fff"/><path d="M2183.1,1203.544c-.435-.1-.827-.223-.584-.9.239.366.41.632.584.9" transform="translate(-1942.106 -1070.21)" fill="#fff"/><path d="M3244.224,10.248l.759-.618c.056.279.082.408.125.618Z" transform="translate(-2886.962 -8.569)" fill="#fff"/><path d="M2230.763,1282.892c-.435-.1-.826-.223-.582-.9l.582.9" transform="translate(-1984.521 -1140.818)" fill="#fff"/><path d="M3373.731,66.132a.719.719,0,0,1,.876.583.72.72,0,0,1-.876-.583" transform="translate(-3002.208 -58.843)" fill="#fff"/><path d="M4677.338,1097.781l-.684.443c-.014-.195-.025-.352-.04-.556l.578-.042c.049.052.1.1.146.155" transform="translate(-4161.615 -976.753)" fill="#fff"/><path d="M758.227,320.172l-.686.443c-.013-.195-.024-.352-.038-.556l.576-.042.147.155" transform="translate(-674.085 -284.776)" fill="#fff"/><path d="M2975.742,974.152l.621-.388c.066.371.158.719-.621.388" transform="translate(-2648.047 -866.53)" fill="#fff"/><path d="M4782.834,1181.574c.14.226.252.406.387.62-.369.065-.719.156-.387-.62" transform="translate(-4256.019 -1051.455)" fill="#fff"/><path d="M3260.259,19.35c-.133-.206-.267-.413-.443-.686l.555-.037c.018.233.029.405.043.577l-.156.146" transform="translate(-2900.838 -16.575)" fill="#fff"/><path d="M5111.6,1119.6c-.139-.227-.252-.406-.389-.621.372-.065.723-.155.389.621" transform="translate(-4548.352 -995.717)" fill="#fff"/><path d="M5206.2,116.376c.018.186.029.371.049.557l-.187.026c-.038-.19-.075-.38-.114-.569l.252-.013" transform="translate(-4632.658 -103.56)" fill="#fff"/><path d="M433.987,1159.255l.2-.706a2.361,2.361,0,0,1,.126.407c.006.042-.1.1-.327.3" transform="translate(-386.195 -1030.967)" fill="#fff"/><rect width="0.583" height="0.146" transform="translate(233.009 142.51)" fill="#fff"/><rect width="0.583" height="0.146" transform="translate(228.343 139.306)" fill="#fff"/><path d="M2100.2,1246.316v.484l-.145.019-.105-.486.25-.017" transform="translate(-1868.697 -1109.068)" fill="#fff"/><path d="M2092.1,1240.471q.024.28.048.559l-.19.023c-.036-.189-.075-.378-.11-.568l.252-.014" transform="translate(-1861.485 -1103.867)" fill="#fff"/><path d="M3422.927,86.943l.706.2a2.427,2.427,0,0,1-.408.126c-.041.006-.1-.1-.3-.327" transform="translate(-3045.986 -77.368)" fill="#fff"/><path d="M954.943,332.921l.706.2a2.438,2.438,0,0,1-.409.126c-.042.006-.1-.1-.3-.327" transform="translate(-849.783 -296.258)" fill="#fff"/><path d="M3408.738,87.61c-.22-.044-.558.144-.583-.291.22.044.559-.144.583.291" transform="translate(-3032.841 -77.699)" fill="#fff"/><path d="M2124.3,1201.612v-.484l.144-.02c.035.162.07.325.106.488l-.25.016" transform="translate(-1890.372 -1068.839)" fill="#fff"/><path d="M3403.444,84.964c-.221-.044-.558.145-.584-.291.221.044.559-.145.584.291" transform="translate(-3028.13 -75.345)" fill="#fff"/><path d="M2168.889,1187.572c.016.186.031.372.048.557l-.188.025c-.036-.19-.075-.38-.112-.569l.253-.013" transform="translate(-1929.821 -1056.794)" fill="#fff"/><path d="M4803.229,828.653l.207-.72a2.126,2.126,0,0,1,.125.408c.007.042-.1.1-.333.312" transform="translate(-4274.29 -736.759)" fill="#fff"/><path d="M2002.625,1185.256c-.22-.044-.559.144-.583-.292.222.044.559-.144.583.292" transform="translate(-1781.572 -1054.469)" fill="#fff"/><path d="M433.987,1185.7c.1-.355.151-.53.2-.705a2.358,2.358,0,0,1,.126.407c.006.042-.1.1-.327.3" transform="translate(-386.195 -1054.503)" fill="#fff"/><path d="M3327.461,39.3l.721.2a2.455,2.455,0,0,1-.409.126c-.042.006-.1-.1-.312-.331" transform="translate(-2961.033 -34.968)" fill="#fff"/><path d="M3958.951,891.669c.025-.436.361-.248.584-.291-.025.436-.364.247-.584.291" transform="translate(-3522.982 -793.213)" fill="#fff"/><path d="M3517.31,182.827c-.22-.044-.559.144-.584-.291.22.044.559-.144.584.291" transform="translate(-3129.457 -162.43)" fill="#fff"/><path d="M3951.589,896.667c-.023.436-.36.247-.583.291.025-.435.362-.247.583-.291" transform="translate(-3515.912 -797.92)" fill="#fff"/><path d="M4656.044,1158.573l-.558.048-.025-.188.564-.111c.007.084.01.168.018.251" transform="translate(-4142.792 -1030.765)" fill="#fff"/><path d="M3374.316,50.581c-.22-.044-.559.144-.584-.291.22.044.557-.144.584.291" transform="translate(-3002.208 -44.748)" fill="#fff"/><path d="M3334.011,42.354c.221.044.559-.145.584.291-.221-.044-.558.145-.584-.291" transform="translate(-2966.864 -37.686)" fill="#fff"/><path d="M3364.532,44.585l.722.2a2.372,2.372,0,0,1-.409.126c-.043.006-.1-.1-.313-.331" transform="translate(-2994.022 -39.675)" fill="#fff"/><path d="M3389.62,76.738c.22.044.556-.145.583.291-.22-.044-.559.144-.583-.291" transform="translate(-3016.347 -68.284)" fill="#fff"/><path d="M1358.532,1119.458c.044-.221-.145-.557.291-.583-.043.221.145.557-.291.583" transform="translate(-1208.924 -995.662)" fill="#fff"/><path d="M3418.749,103.188c.22.044.557-.144.58.291-.22-.044-.557.144-.58-.291" transform="translate(-3042.269 -91.821)" fill="#fff"/><path d="M3347.834,50.581c-.222-.044-.559.144-.583-.291.221.044.557-.144.583.291" transform="translate(-2978.645 -44.748)" fill="#fff"/><path d="M3622.938,314.816v.533l-.193.021-.1-.554Z" transform="translate(-3223.714 -280.147)" fill="#fff"/><path d="M956.063,320.106l.291.291-.291-.291" transform="translate(-850.779 -284.855)" fill="#fff"/><path d="M924.066,319.829l.238.2-.092.092-.2-.238.057-.057" transform="translate(-822.255 -284.608)" fill="#fff"/><path d="M762.478,317.943l.2-.238.092.092-.238.2-.057-.057" transform="translate(-678.512 -282.718)" fill="#fff"/><path d="M3715.871,1039.306c-.07.08-.136.159-.2.238l-.092-.092.238-.2.058.057" transform="translate(-3306.407 -924.804)" fill="#fff"/><rect width="0.097" height="0.291" transform="translate(408.946 115.058)" fill="#fff"/><rect width="0.097" height="0.291" transform="translate(326.421 108.068)" fill="#fff"/><path d="M3172.266,975.772l.24.2-.092.092-.2-.237.055-.058" transform="translate(-2822.88 -868.317)" fill="#fff"/><path d="M3620.484,312.71c-.079-.068-.158-.135-.239-.2.032-.031.063-.061.093-.092.068.079.134.158.2.237-.018.019-.039.039-.056.058" transform="translate(-3221.575 -278.011)" fill="#fff"/><path d="M959,323.042l-.292-.291.292.291" transform="translate(-853.135 -287.209)" fill="#fff"/><rect width="0.292" height="0.097" transform="translate(91.578 34.474)" fill="#fff"/><path d="M4687.164,1090.073c.1-.1.195-.194.291-.292-.1.1-.193.195-.291.292" transform="translate(-4171.003 -969.772)" fill="#fff"/><path d="M4684.516,1092.718c.1-.1.192-.2.292-.292-.1.1-.192.194-.292.292" transform="translate(-4168.646 -972.126)" fill="#fff"/><path d="M4682.159,1095.071c-.094.1-.195.194-.291.291.1-.1.2-.194.291-.291" transform="translate(-4166.29 -974.479)" fill="#fff"/><rect width="0.292" height="0.097" transform="translate(102.659 35.931)" fill="#fff"/><path d="M1295.5,1103.544l-.239-.2.093-.092.2.238-.057.057" transform="translate(-1152.62 -981.757)" fill="#fff"/><path d="M4671,1103.488c.068-.08.138-.159.205-.238.029.031.059.061.093.092l-.241.2-.057-.057" transform="translate(-4156.615 -981.757)" fill="#fff"/><path d="M1297.441,1105.373c.08.068.158.136.239.2l-.092.092-.2-.239c.02-.018.038-.038.057-.056" transform="translate(-1154.513 -983.646)" fill="#fff"/><path d="M4668.919,1105.65q-.145.146-.294.292.149-.146.294-.292" transform="translate(-4154.506 -983.893)" fill="#fff"/><path d="M5097.4,1105.373c.079.068.157.136.238.2l-.092.092c-.067-.079-.136-.158-.2-.237.017-.02.036-.038.056-.058" transform="translate(-4536.009 -983.646)" fill="#fff"/><rect width="0.097" height="0.291" transform="translate(160.787 122.048)" fill="#fff"/><path d="M4666.27,1108.3c-.1.1-.2.194-.291.292.1-.1.193-.2.291-.292" transform="translate(-4152.152 -986.246)" fill="#fff"/><path d="M4663.871,1110.72c-.067.079-.134.159-.2.238-.027-.031-.062-.061-.092-.092.081-.067.161-.135.239-.2.021.019.037.039.055.057" transform="translate(-4150.011 -988.354)" fill="#fff"/><path d="M3362.863,69.319c.07-.079.136-.159.2-.238l.092.092-.238.2c-.019-.019-.037-.038-.057-.057" transform="translate(-2992.537 -61.473)" fill="#fff"/><rect width="0.292" height="0.097" transform="translate(348.486 105.543)" fill="#fff"/><rect width="0.097" height="0.291" transform="translate(159.62 123.213)" fill="#fff"/><path d="M3392.054,60.626l.238.2c-.03.031-.061.061-.092.092-.068-.079-.134-.158-.2-.237.02-.019.036-.039.056-.058" transform="translate(-3018.462 -53.949)" fill="#fff"/><path d="M992.915,288.09c.078.068.159.135.238.2l-.092.092-.2-.238.057-.057" transform="translate(-883.522 -256.364)" fill="#fff"/><path d="M1356.458,1123.945c-.067.08-.135.159-.2.239l-.091-.093c.079-.066.159-.134.237-.2l.057.057" transform="translate(-1206.82 -1000.122)" fill="#fff"/><path d="M990.779,286.013l-.291-.291.291.291" transform="translate(-881.413 -254.257)" fill="#fff"/><rect width="0.097" height="0.291" transform="translate(149.123 124.379)" fill="#fff"/><path d="M987.84,283.077l.291.291-.291-.291" transform="translate(-879.057 -251.904)" fill="#fff"/><path d="M4644.518,1137.872l.206-.238c.029.031.062.062.09.092l-.237.2-.058-.057" transform="translate(-4133.05 -1012.355)" fill="#fff"/><path d="M4642.687,1139.814l-.2.238c-.03-.03-.065-.061-.093-.091l.239-.2.057.057" transform="translate(-4131.16 -1014.243)" fill="#fff"/><path d="M1364.4,1142.459l-.2.238c-.03-.031-.06-.062-.092-.092l.238-.2c.019.019.038.037.056.057" transform="translate(-1213.888 -1016.597)" fill="#fff"/><path d="M3371.376,47.969l-.293-.291.293.291" transform="translate(-2999.85 -42.427)" fill="#fff"/><rect width="0.097" height="0.291" transform="translate(510.718 125.835)" fill="#fff"/><path d="M1204.759,280.155l.238.2-.092.092-.2-.238.057-.057" transform="translate(-1072.037 -249.303)" fill="#fff"/><path d="M3940.705,923.15c-.1.1-.194.194-.292.291.1-.1.193-.194.292-.291" transform="translate(-3506.486 -821.49)" fill="#fff"/><path d="M1967.618,1150.614l.291.292-.291-.292" transform="translate(-1750.94 -1023.905)" fill="#fff"/><path d="M4697.756,1150.906c.1-.1.2-.2.291-.292-.094.1-.195.194-.291.292" transform="translate(-4180.429 -1023.905)" fill="#fff"/><path d="M1970.266,1153.259l.292.291-.292-.291" transform="translate(-1753.296 -1026.26)" fill="#fff"/><path d="M4695.4,1153.259l-.293.291.293-.291" transform="translate(-4178.07 -1026.26)" fill="#fff"/><rect width="0.097" height="0.291" transform="translate(54.349 127.291)" fill="#fff"/><path d="M1973.205,1156.2l-.291-.292.291.292" transform="translate(-1755.652 -1028.613)" fill="#fff"/><path d="M4647.735,1155.9c-.1.1-.2.195-.292.292.095-.1.193-.194.292-.292" transform="translate(-4135.658 -1028.613)" fill="#fff"/><path d="M1202.332,277.787l.292.291-.292-.291" transform="translate(-1069.928 -247.196)" fill="#fff"/><path d="M4708.888,1155.685c-.067.08-.137.158-.2.238-.033-.031-.06-.061-.094-.092l.241-.2.056.057" transform="translate(-4190.073 -1028.367)" fill="#fff"/><path d="M3389.62,58.258l.291.291-.291-.291" transform="translate(-3016.347 -51.842)" fill="#fff"/><path d="M1199.975,275.433l-.292-.291.292.291" transform="translate(-1067.572 -244.842)" fill="#fff"/><path d="M961.139,325.119l.239.2-.092.092-.2-.238.057-.057" transform="translate(-855.245 -289.316)" fill="#fff"/><path d="M1975.562,1158.549l.292.292-.292-.292" transform="translate(-1758.009 -1030.967)" fill="#fff"/><path d="M4645.084,1158.549c-.1.1-.195.194-.291.292.1-.1.2-.2.291-.292" transform="translate(-4133.298 -1030.967)" fill="#fff"/><path d="M3946.249,901.771l-.2.238c-.032-.031-.061-.061-.092-.092l.238-.2.056.057" transform="translate(-3511.418 -802.415)" fill="#fff"/><path d="M1978.21,1161.194c.1.1.193.195.291.291-.1-.1-.194-.193-.291-.291" transform="translate(-1760.365 -1033.32)" fill="#fff"/><path d="M1197.519,273.036l-.239-.2.093-.092c.067.08.135.159.2.238l-.057.057" transform="translate(-1065.433 -242.706)" fill="#fff"/><path d="M2150.814,1161.733l-.238-.2.091-.092.2.238-.057.057" transform="translate(-1913.75 -1033.538)" fill="#fff"/><path d="M4642.146,1161.485c.1-.1.2-.193.293-.291-.1.1-.195.195-.293.291" transform="translate(-4130.944 -1033.32)" fill="#fff"/><path d="M4685.055,1160.973c-.064.08-.135.159-.2.238-.035-.03-.063-.061-.095-.091.082-.069.159-.136.24-.2l.055.056" transform="translate(-4168.863 -1033.074)" fill="#fff"/><path d="M3948.357,899.638l.291-.292-.291.292" transform="translate(-3513.554 -800.308)" fill="#fff"/><path d="M1980.858,1163.839l.292.292-.292-.292" transform="translate(-1762.722 -1035.674)" fill="#fff"/><path d="M2152.76,1163.562c.08.067.161.136.238.2-.031.031-.059.062-.091.092-.067-.079-.135-.158-.2-.238.02-.019.038-.037.056-.056" transform="translate(-1915.644 -1035.427)" fill="#fff"/><path d="M4640.039,1163.618c-.064.08-.135.159-.2.238-.033-.031-.062-.062-.092-.092.082-.067.159-.135.237-.2.021.019.04.037.058.056" transform="translate(-4128.804 -1035.427)" fill="#fff"/><path d="M1983.8,1166.775l-.292-.291.292.291" transform="translate(-1765.077 -1038.028)" fill="#fff"/><path d="M1986.154,1169.129l.293.292-.293-.292" transform="translate(-1767.434 -1040.381)" fill="#fff"/><path d="M2049.488,1168.852l.238.2c-.032.03-.061.061-.092.092l-.2-.238Z" transform="translate(-1823.742 -1040.135)" fill="#fff"/><path d="M1988.8,1171.774l.292.291-.292-.291" transform="translate(-1769.791 -1042.736)" fill="#fff"/><path d="M1991.45,1174.419c.1.1.194.2.292.291-.1-.1-.194-.193-.292-.291" transform="translate(-1772.147 -1045.089)" fill="#fff"/><rect width="0.292" height="0.097" transform="translate(375.606 8.843)" fill="#fff"/><path d="M3956.3,894.348c.1-.1.2-.195.294-.292-.1.1-.195.194-.294.292" transform="translate(-3520.625 -795.6)" fill="#fff"/><path d="M3514.56,180.464l-.237-.2.09-.092c.069.079.137.158.2.237-.016.019-.037.039-.056.058" transform="translate(-3127.317 -160.328)" fill="#fff"/><path d="M1994.39,1177.354l-.292-.291.292.291" transform="translate(-1774.504 -1047.442)" fill="#fff"/><path d="M2012.635,1177.354v-.291h.292l-.292.291" transform="translate(-1790.999 -1047.442)" fill="#fff"/><path d="M897.586,327.764l.239.2-.092.092-.2-.238.057-.057" transform="translate(-798.691 -291.669)" fill="#fff"/><path d="M1996.746,1179.708l.291.291-.291-.291" transform="translate(-1776.86 -1049.796)" fill="#fff"/><path d="M2010.526,1179.489l-.2.239-.092-.093.238-.2c.02.018.038.038.057.056" transform="translate(-1788.859 -1049.55)" fill="#fff"/><path d="M2063.43,1180.247l-.238-.2c.032-.031.061-.061.093-.092.067.079.136.159.2.238-.018.019-.038.038-.057.057" transform="translate(-1835.989 -1050.013)" fill="#fff"/><path d="M1999.686,1182.645l-.293-.292.293.292" transform="translate(-1779.216 -1052.149)" fill="#fff"/><path d="M2065.6,1182.353c.1.1.192.2.291.292-.1-.1-.2-.194-.291-.292" transform="translate(-1838.128 -1052.149)" fill="#fff"/><path d="M3378.815,84.43c.079.068.156.135.238.2-.032.031-.062.061-.091.092-.071-.079-.136-.158-.2-.237a.671.671,0,0,1,.056-.058" transform="translate(-3006.681 -75.132)" fill="#fff"/><rect width="0.097" height="0.291" transform="translate(527.923 94.961)" fill="#fff"/><rect width="0.097" height="0.291" transform="translate(528.798 92.339)" fill="#fff"/><path d="M2068.535,1185.289c-.1-.1-.2-.2-.292-.291.1.1.2.193.292.291" transform="translate(-1840.483 -1054.503)" fill="#fff"/><path d="M3543.689,167.239c-.079-.068-.157-.135-.239-.2.031-.031.063-.061.092-.092l.2.237c-.017.019-.037.039-.056.058" transform="translate(-3153.238 -148.559)" fill="#fff"/><path d="M2150.333,1185c.1.1.2.193.291.291-.1-.1-.194-.2-.291-.291" transform="translate(-1913.535 -1054.503)" fill="#fff"/><path d="M2166.705,1185.536c-.08-.068-.16-.135-.239-.2.032-.03.061-.061.092-.092.068.08.136.159.2.238l-.056.057" transform="translate(-1927.889 -1054.72)" fill="#fff"/><path d="M2007.117,1187.366l.24.2-.093.092-.2-.238.057-.057" transform="translate(-1786.039 -1056.61)" fill="#fff"/><path d="M2070.892,1187.643l.291.292-.291-.292" transform="translate(-1842.841 -1056.857)" fill="#fff"/><path d="M910.826,327.764l.239.2-.092.092-.2-.238.057-.057" transform="translate(-810.473 -291.669)" fill="#fff"/><path d="M1999.173,1190.011l.24.2c-.031.031-.063.061-.092.092-.068-.079-.136-.158-.2-.238l.056-.057" transform="translate(-1778.969 -1058.964)" fill="#fff"/><path d="M2073.317,1190.011l.239.2c-.031.031-.061.061-.093.092l-.2-.238c.019-.018.038-.037.057-.057" transform="translate(-1844.948 -1058.964)" fill="#fff"/><path d="M2065.6,1192.933c.1.1.192.194.291.291-.1-.1-.2-.194-.291-.291" transform="translate(-1838.128 -1061.564)" fill="#fff"/><rect width="0.097" height="0.291" transform="translate(239.521 131.66)" fill="#fff"/><rect width="0.292" height="0.097" transform="translate(221.344 132.048)" fill="#fff"/><path d="M969.786,331.225l-.238-.2.092-.092.2.238-.057.057" transform="translate(-862.779 -294.487)" fill="#fff"/><path d="M2081.264,1205.881l.237.2c-.031.031-.06.062-.092.092-.066-.079-.135-.159-.2-.238l.057-.057" transform="translate(-1852.02 -1073.086)" fill="#fff"/><rect width="0.292" height="0.097" transform="translate(234.467 132.922)" fill="#fff"/><path d="M2187.7,1211.739c-.1-.1-.193-.194-.291-.291.1.1.2.194.291.291" transform="translate(-1946.524 -1078.04)" fill="#fff"/><rect width="0.292" height="0.097" transform="translate(225.718 134.087)" fill="#fff"/><path d="M2115.908,1216.737l.291.292-.291-.292" transform="translate(-1882.9 -1082.747)" fill="#fff"/><path d="M971.731,333.053l.238.2-.092.092-.2-.238.056-.057" transform="translate(-864.671 -296.376)" fill="#fff"/><path d="M2118.557,1219.382l.292.291-.292-.291" transform="translate(-1885.257 -1085.1)" fill="#fff"/><path d="M2121.2,1222.027l.291.292-.291-.292" transform="translate(-1887.614 -1087.454)" fill="#fff"/><path d="M2023.007,1224.395l.236.2c-.031.03-.06.061-.09.091-.069-.079-.136-.158-.2-.238.019-.019.038-.038.058-.057" transform="translate(-1800.178 -1089.562)" fill="#fff"/><path d="M2123.631,1224.395l.238.2c-.031.03-.061.061-.093.091-.065-.079-.134-.158-.2-.238l.057-.057" transform="translate(-1889.721 -1089.562)" fill="#fff"/><path d="M3413.744,90.288c-.1-.1-.2-.194-.292-.291l.292.291" transform="translate(-3037.555 -80.086)" fill="#fff"/><path d="M3416.584,101.117l-.24-.2.092-.092q.1.118.2.237c-.019.019-.039.038-.056.058" transform="translate(-3040.13 -89.719)" fill="#fff"/><rect width="0.292" height="0.097" transform="translate(359.859 0.105)" fill="#fff"/><rect width="0.292" height="0.097" transform="translate(226.302 136.126)" fill="#fff"/><path d="M2089.911,1238.436l-.239-.2.092-.092c.068.08.134.159.2.238l-.057.057" transform="translate(-1859.552 -1101.794)" fill="#fff"/><path d="M961.651,336.266l-.292-.291.292.291" transform="translate(-855.492 -298.976)" fill="#fff"/><path d="M2058.135,1251.661l-.239-.2c.033-.031.062-.061.093-.092l.2.238-.058.056" transform="translate(-1831.276 -1113.563)" fill="#fff"/><path d="M2105.8,1251.661l-.239-.2.092-.092.2.238c-.02.019-.04.037-.057.056" transform="translate(-1873.692 -1113.563)" fill="#fff"/><path d="M2060.59,1254.057l-.291-.291.291.291" transform="translate(-1833.414 -1115.698)" fill="#fff"/><path d="M2107.743,1253.49l.239.2c-.031.031-.06.062-.093.092l-.2-.238.057-.057" transform="translate(-1875.583 -1115.452)" fill="#fff"/><path d="M2062.726,1256.134l.239.2-.094.092c-.066-.08-.135-.159-.2-.239l.057-.057" transform="translate(-1835.523 -1117.806)" fill="#fff"/><path d="M2224.77,1256.7l-.292-.291.292.291" transform="translate(-1979.514 -1118.052)" fill="#fff"/><rect width="0.097" height="0.291" transform="translate(229.607 138.65)" fill="#fff"/><path d="M2227.418,1259.347l-.292-.291.292.291" transform="translate(-1981.87 -1120.405)" fill="#fff"/><path d="M2229.555,1261.424l.238.2-.093.092q-.1-.119-.2-.239Z" transform="translate(-1983.979 -1122.513)" fill="#fff"/><path d="M963.787,338.343l.238.2-.091.092-.2-.238.057-.057" transform="translate(-857.602 -301.084)" fill="#fff"/><rect width="0.292" height="0.097" transform="translate(242.049 142.243)" fill="#fff"/><path d="M2235.071,1290.8l.292.292-.292-.292" transform="translate(-1988.94 -1148.649)" fill="#fff"/><rect width="0.292" height="0.097" transform="translate(401.267 39.426)" fill="#fff"/><path d="M2237.5,1293.164l.238.2-.093.091c-.067-.078-.134-.158-.2-.237.019-.019.038-.038.058-.057" transform="translate(-1991.048 -1150.758)" fill="#fff"/><rect width="0.097" height="0.291" transform="translate(235.147 142.728)" fill="#fff"/><rect width="0.097" height="0.291" transform="translate(236.314 143.602)" fill="#fff"/><rect width="0.097" height="0.291" transform="translate(235.439 143.893)" fill="#fff"/><path d="M1307.7,751.3a1.6,1.6,0,0,1-1.739.422c.558-.107,1.033-.576,1.739-.422" transform="translate(-1162.148 -668.538)" fill="#fff"/><path d="M1351.611,1061.341l-.583.9c-.244-.674.148-.8.583-.9" transform="translate(-1202.183 -944.463)" fill="#fff"/><path d="M1315.026,1034.148l.578.042c-.013.2-.024.362-.038.555-.272-.176-.479-.309-.685-.443l.145-.154" transform="translate(-1170.083 -920.265)" fill="#fff"/><path d="M1155.637,888.734l-.851.04c-.006-.065-.012-.129-.018-.194l.859-.113c0,.089.006.178.01.267" transform="translate(-1027.602 -790.627)" fill="#fff"/><path d="M1311.559,732.736l-.56.048c-.007-.063-.016-.126-.023-.188l.57-.111c0,.084.009.167.013.251" transform="translate(-1166.608 -651.821)" fill="#fff"/><path d="M1293.152,738.165h-.484c-.007-.046-.014-.092-.022-.138l.474-.113c.01.084.021.167.032.252" transform="translate(-1150.297 -656.652)" fill="#fff"/><path d="M1335.521,759.325h-.484c-.007-.046-.016-.092-.022-.139l.474-.113.032.252" transform="translate(-1188 -675.482)" fill="#fff"/><rect width="0.292" height="0.097" transform="translate(142.318 109.33)" fill="#fff"/><path d="M1324.624,1040.066l-.238-.2.092-.091.2.238c-.018.019-.038.037-.057.057" transform="translate(-1178.541 -925.269)" fill="#fff"/><path d="M1326.569,1041.895l.239.2-.092.092-.2-.239.056-.056" transform="translate(-1180.434 -927.159)" fill="#fff"/><path d="M2964.172,745.126h-1.09c.049-.224.087-.4.162-.73l.928.73" transform="translate(-2636.78 -662.421)" fill="#fff"/><path d="M3045.159,801.206l.24.2c-.029.031-.062.061-.092.092-.068-.079-.134-.159-.2-.237.019-.019.039-.039.055-.058" transform="translate(-2709.769 -712.975)" fill="#fff"/><path d="M2984.95,751.769l-.237-.2.091-.092c.068.079.135.159.2.237-.018.019-.036.039-.056.058" transform="translate(-2656.03 -668.72)" fill="#fff"/></g></g></g></svg>