<svg xmlns="http://www.w3.org/2000/svg" width="63.128" height="284.206" viewBox="0 0 63.128 284.206">
  <g id="logo" transform="translate(-94 -931)">
    <g id="グループ_7" data-name="グループ 7" transform="translate(94 931)">
      <ellipse id="楕円形_1" data-name="楕円形 1" cx="8.707" cy="8.707" rx="8.707" ry="8.707" transform="translate(22.758 5.343)" fill="#fff"/>
      <ellipse id="楕円形_2" data-name="楕円形 2" cx="8.707" cy="8.707" rx="8.707" ry="8.707" transform="translate(12.071 22.362)" fill="#fff"/>
      <ellipse id="楕円形_3" data-name="楕円形 3" cx="8.707" cy="8.707" rx="8.707" ry="8.707" transform="translate(34.236 22.362)" fill="#fff"/>
      <path id="パス_1" data-name="パス 1" d="M-64.955,383.624a51.785,51.785,0,0,0,5.145,2.77c1.187.4,1.187.4,5.145,0A97.385,97.385,0,0,1-29.73,385.6a29.444,29.444,0,0,0,5.937-1.187c1.979-.792,2.77-.4,2.77.792s-1.583,7.916-7.916,9.895c-1.583.4-7.124-1.187-10.686-1.583s-14.644,1.187-16.623,1.979-3.562,1.979-5.541,1.583-4.75-3.958-5.541-7.124S-68.121,387.582-64.955,383.624Z" transform="translate(77.026 -344.639)" fill="#fff"/>
      <path id="パス_2" data-name="パス 2" d="M-119.936,94.128A31.6,31.6,0,0,1-151.5,62.564,31.6,31.6,0,0,1-119.936,31,31.6,31.6,0,0,1-88.372,62.564,31.6,31.6,0,0,1-119.936,94.128Zm0-59.962a28.43,28.43,0,0,0-28.4,28.4,28.43,28.43,0,0,0,28.4,28.4,28.43,28.43,0,0,0,28.4-28.4A28.43,28.43,0,0,0-119.936,34.166Z" transform="translate(151.5 -31)" fill="#fff"/>
    </g>
    <g id="グループ_8" data-name="グループ 8" transform="translate(101 1025.128)">
      <path id="パス_3" data-name="パス 3" d="M1007.284,184.134c2.041,0,3.062-1.134,4.648-2.211a14.147,14.147,0,0,1-.227-2.664c0-5.668.567-11.223.567-16.891a7.574,7.574,0,0,0-1.644-4.591c1.587.227,3.174.453,4.648.794,1.757-1.077,4.024-1.247,5.668-2.551,2.211.34,5.214,1.417,5.214,4.025-1.814,1.417-2.04,2.493-2.04,4.7v15.531c0,1.3,0,5.158-1.985,5.158-1.36,0-1.87-3.4-2.04-4.421-3.344,1.984-7.935,4.535-10.089,7.879-1.3-.68-2.154-3.344-2.777-4.591Zm8.559,10.316c0,2.268-1.984,6.519-4.592,6.519a2.425,2.425,0,0,1-2.494-2.551c0-2.664,4.7-4.478,4.7-7.652a4.379,4.379,0,0,0-.113-.85A5.172,5.172,0,0,1,1015.843,194.45Zm-1.247-22.219c0,2.721.057,5.384.283,8.049a29.619,29.619,0,0,1,5.1-2.777c.056-1.19.113-2.211.113-3.4,0-1.077-.057-2.324-.17-3.4a6.746,6.746,0,0,0-4.195,2.381Zm5.668-9.126c0-.963-.057-1.814-.114-2.777a18.221,18.221,0,0,1-5.328,1.927q0,3.655-.169,7.312,2.635-1.275,5.271-2.721A20.416,20.416,0,0,0,1020.265,163.1Zm8.445,32.649a3.863,3.863,0,0,1-2.211,3.8c-4.194-.964-2.663-6.972-5.158-10.316C1024.856,189.689,1028.71,191.73,1028.71,195.753Zm2.948-39.847c2.89-.68,5.781-1.19,8.559-1.7a32.355,32.355,0,0,0,4.2-.737c.737-.283,1.643-1.077,2.607-1.077,1.7,0,4.987,2.551,6.008,3.968-2.55,2.1-3.117,3.571-3.457,5.215-.907,4.647-2.721,10.2-7.822,11.62-1.871-.964-2.948-4.365-3.457-6.235a7.534,7.534,0,0,0,3.117.85c2.607,0,4.421-7.822,4.421-9.976a7.233,7.233,0,0,0-.057-1.077,29.3,29.3,0,0,0-7.368,1.077,13.04,13.04,0,0,1,2.891,1.984c-4.592,3.344-5.1,8.785-10.94,11.563a7.094,7.094,0,0,1-2.721.794,2.762,2.762,0,0,1-.68-.057c2.608-2.607,8.219-9.069,8.219-12.7a5.059,5.059,0,0,0-.17-1.247,8.334,8.334,0,0,0-4.081,1.36c-1.19-1.077-1.417-2.948-1.814-4.421Zm1.757,20.122c2.55-.51,9.862-2.721,12.13-2.721,1.531,0,6.916,2.211,6.916,3.8,0,.738-1.984,1.361-2.494,1.531-.794,2.437-2.041,4.818-3.061,7.2a1.569,1.569,0,0,1-.737.17c-1.02,0-1.871-.34-2.891-.34a24.012,24.012,0,0,0-8.275,1.474,3.443,3.443,0,0,1-1.247,1.871c-4.648-1.134-1.644-10.713-5.555-13.888l.113-.226a21.708,21.708,0,0,0,4.875,1.134Zm7.595,21.255c0,1.247-1.134,3.231-2.494,3.231-2.834,0-2.891-3.741-3.231-5.668a13.647,13.647,0,0,0-2.1-4.534C1036.532,191.049,1041.01,193.429,1041.01,197.284Zm-7.538-18.195a17.744,17.744,0,0,1,1.473,5.725c2.438-.567,4.932-1.077,7.313-1.587.85-2.041,1.7-4.138,2.437-6.292C1040.9,177.105,1037.213,178.182,1033.471,179.089Zm9.806,9.353c5.215,0,12.867,3.628,12.867,9.636,0,1.19-.737,1.814-2.041,1.814-3.968,0-7.992-9.126-11.62-11.393A3.489,3.489,0,0,1,1043.277,188.442Z" transform="translate(-1007.228 -152.392)" fill="#fff"/>
      <path id="パス_4" data-name="パス 4" d="M1048.084,285.048l-2.211-.227a49.306,49.306,0,0,0-5.045-.227H1039.3l3,1.53.34,2.154c1.928-.17,3.854-.4,5.725-.4,2.1,0,6.009,1.02,6.462,3.458-.624,1.19-2.042,1.417-3.231,1.417a33.962,33.962,0,0,1-4.195-.567,29.2,29.2,0,0,0-4.648-.17c.283,3.231.68,6.462,1.19,9.636a29.783,29.783,0,0,1,.567,4.988c-1.02,2.041-2.834,6.009-4.7,7.029a6.732,6.732,0,0,1-2.948-1.757,48.474,48.474,0,0,0-6.971-6.349,20.064,20.064,0,0,0,4.024.51,8.325,8.325,0,0,0,3.854-.85,31.768,31.768,0,0,0,.283-4.592,72.431,72.431,0,0,0-.511-8.615,39.3,39.3,0,0,0-11.732,2.1c-5.045,7.992-7.426,13.49-17.232,16.21,4.138-4.194,8.446-9.182,11.167-14.34l-3.174.624a6.807,6.807,0,0,1-2.1-3.174,2.761,2.761,0,0,1,.681-.057,24.843,24.843,0,0,0,6.4-1.36l2.778-3.628a11.582,11.582,0,0,0-5.782,1.814,9.057,9.057,0,0,1-3.118-4.138l.283-.17,2.834.85a47.5,47.5,0,0,1,6.859-1.417l1.3-3.457c-.454,0-.906.056-1.247.056-1.417,0-3.458-1.02-4.7-1.7a44.919,44.919,0,0,0,6.688-1.247l.964-3.231a43.561,43.561,0,0,1-6.065.964,15.62,15.62,0,0,1-3.4-2.721,42.041,42.041,0,0,0,10.259-1.587,12.87,12.87,0,0,0,1.3-5.781c0-1.417-3-2.438-4.024-2.891v-.34c2.21-.283,4.194-1.19,6.461-1.19,1.587,0,4.591,1.077,5.044,2.778-2.551,2.267-2.89,2.891-4.194,5.951,3.74,0,7.028-2.153,10.77-2.153,1.19,0,2.833.17,3.627,1.3a2.551,2.551,0,0,1-1.927,2.041c-4.138,1.53-8.729,1.19-12.98,2.607l-1.077,2.494c2.211-.68,4.7-1.587,7.029-1.587.85,0,3.571.34,3.571,1.53a.817.817,0,0,1-.114.4c-2.268,1.474-8.389,2.154-11.336,3.287l-1.247,2.438a60.439,60.439,0,0,1,16.835-2.721c2.041,0,4.421.453,5.328,2.493v.113c0,1.7-2.438,1.927-3.741,1.927Zm-12.923,15.985a3.675,3.675,0,0,1-.794,2.267,5.681,5.681,0,0,1-1.36.227c-3.854,0-4.194-5.215-6.745-7.312C1029.266,296.5,1035.161,296.838,1035.161,301.033Zm-.34-15.7a22.816,22.816,0,0,1-5.157,1.644c-1.077,1.474-2.154,3-3.174,4.478a110.751,110.751,0,0,1,11.392-2.664C1036.861,287.6,1035.841,286.466,1034.821,285.332Z" transform="translate(-1007.727 -193.043)" fill="#fff"/>
      <path id="パス_5" data-name="パス 5" d="M1012.808,400.08a25.912,25.912,0,0,1,5.838,1.133c3.968-1.247,11.564-3.627,15.7-3.627,2.664,0,6.008,1.927,8.162,3.287a2.379,2.379,0,0,1,.226.85c0,1.248-2.154,2.154-3,2.778-2.324,1.7-3.174,5.271-5.442,7.142a8.426,8.426,0,0,0-1.134-.114,28.463,28.463,0,0,0-10.2,1.588c-.227,1.246-.794,2.948-2.1,3.4-1.984-1.19-2.891-6.858-3.628-9.182a17.609,17.609,0,0,0-4.421-7.086Zm29.134,18.251a50.57,50.57,0,0,0-3.8-4.024,19.226,19.226,0,0,0,4.647.68,10.8,10.8,0,0,0,4.025-.737c1.134-1.644,1.19-5.328,1.19-7.369,0-2.607-.113-5.215-.17-7.822-.113-3.571.113-13.094-.567-15.872a3.662,3.662,0,0,0-.964-1.927,11.079,11.079,0,0,0-2.323-.227c-5.328,0-24.317,2.778-28.115,5.272-1.19-.567-1.871-5.442-2.154-6.8a20.472,20.472,0,0,1,3.4,1.983c5.668-.85,11.393-1.814,16.891-2.948,3.458-.68,9.409-2.38,12.583-2.38,2.834,0,9.75,2.948,9.75,6.235,0,.906-1.588,1.7-2.211,2.21-1.814,1.417-2.1,4.478-2.1,6.519,0,.283.454,17.345,1.3,24.544-.849,2.664-3.06,8.615-5.781,9.636C1046.533,424.906,1042.849,419.578,1041.942,418.331Zm-20.632-22.5c-2.041,0-4.875-3.968-6.235-5.5a19,19,0,0,0,4.308.51c.566,0,6.745-2.267,7.368-2.551,1.134-.4,5.669-2.1,6.689-2.1,2.041,0,6.915,1.077,6.915,3.628a1.84,1.84,0,0,1-1.191,1.53c-1.19.68-4.194.624-5.781.794-3.854.4-8.275,1.36-11.563,3.628A1.748,1.748,0,0,1,1021.31,395.829Zm9.183,11.846a42.832,42.832,0,0,0,1.474-5.441,14.847,14.847,0,0,0-1.531-.114c-2.608,0-6.291,1.417-8.785,2.211l1.19,5.5Z" transform="translate(-1009.294 -235.226)" fill="#fff"/>
    </g>
  </g>
</svg>