<svg width="48" height="49" viewBox="0 0 48 49" fill="none" xmlns="http://www.w3.org/2000/svg">
<g clip-path="url(#clip0_49_248)">
<path d="M34.1451 0.248169H26.0556V32.9438C26.0556 36.8395 22.9444 40.0395 19.0725 40.0395C15.2007 40.0395 12.0894 36.8395 12.0894 32.9438C12.0894 29.1178 15.1315 25.9872 18.8651 25.8482V17.6395C10.6374 17.7786 4 24.5264 4 32.9438C4 41.4308 10.7757 48.2482 19.1417 48.2482C27.5075 48.2482 34.2833 41.3612 34.2833 32.9438V16.1786C37.3255 18.4047 41.059 19.7264 45 19.796V11.5873C38.9157 11.3786 34.1451 6.3699 34.1451 0.248169Z" fill="black"/>
</g>
<defs>
<clipPath id="clip0_49_248">
<rect width="48" height="48" fill="white" transform="translate(0 0.248169)"/>
</clipPath>
</defs>
</svg>
